{
.appVersion = "3100";
classes = (
{
automatic = 1;
code = "A Aacute Abreve Abreveacute Abrevedotbelow Abrevegrave Abrevehookabove Abrevetilde Acircumflex Acircumflexacute Acircumflexdotbelow Acircumflexgrave Acircumflexhookabove Acircumflextilde Adblgrave Adieresis Adotbelow Agrave Ahookabove Ainvertedbreve Amacron Aogonek Aring Aringacute Atilde AE AEacute B C Cacute Ccaron Ccedilla Ccircumflex Cdotaccent D DZcaron Eth Dcaron Dcroat Dzcaron E Eacute Ebreve Ecaron Ecircumflex Ecircumflexacute Ecircumflexdotbelow Ecircumflexgrave Ecircumflexhookabove Ecircumflextilde Edblgrave Edieresis Edotaccent Edotbelow Egrave Ehookabove Einvertedbreve Emacron Eogonek Etilde F G Gbreve Gcaron Gcircumflex Gcommaaccent Gdotaccent H Hbar Hcircumflex I IJ Iacute Ibreve Icircumflex Idblgrave Idieresis Idotaccent Idotbelow Igrave Ihookabove Iinvertedbreve Imacron Iogonek Itilde J Jcircumflex K Kcommaaccent L LJ Lacute Lcaron Lcommaaccent Ldot Lj Lslash M N NJ Nacute Ncaron Ncommaaccent Eng Nj Ntilde O Oacute Obreve Ocircumflex Ocircumflexacute Ocircumflexdotbelow Ocircumflexgrave Ocircumflexhookabove Ocircumflextilde Odblgrave Odieresis Odieresismacron Odotaccentmacron Odotbelow Ograve Ohookabove Ohorn Ohornacute Ohorndotbelow Ohorngrave Ohornhookabove Ohorntilde Ohungarumlaut Oinvertedbreve Omacron Oogonek Oslash Oslashacute Otilde Otildemacron OE P Thorn Q R Racute Rcaron Rcommaaccent Rdblgrave Rinvertedbreve S Sacute Scaron Scedilla Scircumflex Scommaaccent Germandbls Schwa T Tbar Tcaron Tcedilla Tcommaaccent U Uacute Ubreve Ucircumflex Udblgrave Udieresis Udotbelow Ugrave Uhookabove Uhorn Uhornacute Uhorndotbelow Uhorngrave Uhornhookabove Uhorntilde Uhungarumlaut Uinvertedbreve Umacron Uogonek Uring Utilde V W Wacute Wcircumflex Wdieresis Wgrave X Y Yacute Ycircumflex Ydieresis Ydotbelow Ygrave Yhookabove Ymacron Ytilde Z Zacute Zcaron Zdotaccent Delta Omega";
name = Uppercase;
}
);

glyphs = (
{
color = 6;
glyphname = A;
layers = (
{
anchors = (
{
name = bottom;
position = "{777, 0}";
},
{
name = ogonek;
position = "{1523, 0}";
},
{
name = top;
position = "{777, 1592}";
}
);
guideLines = (
{
angle = 90;
position = "{777, 874}";
}
);
layerId = "BC722C43-F174-4026-9892-4620CE50CA16";
paths = (
{
closed = 1;
nodes = (
"673 0 LINE",
"673 345 LINE",
"508 345 LINE",
"820 1395 LINE",
"742 1395 LINE",
"1018 345 LINE",
"853 345 LINE",
"853 0 LINE",
"1750 0 LINE",
"1750 345 LINE",
"1605 345 LINE",
"1231 1592 LINE",
"243 1592 LINE",
"243 1247 LINE",
"458 1247 LINE",
"159 345 LINE",
"14 345 LINE",
"14 0 LINE"
);
},
{
closed = 1;
nodes = (
"1010 520 LINE",
"952 770 LINE",
"589 770 LINE",
"527 520 LINE"
);
}
);
width = 1771;
}
);
leftKerningGroup = A;
rightKerningGroup = A;
unicode = 0041;
userData = {
com.typemytype.robofont.layerData = {
};
};
},
{
color = 6;
glyphname = AE;
layers = (
{
anchors = (
{
name = bottom;
position = "{1275, 0}";
},
{
name = top;
position = "{1275, 1592}";
}
);
layerId = "BC722C43-F174-4026-9892-4620CE50CA16";
paths = (
{
closed = 1;
nodes = (
"681 0 LINE",
"681 345 LINE",
"516 345 LINE",
"1128 1473 LINE",
"1021 1473 LINE",
"1021 345 LINE",
"861 345 LINE",
"861 0 LINE",
"2277 0 LINE",
"2277 677 LINE",
"1947 677 LINE",
"1912 340 LINE",
"1529 340 LINE",
"1529 1252 LINE",
"1912 1252 LINE",
"1947 959 LINE",
"2277 959 LINE",
"2277 1592 LINE",
"444 1592 LINE",
"444 1247 LINE",
"659 1247 LINE",
"145 345 LINE",
"0 345 LINE",
"0 0 LINE"
);
},
{
closed = 1;
nodes = (
"1118 520 LINE",
"1060 770 LINE",
"597 770 LINE",
"535 520 LINE"
);
},
{
closed = 1;
nodes = (
"1799 642 LINE",
"1799 982 LINE",
"1513 982 LINE",
"1513 642 LINE"
);
}
);
width = 2399;
}
);
leftKerningGroup = AE;
rightKerningGroup = E;
rightMetricsKey = E;
unicode = 00C6;
},
{
color = 6;
glyphname = B;
layers = (
{
layerId = "BC722C43-F174-4026-9892-4620CE50CA16";
paths = (
{
closed = 1;
nodes = (
"983 0 LINE SMOOTH",
"1380 0 OFFCURVE",
"1601 162 OFFCURVE",
"1601 454 CURVE SMOOTH",
"1601 688 OFFCURVE",
"1426 839 OFFCURVE",
"1164 854 CURVE",
"1164 770 LINE",
"1426 787 OFFCURVE",
"1574 943 OFFCURVE",
"1574 1154 CURVE SMOOTH",
"1574 1445 OFFCURVE",
"1353 1592 OFFCURVE",
"927 1592 CURVE SMOOTH",
"64 1592 LINE",
"64 1247 LINE",
"224 1247 LINE",
"224 345 LINE",
"64 345 LINE",
"64 0 LINE"
);
},
{
closed = 1;
nodes = (
"732 1257 LINE",
"866 1257 LINE SMOOTH",
"986 1257 OFFCURVE",
"1052 1208 OFFCURVE",
"1052 1104 CURVE SMOOTH",
"1052 1000 OFFCURVE",
"986 951 OFFCURVE",
"866 951 CURVE SMOOTH",
"706 951 LINE",
"706 673 LINE",
"887 673 LINE SMOOTH",
"1011 673 OFFCURVE",
"1079 619 OFFCURVE",
"1079 504 CURVE SMOOTH",
"1079 389 OFFCURVE",
"1011 335 OFFCURVE",
"887 335 CURVE SMOOTH",
"732 335 LINE"
);
}
);
width = 1671;
}
);
leftKerningGroup = H;
unicode = 0042;
userData = {
com.typemytype.robofont.layerData = {
};
};
},
{
color = 6;
glyphname = C;
layers = (
{
anchors = (
{
name = bottom;
position = "{767, 0}";
},
{
name = cedilla;
position = "{903, 0}";
},
{
name = top;
position = "{863, 1592}";
}
);
layerId = "BC722C43-F174-4026-9892-4620CE50CA16";
paths = (
{
closed = 1;
nodes = (
"1154 -29 OFFCURVE",
"1381 22 OFFCURVE",
"1536 135 CURVE",
"1536 557 LINE",
"1509 569 LINE",
"1378 458 OFFCURVE",
"1222 406 OFFCURVE",
"1064 406 CURVE SMOOTH",
"794 406 OFFCURVE",
"639 561 OFFCURVE",
"639 847 CURVE SMOOTH",
"639 1137 OFFCURVE",
"783 1268 OFFCURVE",
"943 1268 CURVE SMOOTH",
"1088 1268 OFFCURVE",
"1184 1186 OFFCURVE",
"1195 930 CURVE",
"1560 930 LINE",
"1560 1592 LINE",
"1285 1592 LINE",
"1234 1433 LINE",
"1138 1555 OFFCURVE",
"991 1621 OFFCURVE",
"788 1621 CURVE SMOOTH",
"401 1621 OFFCURVE",
"73 1340 OFFCURVE",
"73 831 CURVE SMOOTH",
"73 298 OFFCURVE",
"415 -29 OFFCURVE",
"957 -29 CURVE SMOOTH"
);
}
);
width = 1652;
}
);
leftKerningGroup = O;
leftMetricsKey = O;
rightKerningGroup = C;
unicode = 0043;
userData = {
com.typemytype.robofont.layerData = {
};
};
},
{
color = 6;
glyphname = D;
layers = (
{
anchors = (
{
name = center;
position = "{474, 796}";
},
{
name = top;
position = "{813, 1592}";
}
);
layerId = "BC722C43-F174-4026-9892-4620CE50CA16";
paths = (
{
closed = 1;
nodes = (
"779 0 LINE SMOOTH",
"1373 0 OFFCURVE",
"1685 274 OFFCURVE",
"1685 794 CURVE SMOOTH",
"1685 1315 OFFCURVE",
"1371 1592 OFFCURVE",
"780 1592 CURVE SMOOTH",
"54 1592 LINE",
"54 1247 LINE",
"214 1247 LINE",
"214 345 LINE",
"54 345 LINE",
"54 0 LINE"
);
},
{
closed = 1;
nodes = (
"734 1257 LINE",
"789 1257 LINE SMOOTH",
"1024 1257 OFFCURVE",
"1117 1128 OFFCURVE",
"1117 797 CURVE SMOOTH",
"1117 465 OFFCURVE",
"1024 335 OFFCURVE",
"789 335 CURVE SMOOTH",
"734 335 LINE"
);
}
);
width = 1758;
}
);
leftKerningGroup = H;
leftMetricsKey = I;
rightKerningGroup = O;
rightMetricsKey = O;
unicode = 0044;
userData = {
com.typemytype.robofont.layerData = {
};
};
},
{
color = 10;
glyphname = Eth;
layers = (
{
background = {
paths = (
{
closed = 1;
nodes = (
"893 0 LINE SMOOTH",
"1028 0 OFFCURVE",
"1150 22 OFFCURVE",
"1259 67 CURVE SMOOTH",
"1368 112 OFFCURVE",
"1457 172 OFFCURVE",
"1526 248 CURVE SMOOTH",
"1595 324 OFFCURVE",
"1648 410 OFFCURVE",
"1685 507 CURVE SMOOTH",
"1722 604 OFFCURVE",
"1740 707 OFFCURVE",
"1740 816 CURVE SMOOTH",
"1740 1080 OFFCURVE",
"1672 1280 OFFCURVE",
"1535 1417 CURVE SMOOTH",
"1398 1554 OFFCURVE",
"1192 1622 OFFCURVE",
"917 1622 CURVE SMOOTH",
"87 1622 LINE",
"87 1270 LINE",
"256 1270 LINE",
"254 936 LINE",
"254 669 LINE",
"254 351 LINE",
"91 351 LINE",
"91 0 LINE"
);
},
{
closed = 1;
nodes = (
"788 653 LINE",
"788 952 LINE",
"124 952 LINE",
"124 653 LINE"
);
},
{
closed = 1;
nodes = (
"788 952 LINE",
"889 952 LINE",
"889 653 LINE",
"788 653 LINE"
);
},
{
closed = 1;
nodes = (
"838 350 LINE",
"807 350 LINE",
"803 753 LINE",
"803 1052 LINE",
"803 1170 LINE",
"803 1269 LINE",
"850 1269 LINE SMOOTH",
"899 1269 OFFCURVE",
"942 1259 OFFCURVE",
"979 1240 CURVE SMOOTH",
"1016 1221 OFFCURVE",
"1045 1197 OFFCURVE",
"1066 1168 CURVE SMOOTH",
"1087 1139 OFFCURVE",
"1103 1103 OFFCURVE",
"1115 1061 CURVE SMOOTH",
"1127 1019 OFFCURVE",
"1135 979 OFFCURVE",
"1139 941 CURVE SMOOTH",
"1143 903 OFFCURVE",
"1145 861 OFFCURVE",
"1145 815 CURVE SMOOTH",
"1145 770 OFFCURVE",
"1142 727 OFFCURVE",
"1137 687 CURVE SMOOTH",
"1132 647 OFFCURVE",
"1122 605 OFFCURVE",
"1108 562 CURVE SMOOTH",
"1094 519 OFFCURVE",
"1076 482 OFFCURVE",
"1054 452 CURVE SMOOTH",
"1032 422 OFFCURVE",
"1002 397 OFFCURVE",
"965 377 CURVE SMOOTH",
"928 357 OFFCURVE",
"885 347 OFFCURVE",
"836 347 CURVE"
);
}
);
};
components = (
{
name = D;
},
{
name = strokeshortcomb.case;
transform = "{1, 0, 0, 1, -32, -6}";
}
);
layerId = "BC722C43-F174-4026-9892-4620CE50CA16";
width = 1758;
}
);
leftKerningGroup = H;
rightKerningGroup = O;
unicode = 00D0;
},
{
color = 6;
glyphname = E;
layers = (
{
anchors = (
{
name = bottom;
position = "{772, 0}";
},
{
name = ogonek;
position = "{1380, 1}";
},
{
name = top;
position = "{772, 1592}";
}
);
layerId = "BC722C43-F174-4026-9892-4620CE50CA16";
paths = (
{
closed = 1;
nodes = (
"1480 0 LINE",
"1480 677 LINE",
"1150 677 LINE",
"1115 340 LINE",
"732 340 LINE",
"732 1252 LINE",
"1115 1252 LINE",
"1150 959 LINE",
"1480 959 LINE",
"1480 1592 LINE",
"64 1592 LINE",
"64 1247 LINE",
"224 1247 LINE",
"224 345 LINE",
"64 345 LINE",
"64 0 LINE"
);
},
{
closed = 1;
nodes = (
"1002 642 LINE",
"1002 982 LINE",
"696 982 LINE",
"696 642 LINE"
);
}
);
width = 1602;
}
);
leftKerningGroup = H;
unicode = 0045;
userData = {
com.typemytype.robofont.layerData = {
};
};
},
{
color = 6;
glyphname = F;
layers = (
{
layerId = "BC722C43-F174-4026-9892-4620CE50CA16";
paths = (
{
closed = 1;
nodes = (
"1022 0 LINE",
"1022 345 LINE",
"732 345 LINE",
"732 1252 LINE",
"1095 1252 LINE",
"1130 930 LINE",
"1460 930 LINE",
"1460 1592 LINE",
"64 1592 LINE",
"64 1247 LINE",
"224 1247 LINE",
"224 345 LINE",
"64 345 LINE",
"64 0 LINE"
);
},
{
closed = 1;
nodes = (
"992 642 LINE",
"992 982 LINE",
"706 982 LINE",
"706 642 LINE"
);
}
);
width = 1495;
}
);
leftKerningGroup = H;
rightKerningGroup = F;
unicode = 0046;
userData = {
com.typemytype.robofont.layerData = {
};
};
},
{
color = 6;
glyphname = G;
layers = (
{
anchors = (
{
name = bottom;
position = "{900, 0}";
},
{
name = top;
position = "{900, 1592}";
}
);
layerId = "BC722C43-F174-4026-9892-4620CE50CA16";
paths = (
{
closed = 1;
nodes = (
"1242 -29 OFFCURVE",
"1491 29 OFFCURVE",
"1644 112 CURVE",
"1644 856 LINE",
"1004 856 LINE",
"1004 556 LINE",
"1194 556 LINE",
"1194 394 LINE",
"1152 380 OFFCURVE",
"1100 373 OFFCURVE",
"1049 373 CURVE SMOOTH",
"786 373 OFFCURVE",
"639 534 OFFCURVE",
"639 832 CURVE SMOOTH",
"639 1132 OFFCURVE",
"791 1268 OFFCURVE",
"978 1268 CURVE SMOOTH",
"1134 1268 OFFCURVE",
"1214 1192 OFFCURVE",
"1240 1013 CURVE",
"1610 1013 LINE",
"1610 1592 LINE",
"1335 1592 LINE",
"1284 1435 LINE",
"1186 1558 OFFCURVE",
"1036 1621 OFFCURVE",
"813 1621 CURVE SMOOTH",
"368 1621 OFFCURVE",
"73 1304 OFFCURVE",
"73 831 CURVE SMOOTH",
"73 303 OFFCURVE",
"435 -29 OFFCURVE",
"1017 -29 CURVE SMOOTH"
);
}
);
width = 1754;
}
);
leftKerningGroup = O;
leftMetricsKey = O;
rightKerningGroup = G;
unicode = 0047;
userData = {
com.typemytype.robofont.layerData = {
};
};
},
{
color = 6;
glyphname = H;
layers = (
{
anchors = (
{
name = bottom;
position = "{942, 0}";
},
{
name = center;
position = "{942, 1110}";
},
{
name = top;
position = "{942, 1592}";
}
);
layerId = "BC722C43-F174-4026-9892-4620CE50CA16";
paths = (
{
closed = 1;
nodes = (
"1820 0 LINE",
"1820 345 LINE",
"1660 345 LINE",
"1660 1247 LINE",
"1820 1247 LINE",
"1820 1592 LINE",
"1017 1592 LINE",
"1017 1247 LINE",
"1152 1247 LINE",
"1152 345 LINE",
"1017 345 LINE",
"1017 0 LINE"
);
},
{
closed = 1;
nodes = (
"867 0 LINE",
"867 345 LINE",
"732 345 LINE",
"732 1247 LINE",
"867 1247 LINE",
"867 1592 LINE",
"64 1592 LINE",
"64 1247 LINE",
"224 1247 LINE",
"224 345 LINE",
"64 345 LINE",
"64 0 LINE"
);
},
{
closed = 1;
nodes = (
"1188 639 LINE",
"1188 967 LINE",
"696 967 LINE",
"696 639 LINE"
);
}
);
width = 1884;
}
);
leftKerningGroup = H;
rightKerningGroup = H;
rightMetricsKey = "=|";
unicode = 0048;
userData = {
com.typemytype.robofont.guides = (
);
com.typemytype.robofont.layerData = {
};
};
},
{
color = 6;
glyphname = Hbar;
layers = (
{
layerId = "BC722C43-F174-4026-9892-4620CE50CA16";
paths = (
{
closed = 1;
nodes = (
"867 0 LINE",
"867 345 LINE",
"732 345 LINE",
"732 639 LINE",
"1152 639 LINE",
"1152 345 LINE",
"1017 345 LINE",
"1017 0 LINE",
"1820 0 LINE",
"1820 345 LINE",
"1660 345 LINE",
"1660 1247 LINE",
"1820 1247 LINE",
"1820 1592 LINE",
"1017 1592 LINE",
"1017 1247 LINE",
"1152 1247 LINE",
"1152 917 LINE",
"732 917 LINE",
"732 1247 LINE",
"867 1247 LINE",
"867 1592 LINE",
"64 1592 LINE",
"64 1247 LINE",
"224 1247 LINE",
"224 345 LINE",
"64 345 LINE",
"64 0 LINE"
);
},
{
closed = 1;
nodes = (
"1790 991 LINE",
"1790 1174 LINE",
"94 1174 LINE",
"94 991 LINE"
);
}
);
width = 1884;
}
);
leftKerningGroup = H;
leftMetricsKey = "=H";
rightKerningGroup = H;
rightMetricsKey = "=H";
unicode = 0126;
},
{
color = 6;
glyphname = I;
layers = (
{
anchors = (
{
name = bottom;
position = "{484, 0}";
},
{
name = ogonek;
position = "{744, 0}";
},
{
name = top;
position = "{484, 1592}";
}
);
layerId = "BC722C43-F174-4026-9892-4620CE50CA16";
paths = (
{
closed = 1;
nodes = (
"914 0 LINE",
"914 345 LINE",
"744 345 LINE",
"744 1247 LINE",
"914 1247 LINE",
"914 1592 LINE",
"54 1592 LINE",
"54 1247 LINE",
"224 1247 LINE",
"224 345 LINE",
"54 345 LINE",
"54 0 LINE"
);
}
);
width = 968;
}
);
leftKerningGroup = H;
rightKerningGroup = H;
rightMetricsKey = "=|";
unicode = 0049;
userData = {
com.typemytype.robofont.guides = (
);
com.typemytype.robofont.layerData = {
};
};
},
{
color = 6;
glyphname = IJ;
layers = (
{
anchors = (
{
name = top;
position = "{500, 1592}";
}
);
layerId = "BC722C43-F174-4026-9892-4620CE50CA16";
paths = (
{
closed = 1;
nodes = (
"1316 -29 OFFCURVE",
"1639 268 OFFCURVE",
"1639 791 CURVE SMOOTH",
"1639 1247 LINE",
"1784 1247 LINE",
"1784 1592 LINE",
"1004 1592 LINE",
"1004 1247 LINE",
"1119 1247 LINE",
"1119 817 LINE SMOOTH",
"1119 531 OFFCURVE",
"990 406 OFFCURVE",
"730 406 CURVE SMOOTH",
"558 406 OFFCURVE",
"408 458 OFFCURVE",
"282 569 CURVE",
"255 557 LINE",
"255 135 LINE",
"402 22 OFFCURVE",
"616 -29 OFFCURVE",
"823 -29 CURVE SMOOTH"
);
},
{
closed = 1;
nodes = (
"860 670 LINE",
"860 1015 LINE",
"745 1015 LINE",
"745 1247 LINE",
"860 1247 LINE",
"860 1592 LINE",
"110 1592 LINE",
"110 1247 LINE",
"255 1247 LINE",
"255 1015 LINE",
"110 1015 LINE",
"110 670 LINE"
);
}
);
width = 1811;
}
);
leftKerningGroup = U;
rightKerningGroup = U;
unicode = 0132;
userData = {
com.typemytype.robofont.layerData = {
};
};
},
{
color = 6;
glyphname = J;
layers = (
{
anchors = (
{
name = top;
position = "{850, 1592}";
}
);
layerId = "BC722C43-F174-4026-9892-4620CE50CA16";
paths = (
{
closed = 1;
nodes = (
"960 -30 OFFCURVE",
"1110 164 OFFCURVE",
"1110 475 CURVE SMOOTH",
"1110 1247 LINE",
"1270 1247 LINE",
"1270 1592 LINE",
"280 1592 LINE",
"280 1247 LINE",
"590 1247 LINE",
"590 565 LINE SMOOTH",
"590 384 OFFCURVE",
"535 324 OFFCURVE",
"454 324 CURVE SMOOTH",
"378 324 OFFCURVE",
"310 384 OFFCURVE",
"310 585 CURVE SMOOTH",
"310 662 LINE",
"20 662 LINE",
"20 0 LINE",
"295 0 LINE",
"335 133 LINE",
"402 27 OFFCURVE",
"536 -30 OFFCURVE",
"684 -30 CURVE SMOOTH"
);
}
);
width = 1323;
}
);
leftKerningGroup = J;
rightKerningGroup = U;
unicode = 004A;
userData = {
com.typemytype.robofont.layerData = {
};
};
},
{
color = 6;
glyphname = K;
layers = (
{
anchors = (
{
name = bottom;
position = "{873, 0}";
},
{
name = top;
position = "{873, 1592}";
}
);
layerId = "BC722C43-F174-4026-9892-4620CE50CA16";
paths = (
{
closed = 1;
nodes = (
"1737 0 LINE",
"1737 345 LINE",
"1631 345 LINE SMOOTH",
"1562 345 OFFCURVE",
"1536 380 OFFCURVE",
"1534 451 CURVE SMOOTH",
"1532 534 LINE SMOOTH",
"1527 762 OFFCURVE",
"1411 882 OFFCURVE",
"1168 882 CURVE SMOOTH",
"1020 882 LINE",
"992 755 LINE",
"1526 1247 LINE",
"1661 1247 LINE",
"1661 1592 LINE",
"1003 1592 LINE",
"1003 1247 LINE",
"1124 1247 LINE",
"670 814 LINE",
"670 641 LINE",
"863 641 LINE SMOOTH",
"961 641 OFFCURVE",
"1009 591 OFFCURVE",
"1011 481 CURVE SMOOTH",
"1013 348 LINE SMOOTH",
"1016 120 OFFCURVE",
"1134 0 OFFCURVE",
"1389 0 CURVE SMOOTH"
);
},
{
closed = 1;
nodes = (
"867 0 LINE",
"867 345 LINE",
"732 345 LINE",
"732 1247 LINE",
"853 1247 LINE",
"853 1592 LINE",
"64 1592 LINE",
"64 1247 LINE",
"224 1247 LINE",
"224 345 LINE",
"64 345 LINE",
"64 0 LINE"
);
}
);
width = 1752;
}
);
leftKerningGroup = H;
rightKerningGroup = K;
unicode = 004B;
userData = {
com.typemytype.robofont.layerData = {
};
};
},
{
color = 6;
glyphname = L;
layers = (
{
anchors = (
{
name = bottom;
position = "{752, 0}";
},
{
name = center;
position = "{484, 790}";
},
{
name = top;
position = "{484, 1592}";
},
{
name = topright;
position = "{1064, 1592}";
}
);
layerId = "BC722C43-F174-4026-9892-4620CE50CA16";
paths = (
{
closed = 1;
nodes = (
"1440 0 LINE",
"1440 713 LINE",
"1110 713 LINE",
"1070 340 LINE",
"744 340 LINE",
"744 1247 LINE",
"964 1247 LINE",
"964 1592 LINE",
"64 1592 LINE",
"64 1247 LINE",
"224 1247 LINE",
"224 345 LINE",
"64 345 LINE",
"64 0 LINE"
);
}
);
width = 1485;
}
);
leftKerningGroup = H;
rightKerningGroup = L;
unicode = 004C;
userData = {
com.typemytype.robofont.layerData = {
};
};
},
{
color = 6;
glyphname = Ldot;
layers = (
{
layerId = "BC722C43-F174-4026-9892-4620CE50CA16";
paths = (
{
closed = 1;
nodes = (
"1440 0 LINE",
"1440 593 LINE",
"1110 593 LINE",
"1070 340 LINE",
"744 340 LINE",
"744 1247 LINE",
"964 1247 LINE",
"964 1592 LINE",
"64 1592 LINE",
"64 1247 LINE",
"224 1247 LINE",
"224 345 LINE",
"64 345 LINE",
"64 0 LINE"
);
},
{
closed = 1;
nodes = (
"1361 790 OFFCURVE",
"1450 859 OFFCURVE",
"1450 970 CURVE SMOOTH",
"1450 1078 OFFCURVE",
"1366 1147 OFFCURVE",
"1247 1147 CURVE SMOOTH",
"1129 1147 OFFCURVE",
"1044 1078 OFFCURVE",
"1044 970 CURVE SMOOTH",
"1044 859 OFFCURVE",
"1134 790 OFFCURVE",
"1247 790 CURVE SMOOTH"
);
}
);
width = 1485;
}
);
leftKerningGroup = H;
leftMetricsKey = L;
widthMetricsKey = L;
unicode = 013F;
},
{
color = 10;
glyphname = Lslash;
layers = (
{
background = {
components = (
{
name = slashshortcomb.case;
}
);
paths = (
{
closed = 1;
nodes = (
"1387 0 LINE",
"1387 709 LINE",
"1101 709 LINE",
"1014 359 LINE",
"823 359 LINE",
"823 1270 LINE",
"977 1270 LINE",
"977 1622 LINE",
"109 1622 LINE",
"109 1270 LINE",
"256 1270 LINE",
"256 359 LINE",
"113 359 LINE",
"114 0 LINE"
);
}
);
};
components = (
{
name = L;
},
{
alignment = 1;
name = slashshortcomb.case;
transform = "{1, 0, 0, 1, -78, -19}";
}
);
layerId = "BC722C43-F174-4026-9892-4620CE50CA16";
width = 1485;
}
);
leftKerningGroup = H;
rightKerningGroup = L;
unicode = 0141;
},
{
color = 6;
glyphname = M;
layers = (
{
anchors = (
{
name = bottom;
position = "{1183, 0}";
},
{
name = top;
position = "{1183, 1592}";
}
);
guideLines = (
{
position = "{883, 1014}";
}
);
layerId = "BC722C43-F174-4026-9892-4620CE50CA16";
paths = (
{
closed = 1;
nodes = (
"690 0 LINE",
"690 345 LINE",
"550 345 LINE",
"550 1180 LINE",
"512 1103 LINE",
"948 0 LINE",
"1232 0 LINE",
"1668 1103 LINE",
"1630 1180 LINE",
"1630 345 LINE",
"1490 345 LINE",
"1490 0 LINE",
"2293 0 LINE",
"2293 345 LINE",
"2133 345 LINE",
"2133 1247 LINE",
"2293 1247 LINE",
"2293 1592 LINE",
"1560 1592 LINE",
"1119 489 LINE",
"1302 489 LINE",
"875 1592 LINE",
"64 1592 LINE",
"64 1247 LINE",
"224 1247 LINE",
"224 345 LINE",
"64 345 LINE",
"64 0 LINE"
);
}
);
width = 2357;
}
);
leftKerningGroup = H;
rightKerningGroup = H;
unicode = 004D;
userData = {
com.typemytype.robofont.layerData = {
};
};
},
{
color = 6;
glyphname = N;
layers = (
{
anchors = (
{
name = bottom;
position = "{939, 0}";
},
{
name = top;
position = "{939, 1592}";
}
);
layerId = "BC722C43-F174-4026-9892-4620CE50CA16";
paths = (
{
closed = 1;
nodes = (
"1654 0 LINE",
"1654 1247 LINE",
"1814 1247 LINE",
"1814 1592 LINE",
"1168 1592 LINE",
"1168 1247 LINE",
"1328 1247 LINE",
"1328 412 LINE",
"1397 567 LINE",
"779 1592 LINE",
"64 1592 LINE",
"64 1247 LINE",
"224 1247 LINE",
"224 345 LINE",
"64 345 LINE",
"64 0 LINE",
"710 0 LINE",
"710 345 LINE",
"550 345 LINE",
"550 1180 LINE",
"481 1025 LINE",
"1097 -1 LINE"
);
}
);
width = 1878;
}
);
leftKerningGroup = H;
rightKerningGroup = N;
unicode = 004E;
},
{
color = 6;
glyphname = Eng;
layers = (
{
layerId = "BC722C43-F174-4026-9892-4620CE50CA16";
paths = (
{
closed = 1;
nodes = (
"1178 -408 LINE SMOOTH",
"1522 -408 OFFCURVE",
"1654 -220 OFFCURVE",
"1654 70 CURVE SMOOTH",
"1654 1247 LINE",
"1814 1247 LINE",
"1814 1592 LINE",
"1188 1592 LINE",
"1188 1247 LINE",
"1328 1247 LINE",
"1328 938 LINE",
"731 1592 LINE",
"64 1592 LINE",
"64 1247 LINE",
"224 1247 LINE",
"224 345 LINE",
"64 345 LINE",
"64 0 LINE",
"710 0 LINE",
"710 345 LINE",
"550 345 LINE",
"550 910 LINE",
"1327 59 LINE",
"1327 8 LINE SMOOTH",
"1327 -74 OFFCURVE",
"1268 -108 OFFCURVE",
"1168 -108 CURVE SMOOTH",
"1138 -108 LINE",
"1138 -408 LINE"
);
}
);
width = 1878;
}
);
leftKerningGroup = H;
leftMetricsKey = N;
rightKerningGroup = N;
rightMetricsKey = N;
unicode = 014A;
},
{
color = 6;
glyphname = O;
layers = (
{
anchors = (
{
name = bottom;
position = "{873, 0}";
},
{
name = center;
position = "{873, 796}";
},
{
name = ogonek;
position = "{994, 0}";
},
{
name = top;
position = "{873, 1592}";
},
{
name = topleft;
position = "{20, 1592}";
},
{
name = topright;
position = "{1726, 1592}";
}
);
layerId = "BC722C43-F174-4026-9892-4620CE50CA16";
paths = (
{
closed = 1;
nodes = (
"1368 -29 OFFCURVE",
"1673 285 OFFCURVE",
"1673 794 CURVE SMOOTH",
"1673 1306 OFFCURVE",
"1368 1621 OFFCURVE",
"873 1621 CURVE SMOOTH",
"378 1621 OFFCURVE",
"73 1306 OFFCURVE",
"73 794 CURVE SMOOTH",
"73 285 OFFCURVE",
"378 -29 OFFCURVE",
"873 -29 CURVE SMOOTH"
);
},
{
closed = 1;
nodes = (
"724 316 OFFCURVE",
"641 481 OFFCURVE",
"641 797 CURVE SMOOTH",
"641 1113 OFFCURVE",
"724 1278 OFFCURVE",
"873 1278 CURVE SMOOTH",
"1022 1278 OFFCURVE",
"1105 1113 OFFCURVE",
"1105 797 CURVE SMOOTH",
"1105 481 OFFCURVE",
"1022 316 OFFCURVE",
"873 316 CURVE SMOOTH"
);
}
);
width = 1746;
}
);
leftKerningGroup = O;
rightKerningGroup = O;
rightMetricsKey = "=|";
unicode = 004F;
userData = {
com.typemytype.robofont.layerData = {
};
};
},
{
color = 6;
glyphname = Ohorn;
layers = (
{
anchors = (
{
name = bottom;
position = "{872, 0}";
},
{
name = ogonek;
position = "{984, 0}";
},
{
name = top;
position = "{872, 1592}";
}
);
layerId = "BC722C43-F174-4026-9892-4620CE50CA16";
paths = (
{
closed = 1;
nodes = (
"1367 -29 OFFCURVE",
"1672 285 OFFCURVE",
"1672 794 CURVE SMOOTH",
"1672 1102 OFFCURVE",
"1560 1346 OFFCURVE",
"1355 1486 CURVE",
"1288 1354 LINE",
"1530 1354 OFFCURVE",
"1672 1485 OFFCURVE",
"1672 1707 CURVE SMOOTH",
"1672 1816 LINE",
"1332 1816 LINE",
"1332 1717 LINE SMOOTH",
"1332 1622 OFFCURVE",
"1299 1578 OFFCURVE",
"1218 1578 CURVE SMOOTH",
"1136 1578 OFFCURVE",
"1045 1621 OFFCURVE",
"872 1621 CURVE SMOOTH",
"377 1621 OFFCURVE",
"74 1306 OFFCURVE",
"73 798 CURVE SMOOTH",
"72 285 OFFCURVE",
"377 -29 OFFCURVE",
"872 -29 CURVE SMOOTH"
);
},
{
closed = 1;
nodes = (
"723 316 OFFCURVE",
"640 481 OFFCURVE",
"640 797 CURVE SMOOTH",
"640 1113 OFFCURVE",
"723 1278 OFFCURVE",
"872 1278 CURVE SMOOTH",
"1021 1278 OFFCURVE",
"1104 1113 OFFCURVE",
"1104 797 CURVE SMOOTH",
"1104 481 OFFCURVE",
"1021 316 OFFCURVE",
"872 316 CURVE SMOOTH"
);
}
);
width = 1746;
}
);
leftKerningGroup = O;
leftMetricsKey = O;
widthMetricsKey = O;
rightKerningGroup = Ohorn;
unicode = 01A0;
},
{
color = 6;
glyphname = Oogonek;
layers = (
{
anchors = (
{
name = top;
position = "{873, 1592}";
}
);
layerId = "BC722C43-F174-4026-9892-4620CE50CA16";
paths = (
{
closed = 1;
nodes = (
"1025 -468 OFFCURVE",
"1068 -464 OFFCURVE",
"1122 -451 CURVE",
"1122 -256 LINE",
"1091 -262 OFFCURVE",
"1060 -265 OFFCURVE",
"1029 -265 CURVE SMOOTH",
"935 -265 OFFCURVE",
"895 -220 OFFCURVE",
"895 -161 CURVE SMOOTH",
"895 -92 OFFCURVE",
"951 -43 OFFCURVE",
"1118 0 CURVE SMOOTH",
"1467 89 OFFCURVE",
"1673 375 OFFCURVE",
"1673 794 CURVE SMOOTH",
"1673 1306 OFFCURVE",
"1368 1621 OFFCURVE",
"873 1621 CURVE SMOOTH",
"378 1621 OFFCURVE",
"73 1306 OFFCURVE",
"73 794 CURVE SMOOTH",
"73 319 OFFCURVE",
"339 14 OFFCURVE",
"783 -25 CURVE",
"694 -77 OFFCURVE",
"663 -149 OFFCURVE",
"663 -226 CURVE SMOOTH",
"663 -387 OFFCURVE",
"805 -468 OFFCURVE",
"981 -468 CURVE SMOOTH"
);
},
{
closed = 1;
nodes = (
"724 316 OFFCURVE",
"641 481 OFFCURVE",
"641 797 CURVE SMOOTH",
"641 1113 OFFCURVE",
"724 1278 OFFCURVE",
"873 1278 CURVE SMOOTH",
"1022 1278 OFFCURVE",
"1105 1113 OFFCURVE",
"1105 797 CURVE SMOOTH",
"1105 481 OFFCURVE",
"1022 316 OFFCURVE",
"873 316 CURVE SMOOTH"
);
}
);
width = 1746;
}
);
leftKerningGroup = O;
leftMetricsKey = O;
rightKerningGroup = O;
rightMetricsKey = O;
unicode = 01EA;
},
{
color = 10;
glyphname = Oslash;
layers = (
{
anchors = (
{
name = bottom;
position = "{873, 0}";
},
{
name = top;
position = "{873, 1592}";
}
);
background = {
anchors = (
{
name = bottom;
position = "{873, 0}";
},
{
name = center;
position = "{873, 796}";
},
{
name = ogonek;
position = "{994, 0}";
},
{
name = top;
position = "{873, 1592}";
},
{
name = topleft;
position = "{20, 1592}";
},
{
name = topright;
position = "{1726, 1592}";
}
);
paths = (
{
closed = 1;
nodes = (
"1368 -29 OFFCURVE",
"1673 285 OFFCURVE",
"1673 794 CURVE SMOOTH",
"1673 1306 OFFCURVE",
"1368 1621 OFFCURVE",
"873 1621 CURVE SMOOTH",
"378 1621 OFFCURVE",
"73 1306 OFFCURVE",
"73 794 CURVE SMOOTH",
"73 285 OFFCURVE",
"378 -29 OFFCURVE",
"873 -29 CURVE SMOOTH"
);
},
{
closed = 1;
nodes = (
"724 316 OFFCURVE",
"641 481 OFFCURVE",
"641 797 CURVE SMOOTH",
"641 1113 OFFCURVE",
"724 1278 OFFCURVE",
"873 1278 CURVE SMOOTH",
"1022 1278 OFFCURVE",
"1105 1113 OFFCURVE",
"1105 797 CURVE SMOOTH",
"1105 481 OFFCURVE",
"1022 316 OFFCURVE",
"873 316 CURVE SMOOTH"
);
},
{
closed = 1;
nodes = (
"1206 1750 LINE",
"1025 1790 LINE",
"540 -158 LINE",
"721 -198 LINE"
);
}
);
};
components = (
{
name = O;
},
{
alignment = 1;
name = slashlongcomb.case;
transform = "{1, 0, 0, 1, -12, 0}";
}
);
layerId = "BC722C43-F174-4026-9892-4620CE50CA16";
width = 1746;
}
);
leftKerningGroup = O;
rightKerningGroup = O;
unicode = 00D8;
},
{
color = 6;
glyphname = OE;
layers = (
{
anchors = (
{
name = bottom;
position = "{1278, 0}";
},
{
name = top;
position = "{1278, 1592}";
}
);
layerId = "BC722C43-F174-4026-9892-4620CE50CA16";
paths = (
{
closed = 1;
nodes = (
"2280 0 LINE",
"2280 677 LINE",
"1950 677 LINE",
"1915 340 LINE",
"1532 340 LINE",
"1532 1252 LINE",
"1915 1252 LINE",
"1950 959 LINE",
"2280 959 LINE",
"2280 1592 LINE",
"1029 1592 LINE SMOOTH",
"385 1592 OFFCURVE",
"73 1318 OFFCURVE",
"73 798 CURVE SMOOTH",
"73 277 OFFCURVE",
"387 0 OFFCURVE",
"1028 0 CURVE SMOOTH"
);
},
{
closed = 1;
nodes = (
"732 335 OFFCURVE",
"639 464 OFFCURVE",
"639 795 CURVE SMOOTH",
"639 1127 OFFCURVE",
"732 1257 OFFCURVE",
"969 1257 CURVE SMOOTH",
"1024 1257 LINE",
"1024 335 LINE",
"969 335 LINE SMOOTH"
);
},
{
closed = 1;
nodes = (
"1802 642 LINE",
"1802 982 LINE",
"1516 982 LINE",
"1516 642 LINE"
);
}
);
width = 2402;
}
);
leftKerningGroup = O;
leftMetricsKey = O;
rightKerningGroup = E;
rightMetricsKey = E;
unicode = 0152;
},
{
color = 6;
glyphname = P;
layers = (
{
layerId = "BC722C43-F174-4026-9892-4620CE50CA16";
paths = (
{
closed = 1;
nodes = (
"1022 0 LINE",
"1022 345 LINE",
"732 345 LINE",
"732 1257 LINE",
"865 1257 LINE SMOOTH",
"991 1257 OFFCURVE",
"1059 1203 OFFCURVE",
"1059 1077 CURVE SMOOTH",
"1059 951 OFFCURVE",
"991 897 OFFCURVE",
"855 897 CURVE SMOOTH",
"716 897 LINE",
"716 592 LINE",
"933 592 LINE SMOOTH",
"1357 592 OFFCURVE",
"1581 761 OFFCURVE",
"1581 1087 CURVE SMOOTH",
"1581 1423 OFFCURVE",
"1357 1592 OFFCURVE",
"923 1592 CURVE SMOOTH",
"64 1592 LINE",
"64 1247 LINE",
"224 1247 LINE",
"224 345 LINE",
"64 345 LINE",
"64 0 LINE"
);
}
);
width = 1625;
}
);
leftKerningGroup = H;
rightKerningGroup = P;
unicode = 0050;
},
{
color = 6;
glyphname = Thorn;
layers = (
{
layerId = "BC722C43-F174-4026-9892-4620CE50CA16";
paths = (
{
closed = 1;
nodes = (
"1022 0 LINE",
"1022 345 LINE",
"732 345 LINE",
"732 1247 LINE",
"1022 1247 LINE",
"1022 1592 LINE",
"64 1592 LINE",
"64 1247 LINE",
"224 1247 LINE",
"224 345 LINE",
"64 345 LINE",
"64 0 LINE"
);
},
{
closed = 1;
nodes = (
"1143 474 LINE SMOOTH",
"1507 474 OFFCURVE",
"1691 594 OFFCURVE",
"1691 817 CURVE SMOOTH",
"1691 1038 OFFCURVE",
"1507 1157 OFFCURVE",
"1133 1157 CURVE SMOOTH",
"642 1157 LINE",
"642 902 LINE",
"1027 902 LINE SMOOTH",
"1113 902 OFFCURVE",
"1169 879 OFFCURVE",
"1169 815 CURVE SMOOTH",
"1169 752 OFFCURVE",
"1113 729 OFFCURVE",
"1017 729 CURVE SMOOTH",
"642 729 LINE",
"642 474 LINE"
);
}
);
width = 1731;
}
);
leftKerningGroup = H;
rightKerningGroup = Thorn;
unicode = 00DE;
},
{
color = 6;
glyphname = Q;
layers = (
{
layerId = "BC722C43-F174-4026-9892-4620CE50CA16";
paths = (
{
closed = 1;
nodes = (
"1328 -29 OFFCURVE",
"1673 305 OFFCURVE",
"1673 794 CURVE SMOOTH",
"1673 1306 OFFCURVE",
"1368 1621 OFFCURVE",
"873 1621 CURVE SMOOTH",
"378 1621 OFFCURVE",
"73 1306 OFFCURVE",
"73 794 CURVE SMOOTH",
"73 285 OFFCURVE",
"378 -29 OFFCURVE",
"863 -29 CURVE SMOOTH"
);
},
{
closed = 1;
nodes = (
"1736 0 LINE",
"1736 345 LINE",
"1430 345 LINE SMOOTH",
"1329 345 OFFCURVE",
"1279 376 OFFCURVE",
"1263 451 CURVE SMOOTH",
"1238 571 LINE SMOOTH",
"1200 753 OFFCURVE",
"1099 852 OFFCURVE",
"930 852 CURVE SMOOTH",
"739 852 OFFCURVE",
"603 720 OFFCURVE",
"603 541 CURVE",
"657 573 LINE",
"644 644 OFFCURVE",
"638 717 OFFCURVE",
"638 797 CURVE SMOOTH",
"638 1113 OFFCURVE",
"722 1278 OFFCURVE",
"873 1278 CURVE SMOOTH",
"1024 1278 OFFCURVE",
"1110 1113 OFFCURVE",
"1110 797 CURVE SMOOTH",
"1110 466 OFFCURVE",
"1044 311 OFFCURVE",
"876 311 CURVE SMOOTH",
"774 311 OFFCURVE",
"700 372 OFFCURVE",
"700 466 CURVE SMOOTH",
"700 561 OFFCURVE",
"757 622 OFFCURVE",
"839 622 CURVE SMOOTH",
"909 622 OFFCURVE",
"948 580 OFFCURVE",
"974 473 CURVE SMOOTH",
"1005 348 LINE SMOOTH",
"1064 109 OFFCURVE",
"1230 0 OFFCURVE",
"1508 0 CURVE SMOOTH"
);
}
);
width = 1786;
}
);
leftKerningGroup = O;
leftMetricsKey = O;
rightKerningGroup = O;
unicode = 0051;
},
{
color = 6;
glyphname = R;
layers = (
{
anchors = (
{
name = bottom;
position = "{879, 0}";
},
{
name = top;
position = "{879, 1592}";
}
);
layerId = "BC722C43-F174-4026-9892-4620CE50CA16";
paths = (
{
closed = 1;
nodes = (
"867 0 LINE",
"867 345 LINE",
"732 345 LINE",
"732 1257 LINE",
"887 1257 LINE SMOOTH",
"1011 1257 OFFCURVE",
"1079 1203 OFFCURVE",
"1079 1088 CURVE SMOOTH",
"1079 973 OFFCURVE",
"1011 919 OFFCURVE",
"887 919 CURVE SMOOTH",
"670 919 LINE",
"670 641 LINE",
"863 641 LINE SMOOTH",
"961 641 OFFCURVE",
"1009 591 OFFCURVE",
"1011 481 CURVE SMOOTH",
"1013 348 LINE SMOOTH",
"1016 120 OFFCURVE",
"1134 0 OFFCURVE",
"1389 0 CURVE SMOOTH",
"1737 0 LINE",
"1737 345 LINE",
"1631 345 LINE SMOOTH",
"1562 345 OFFCURVE",
"1536 380 OFFCURVE",
"1534 451 CURVE SMOOTH",
"1532 534 LINE SMOOTH",
"1528 712 OFFCURVE",
"1413 818 OFFCURVE",
"1158 818 CURVE",
"1158 764 LINE",
"1420 764 OFFCURVE",
"1601 902 OFFCURVE",
"1601 1154 CURVE SMOOTH",
"1601 1440 OFFCURVE",
"1380 1592 OFFCURVE",
"983 1592 CURVE SMOOTH",
"64 1592 LINE",
"64 1247 LINE",
"224 1247 LINE",
"224 345 LINE",
"64 345 LINE",
"64 0 LINE"
);
}
);
width = 1752;
}
);
leftKerningGroup = H;
rightKerningGroup = R;
unicode = 0052;
userData = {
com.typemytype.robofont.layerData = {
};
};
},
{
color = 6;
glyphname = S;
layers = (
{
anchors = (
{
name = bottom;
position = "{870, 0}";
},
{
name = cedilla;
position = "{836, 0}";
},
{
name = top;
position = "{820, 1592}";
}
);
layerId = "BC722C43-F174-4026-9892-4620CE50CA16";
paths = (
{
closed = 1;
nodes = (
"1276 -29 OFFCURVE",
"1499 163 OFFCURVE",
"1499 481 CURVE SMOOTH",
"1499 1191 OFFCURVE",
"591 948 OFFCURVE",
"591 1203 CURVE SMOOTH",
"591 1281 OFFCURVE",
"660 1323 OFFCURVE",
"768 1323 CURVE SMOOTH",
"920 1323 OFFCURVE",
"1045 1235 OFFCURVE",
"1084 1076 CURVE",
"1465 1076 LINE",
"1465 1592 LINE",
"1190 1592 LINE",
"1139 1435 LINE",
"1043 1555 OFFCURVE",
"896 1623 OFFCURVE",
"669 1623 CURVE SMOOTH",
"289 1623 OFFCURVE",
"62 1421 OFFCURVE",
"62 1120 CURVE SMOOTH",
"62 391 OFFCURVE",
"970 683 OFFCURVE",
"970 393 CURVE SMOOTH",
"970 317 OFFCURVE",
"909 271 OFFCURVE",
"801 271 CURVE SMOOTH",
"603 271 OFFCURVE",
"465 381 OFFCURVE",
"440 536 CURVE",
"67 536 LINE",
"67 0 LINE",
"342 0 LINE",
"393 157 LINE",
"491 43 OFFCURVE",
"652 -29 OFFCURVE",
"905 -29 CURVE SMOOTH"
);
}
);
width = 1561;
}
);
leftKerningGroup = S;
rightKerningGroup = S;
rightMetricsKey = "=|";
unicode = 0053;
},
{
color = 6;
glyphname = Germandbls;
layers = (
{
layerId = "BC722C43-F174-4026-9892-4620CE50CA16";
paths = (
{
closed = 1;
nodes = (
"851 0 LINE",
"851 345 LINE",
"716 345 LINE",
"716 1031 LINE SMOOTH",
"716 1188 OFFCURVE",
"824 1274 OFFCURVE",
"972 1274 CURVE SMOOTH",
"1050 1274 OFFCURVE",
"1108 1264 OFFCURVE",
"1165 1239 CURVE",
"856 899 LINE",
"856 673 LINE",
"971 673 LINE SMOOTH",
"1126 673 OFFCURVE",
"1194 609 OFFCURVE",
"1194 509 CURVE SMOOTH",
"1194 413 OFFCURVE",
"1137 345 OFFCURVE",
"1038 345 CURVE SMOOTH",
"991 345 LINE",
"991 0 LINE",
"1071 0 LINE SMOOTH",
"1495 0 OFFCURVE",
"1716 162 OFFCURVE",
"1716 474 CURVE SMOOTH",
"1716 788 OFFCURVE",
"1468 944 OFFCURVE",
"1090 942 CURVE",
"1116 744 LINE",
"1511 1180 LINE",
"1511 1466 LINE",
"1363 1567 OFFCURVE",
"1135 1623 OFFCURVE",
"913 1623 CURVE SMOOTH",
"451 1623 OFFCURVE",
"208 1388 OFFCURVE",
"208 972 CURVE SMOOTH",
"208 345 LINE",
"48 345 LINE",
"48 0 LINE"
);
}
);
width = 1771;
}
);
leftKerningGroup = H;
rightKerningGroup = Germandbls;
unicode = 1E9E;
},
{
color = 6;
glyphname = Schwa;
layers = (
{
anchors = (
{
name = bottom;
position = "{844, 0}";
},
{
name = top;
position = "{844, 1592}";
}
);
layerId = "BC722C43-F174-4026-9892-4620CE50CA16";
paths = (
{
closed = 1;
nodes = (
"1299 -29 OFFCURVE",
"1623 295 OFFCURVE",
"1623 782 CURVE SMOOTH",
"1623 1311 OFFCURVE",
"1284 1621 OFFCURVE",
"769 1621 CURVE SMOOTH",
"519 1621 OFFCURVE",
"300 1559 OFFCURVE",
"140 1457 CURVE",
"140 1035 LINE",
"167 1023 LINE",
"319 1134 OFFCURVE",
"474 1186 OFFCURVE",
"652 1186 CURVE SMOOTH",
"901 1186 OFFCURVE",
"1057 1062 OFFCURVE",
"1057 869 CURVE",
"1057 611 LINE",
"1047 407 OFFCURVE",
"972 307 OFFCURVE",
"826 307 CURVE SMOOTH",
"675 307 OFFCURVE",
"588 407 OFFCURVE",
"579 611 CURVE",
"1101 611 LINE",
"1101 890 LINE",
"87 890 LINE",
"78 819 OFFCURVE",
"73 759 OFFCURVE",
"73 707 CURVE SMOOTH",
"73 260 OFFCURVE",
"371 -29 OFFCURVE",
"843 -29 CURVE SMOOTH"
);
}
);
width = 1696;
}
);
leftKerningGroup = O;
leftMetricsKey = "=O";
rightKerningGroup = O;
rightMetricsKey = "=O";
unicode = 018F;
},
{
color = 6;
glyphname = T;
layers = (
{
anchors = (
{
name = bottom;
position = "{855, 0}";
},
{
name = cedilla;
position = "{865, 0}";
},
{
name = center;
position = "{855, 776}";
},
{
name = top;
position = "{855, 1592}";
}
);
layerId = "BC722C43-F174-4026-9892-4620CE50CA16";
paths = (
{
closed = 1;
nodes = (
"1405 0 LINE",
"1405 345 LINE",
"1115 345 LINE",
"1115 1267 LINE",
"1294 1267 LINE",
"1334 930 LINE",
"1664 930 LINE",
"1664 1592 LINE",
"46 1592 LINE",
"46 930 LINE",
"376 930 LINE",
"416 1267 LINE",
"595 1267 LINE",
"595 345 LINE",
"305 345 LINE",
"305 0 LINE"
);
}
);
width = 1710;
}
);
leftKerningGroup = T;
rightKerningGroup = T;
rightMetricsKey = "=|";
unicode = 0054;
},
{
color = 6;
glyphname = U;
layers = (
{
anchors = (
{
name = bottom;
position = "{915, 0}";
},
{
name = ogonek;
position = "{1164, 0}";
},
{
name = top;
position = "{915, 1592}";
}
);
layerId = "BC722C43-F174-4026-9892-4620CE50CA16";
paths = (
{
closed = 1;
nodes = (
"1354 -29 OFFCURVE",
"1572 198 OFFCURVE",
"1572 645 CURVE SMOOTH",
"1572 1247 LINE",
"1732 1247 LINE",
"1732 1592 LINE",
"1073 1592 LINE",
"1073 1247 LINE",
"1238 1247 LINE",
"1238 684 LINE SMOOTH",
"1238 481 OFFCURVE",
"1157 368 OFFCURVE",
"990 368 CURVE SMOOTH",
"812 368 OFFCURVE",
"728 477 OFFCURVE",
"728 684 CURVE SMOOTH",
"728 1247 LINE",
"893 1247 LINE",
"893 1592 LINE",
"48 1592 LINE",
"48 1247 LINE",
"208 1247 LINE",
"208 685 LINE SMOOTH",
"208 186 OFFCURVE",
"466 -29 OFFCURVE",
"916 -29 CURVE SMOOTH"
);
}
);
width = 1780;
}
);
leftKerningGroup = U;
rightKerningGroup = U;
rightMetricsKey = "=|";
unicode = 0055;
},
{
color = 6;
glyphname = Uhorn;
layers = (
{
anchors = (
{
name = bottom;
position = "{915, 0}";
},
{
name = ogonek;
position = "{1069, 0}";
},
{
name = top;
position = "{915, 1592}";
}
);
layerId = "BC722C43-F174-4026-9892-4620CE50CA16";
paths = (
{
closed = 1;
nodes = (
"1354 -29 OFFCURVE",
"1572 198 OFFCURVE",
"1572 645 CURVE SMOOTH",
"1572 1257 LINE",
"1744 1277 OFFCURVE",
"1896 1410 OFFCURVE",
"1896 1685 CURVE SMOOTH",
"1896 1816 LINE",
"1556 1816 LINE",
"1556 1717 LINE SMOOTH",
"1556 1622 OFFCURVE",
"1501 1592 OFFCURVE",
"1414 1592 CURVE SMOOTH",
"1073 1592 LINE",
"1073 1247 LINE",
"1238 1247 LINE",
"1238 684 LINE SMOOTH",
"1238 481 OFFCURVE",
"1157 368 OFFCURVE",
"990 368 CURVE SMOOTH",
"812 368 OFFCURVE",
"728 477 OFFCURVE",
"728 684 CURVE SMOOTH",
"728 1247 LINE",
"893 1247 LINE",
"893 1592 LINE",
"48 1592 LINE",
"48 1247 LINE",
"208 1247 LINE",
"208 685 LINE SMOOTH",
"208 186 OFFCURVE",
"466 -29 OFFCURVE",
"916 -29 CURVE SMOOTH"
);
}
);
width = 1780;
}
);
leftKerningGroup = U;
leftMetricsKey = U;
widthMetricsKey = U;
rightKerningGroup = Uhorn;
unicode = 01AF;
},
{
color = 6;
glyphname = Uogonek;
layers = (
{
layerId = "BC722C43-F174-4026-9892-4620CE50CA16";
paths = (
{
closed = 1;
nodes = (
"1075 -468 OFFCURVE",
"1118 -464 OFFCURVE",
"1172 -451 CURVE",
"1172 -256 LINE",
"1141 -262 OFFCURVE",
"1110 -265 OFFCURVE",
"1079 -265 CURVE SMOOTH",
"985 -265 OFFCURVE",
"945 -220 OFFCURVE",
"945 -161 CURVE SMOOTH",
"945 -89 OFFCURVE",
"981 -43 OFFCURVE",
"1139 -5 CURVE SMOOTH",
"1426 64 OFFCURVE",
"1572 282 OFFCURVE",
"1572 645 CURVE SMOOTH",
"1572 1247 LINE",
"1732 1247 LINE",
"1732 1592 LINE",
"1073 1592 LINE",
"1073 1247 LINE",
"1238 1247 LINE",
"1238 684 LINE SMOOTH",
"1238 481 OFFCURVE",
"1157 368 OFFCURVE",
"990 368 CURVE SMOOTH",
"812 368 OFFCURVE",
"728 477 OFFCURVE",
"728 684 CURVE SMOOTH",
"728 1247 LINE",
"893 1247 LINE",
"893 1592 LINE",
"48 1592 LINE",
"48 1247 LINE",
"208 1247 LINE",
"208 685 LINE SMOOTH",
"208 221 OFFCURVE",
"431 2 OFFCURVE",
"835 -26 CURVE",
"746 -78 OFFCURVE",
"713 -150 OFFCURVE",
"713 -226 CURVE SMOOTH",
"713 -387 OFFCURVE",
"855 -468 OFFCURVE",
"1031 -468 CURVE SMOOTH"
);
}
);
width = 1780;
}
);
leftKerningGroup = U;
leftMetricsKey = U;
widthMetricsKey = U;
rightKerningGroup = U;
unicode = 0172;
},
{
color = 6;
glyphname = V;
layers = (
{
layerId = "BC722C43-F174-4026-9892-4620CE50CA16";
paths = (
{
closed = 1;
nodes = (
"1220 0 LINE",
"1613 1247 LINE",
"1758 1247 LINE",
"1758 1592 LINE",
"1093 1592 LINE",
"1093 1247 LINE",
"1258 1247 LINE",
"964 217 LINE",
"1042 217 LINE",
"748 1247 LINE",
"913 1247 LINE",
"913 1592 LINE",
"14 1592 LINE",
"14 1247 LINE",
"159 1247 LINE",
"553 0 LINE"
);
}
);
width = 1772;
}
);
leftKerningGroup = V;
rightKerningGroup = V;
rightMetricsKey = "=|";
unicode = 0056;
},
{
color = 6;
glyphname = W;
layers = (
{
anchors = (
{
name = top;
position = "{1464, 1592}";
}
);
layerId = "BC722C43-F174-4026-9892-4620CE50CA16";
paths = (
{
closed = 1;
nodes = (
"1126 0 LINE",
"1408 929 LINE",
"1300 929 LINE",
"1576 0 LINE",
"2150 0 LINE",
"2528 1247 LINE",
"2673 1247 LINE",
"2673 1592 LINE",
"2011 1592 LINE",
"2011 1247 LINE",
"2177 1247 LINE",
"1892 207 LINE",
"2042 207 LINE",
"1661 1592 LINE",
"1268 1592 LINE",
"868 207 LINE",
"1026 207 LINE",
"748 1247 LINE",
"913 1247 LINE",
"913 1592 LINE",
"19 1592 LINE",
"19 1247 LINE",
"164 1247 LINE",
"542 0 LINE"
);
}
);
width = 2692;
}
);
leftKerningGroup = V;
rightKerningGroup = V;
rightMetricsKey = "=|";
unicode = 0057;
},
{
color = 6;
glyphname = X;
layers = (
{
layerId = "BC722C43-F174-4026-9892-4620CE50CA16";
paths = (
{
closed = 1;
nodes = (
"1839 0 LINE",
"1839 345 LINE",
"1694 345 LINE",
"866 1248 LINE",
"969 1248 LINE",
"969 1593 LINE",
"56 1593 LINE",
"56 1248 LINE",
"201 1248 LINE",
"1029 345 LINE",
"864 345 LINE",
"864 0 LINE"
);
},
{
closed = 1;
nodes = (
"720 0 LINE",
"720 345 LINE",
"555 345 LINE",
"958 896 LINE",
"584 896 LINE",
"159 345 LINE",
"14 345 LINE",
"14 0 LINE"
);
},
{
closed = 1;
nodes = (
"1187 697 LINE",
"1612 1248 LINE",
"1757 1248 LINE",
"1757 1593 LINE",
"1114 1593 LINE",
"1114 1248 LINE",
"1217 1248 LINE",
"812 697 LINE"
);
}
);
width = 1853;
}
);
leftKerningGroup = X;
rightKerningGroup = X;
unicode = 0058;
},
{
color = 6;
glyphname = Y;
layers = (
{
anchors = (
{
name = bottom;
position = "{864, 0}";
},
{
name = top;
position = "{864, 1592}";
},
{
name = topleft;
position = "{-64, 1592}";
}
);
layerId = "BC722C43-F174-4026-9892-4620CE50CA16";
paths = (
{
closed = 1;
nodes = (
"1408 0 LINE",
"1408 345 LINE",
"1118 345 LINE",
"1118 1002 LINE",
"1051 594 LINE",
"1538 1248 LINE",
"1683 1248 LINE",
"1683 1593 LINE",
"1049 1593 LINE",
"1049 1248 LINE",
"1159 1248 LINE",
"931 927 LINE",
"1068 917 LINE",
"795 1248 LINE",
"905 1248 LINE",
"905 1593 LINE",
"1 1593 LINE",
"1 1248 LINE",
"146 1248 LINE",
"819 461 LINE",
"610 877 LINE",
"610 345 LINE",
"320 345 LINE",
"320 0 LINE"
);
}
);
width = 1728;
}
);
leftKerningGroup = Y;
rightKerningGroup = Y;
unicode = 0059;
},
{
color = 6;
glyphname = Z;
layers = (
{
anchors = (
{
name = bottom;
position = "{785, 0}";
},
{
name = top;
position = "{785, 1592}";
}
);
layerId = "BC722C43-F174-4026-9892-4620CE50CA16";
paths = (
{
closed = 1;
nodes = (
"1495 0 LINE",
"1495 662 LINE",
"1165 662 LINE",
"1125 325 LINE",
"745 325 LINE",
"1485 1272 LINE",
"1485 1592 LINE",
"85 1592 LINE",
"85 930 LINE",
"415 930 LINE",
"455 1267 LINE",
"815 1267 LINE",
"75 320 LINE",
"75 0 LINE"
);
}
);
width = 1570;
}
);
leftKerningGroup = Z;
rightKerningGroup = Z;
rightMetricsKey = "=|";
unicode = 005A;
},
{
color = 6;
glyphname = a;
layers = (
{
anchors = (
{
name = bottom;
position = "{725, 0}";
},
{
name = ogonek;
position = "{1322, 0}";
},
{
name = top;
position = "{660, 1072}";
}
);
layerId = "BC722C43-F174-4026-9892-4620CE50CA16";
paths = (
{
closed = 1;
nodes = (
"562 -18 OFFCURVE",
"684 47 OFFCURVE",
"747 157 CURVE",
"796 0 LINE",
"1342 0 LINE",
"1342 300 LINE",
"1212 300 LINE",
"1212 669 LINE SMOOTH",
"1212 964 OFFCURVE",
"1036 1090 OFFCURVE",
"637 1090 CURVE SMOOTH",
"457 1090 OFFCURVE",
"270 1061 OFFCURVE",
"130 1007 CURVE",
"130 715 LINE",
"157 703 LINE",
"255 758 OFFCURVE",
"382 790 OFFCURVE",
"499 790 CURVE SMOOTH",
"661 790 OFFCURVE",
"732 738 OFFCURVE",
"732 617 CURVE SMOOTH",
"732 595 LINE",
"649 620 OFFCURVE",
"572 630 OFFCURVE",
"484 630 CURVE SMOOTH",
"231 630 OFFCURVE",
"66 503 OFFCURVE",
"66 306 CURVE SMOOTH",
"66 116 OFFCURVE",
"214 -18 OFFCURVE",
"421 -18 CURVE SMOOTH"
);
},
{
closed = 1;
nodes = (
"561 238 OFFCURVE",
"514 281 OFFCURVE",
"514 349 CURVE SMOOTH",
"514 415 OFFCURVE",
"566 459 OFFCURVE",
"634 459 CURVE SMOOTH",
"663 459 OFFCURVE",
"698 454 OFFCURVE",
"732 440 CURVE",
"732 273 LINE",
"711 252 OFFCURVE",
"666 238 OFFCURVE",
"630 238 CURVE SMOOTH"
);
}
);
width = 1399;
}
);
leftKerningGroup = a_rom;
rightKerningGroup = n;
unicode = 0061;
userData = {
com.typemytype.robofont.layerData = {
};
};
},
{
color = 6;
glyphname = ae;
layers = (
{
anchors = (
{
name = bottom;
position = "{995, 0}";
},
{
name = top;
position = "{995, 1072}";
}
);
guideLines = (
{
angle = 90;
position = "{1031, 555}";
}
);
layerId = "BC722C43-F174-4026-9892-4620CE50CA16";
paths = (
{
closed = 1;
nodes = (
"948 -18 OFFCURVE",
"1151 146 OFFCURVE",
"1151 400 CURVE SMOOTH",
"1151 669 LINE SMOOTH",
"1151 964 OFFCURVE",
"945 1090 OFFCURVE",
"616 1090 CURVE SMOOTH",
"456 1090 OFFCURVE",
"289 1061 OFFCURVE",
"149 1007 CURVE",
"149 715 LINE",
"176 703 LINE",
"274 758 OFFCURVE",
"401 790 OFFCURVE",
"518 790 CURVE SMOOTH",
"680 790 OFFCURVE",
"751 738 OFFCURVE",
"751 617 CURVE SMOOTH",
"751 595 LINE",
"668 620 OFFCURVE",
"591 630 OFFCURVE",
"503 630 CURVE SMOOTH",
"250 630 OFFCURVE",
"85 503 OFFCURVE",
"85 314 CURVE SMOOTH",
"85 116 OFFCURVE",
"253 -18 OFFCURVE",
"570 -18 CURVE SMOOTH"
);
},
{
closed = 1;
nodes = (
"580 228 OFFCURVE",
"533 271 OFFCURVE",
"533 344 CURVE SMOOTH",
"533 415 OFFCURVE",
"585 459 OFFCURVE",
"653 459 CURVE SMOOTH",
"682 459 OFFCURVE",
"717 454 OFFCURVE",
"751 440 CURVE",
"751 259 LINE",
"730 240 OFFCURVE",
"685 228 OFFCURVE",
"649 228 CURVE SMOOTH"
);
},
{
closed = 1;
nodes = (
"1575 -18 OFFCURVE",
"1749 30 OFFCURVE",
"1846 97 CURVE",
"1846 384 LINE",
"1819 396 LINE",
"1741 331 OFFCURVE",
"1624 282 OFFCURVE",
"1502 282 CURVE SMOOTH",
"1338 282 OFFCURVE",
"1221 352 OFFCURVE",
"1221 527 CURVE",
"1221 647 LINE",
"1226 771 OFFCURVE",
"1270 844 OFFCURVE",
"1360 844 CURVE SMOOTH",
"1450 844 OFFCURVE",
"1494 771 OFFCURVE",
"1499 647 CURVE",
"1190 647 LINE",
"1190 473 LINE",
"1868 473 LINE",
"1873 507 OFFCURVE",
"1878 550 OFFCURVE",
"1878 596 CURVE SMOOTH",
"1878 888 OFFCURVE",
"1676 1090 OFFCURVE",
"1354 1090 CURVE SMOOTH",
"1064 1090 OFFCURVE",
"828 880 OFFCURVE",
"828 546 CURVE SMOOTH",
"828 203 OFFCURVE",
"1076 -18 OFFCURVE",
"1422 -18 CURVE SMOOTH"
);
}
);
width = 1931;
}
);
leftKerningGroup = a_rom;
rightKerningGroup = e;
rightMetricsKey = e;
unicode = 00E6;
},
{
color = 6;
glyphname = b;
layers = (
{
layerId = "BC722C43-F174-4026-9892-4620CE50CA16";
paths = (
{
closed = 1;
nodes = (
"1228 -19 OFFCURVE",
"1420 196 OFFCURVE",
"1420 538 CURVE SMOOTH",
"1420 873 OFFCURVE",
"1244 1090 OFFCURVE",
"978 1090 CURVE SMOOTH",
"869 1090 OFFCURVE",
"752 1046 OFFCURVE",
"652 965 CURVE",
"652 1560 LINE",
"42 1495 LINE",
"42 1222 LINE",
"172 1222 LINE",
"172 0 LINE",
"550 -1 LINE",
"590 86 LINE",
"689 17 OFFCURVE",
"804 -19 OFFCURVE",
"913 -19 CURVE SMOOTH"
);
},
{
closed = 1;
nodes = (
"738 280 OFFCURVE",
"688 295 OFFCURVE",
"652 319 CURVE",
"652 745 LINE",
"688 771 OFFCURVE",
"748 791 OFFCURVE",
"798 791 CURVE SMOOTH",
"892 791 OFFCURVE",
"947 697 OFFCURVE",
"947 537 CURVE SMOOTH",
"947 376 OFFCURVE",
"892 280 OFFCURVE",
"788 280 CURVE SMOOTH"
);
}
);
width = 1478;
}
);
leftKerningGroup = b;
rightKerningGroup = o;
unicode = 0062;
userData = {
com.typemytype.robofont.layerData = {
};
};
},
{
color = 6;
glyphname = c;
layers = (
{
anchors = (
{
name = bottom;
position = "{616, 0}";
},
{
name = cedilla;
position = "{659, 0}";
},
{
name = top;
position = "{616, 1072}";
}
);
layerId = "BC722C43-F174-4026-9892-4620CE50CA16";
paths = (
{
closed = 1;
nodes = (
"830 -18 OFFCURVE",
"1019 30 OFFCURVE",
"1114 97 CURVE",
"1114 394 LINE",
"1087 406 LINE",
"1011 342 OFFCURVE",
"901 292 OFFCURVE",
"789 292 CURVE SMOOTH",
"639 292 OFFCURVE",
"531 365 OFFCURVE",
"531 550 CURVE SMOOTH",
"531 728 OFFCURVE",
"614 799 OFFCURVE",
"703 799 CURVE SMOOTH",
"782 799 OFFCURVE",
"837 743 OFFCURVE",
"848 628 CURVE",
"1136 628 LINE",
"1136 1072 LINE",
"915 1072 LINE",
"875 957 LINE",
"803 1039 OFFCURVE",
"701 1090 OFFCURVE",
"565 1090 CURVE SMOOTH",
"284 1090 OFFCURVE",
"53 878 OFFCURVE",
"53 546 CURVE SMOOTH",
"53 193 OFFCURVE",
"285 -18 OFFCURVE",
"664 -18 CURVE SMOOTH"
);
}
);
width = 1197;
}
);
leftKerningGroup = o;
leftMetricsKey = o;
rightKerningGroup = c;
unicode = 0063;
userData = {
com.typemytype.robofont.layerData = {
};
};
},
{
color = 6;
glyphname = d;
layers = (
{
anchors = (
{
name = bottom;
position = "{747, 0}";
},
{
name = center;
position = "{747, 536}";
},
{
name = top;
position = "{1066, 1540}";
},
{
name = topright;
position = "{1406, 1560}";
}
);
layerId = "BC722C43-F174-4026-9892-4620CE50CA16";
paths = (
{
closed = 1;
nodes = (
"638 -18 OFFCURVE",
"753 33 OFFCURVE",
"836 112 CURVE",
"836 0 LINE",
"1446 0 LINE",
"1446 300 LINE",
"1306 300 LINE",
"1306 1560 LINE",
"651 1495 LINE",
"651 1222 LINE",
"826 1222 LINE",
"826 965 LINE",
"726 1046 OFFCURVE",
"609 1090 OFFCURVE",
"500 1090 CURVE SMOOTH",
"234 1090 OFFCURVE",
"58 873 OFFCURVE",
"58 538 CURVE SMOOTH",
"58 203 OFFCURVE",
"234 -18 OFFCURVE",
"525 -18 CURVE SMOOTH"
);
},
{
closed = 1;
nodes = (
"586 281 OFFCURVE",
"531 377 OFFCURVE",
"531 537 CURVE SMOOTH",
"531 697 OFFCURVE",
"586 791 OFFCURVE",
"680 791 CURVE SMOOTH",
"730 791 OFFCURVE",
"790 771 OFFCURVE",
"826 745 CURVE",
"826 324 LINE",
"790 298 OFFCURVE",
"730 281 OFFCURVE",
"680 281 CURVE SMOOTH"
);
}
);
width = 1493;
}
);
leftKerningGroup = o;
rightKerningGroup = l;
unicode = 0064;
},
{
color = 6;
glyphname = eth;
layers = (
{
layerId = "BC722C43-F174-4026-9892-4620CE50CA16";
paths = (
{
closed = 1;
nodes = (
"1053 -20 OFFCURVE",
"1296 233 OFFCURVE",
"1296 707 CURVE SMOOTH",
"1296 1232 OFFCURVE",
"984 1551 OFFCURVE",
"439 1551 CURVE SMOOTH",
"381 1551 OFFCURVE",
"318 1547 OFFCURVE",
"242 1537 CURVE",
"222 1237 LINE",
"326 1237 LINE SMOOTH",
"669 1237 OFFCURVE",
"796 1105 OFFCURVE",
"816 815 CURVE",
"872 771 LINE",
"843 909 OFFCURVE",
"747 1006 OFFCURVE",
"546 1006 CURVE SMOOTH",
"266 1006 OFFCURVE",
"53 801 OFFCURVE",
"53 501 CURVE SMOOTH",
"53 185 OFFCURVE",
"288 -16 OFFCURVE",
"649 -18 CURVE SMOOTH"
);
},
{
closed = 1;
nodes = (
"574 273 OFFCURVE",
"527 350 OFFCURVE",
"527 494 CURVE SMOOTH",
"527 638 OFFCURVE",
"574 715 OFFCURVE",
"662 715 CURVE SMOOTH",
"750 715 OFFCURVE",
"797 638 OFFCURVE",
"797 494 CURVE SMOOTH",
"797 350 OFFCURVE",
"750 273 OFFCURVE",
"662 273 CURVE SMOOTH"
);
},
{
closed = 1;
nodes = (
"1128 1437 LINE",
"1064 1553 LINE",
"251 1118 LINE",
"315 1002 LINE"
);
}
);
width = 1349;
}
);
leftKerningGroup = o;
rightKerningGroup = eth;
unicode = 00F0;
},
{
color = 6;
glyphname = dcroat;
layers = (
{
layerId = "BC722C43-F174-4026-9892-4620CE50CA16";
paths = (
{
closed = 1;
nodes = (
"638 -18 OFFCURVE",
"753 33 OFFCURVE",
"836 112 CURVE",
"836 0 LINE",
"1446 0 LINE",
"1446 300 LINE",
"1306 300 LINE",
"1306 1560 LINE",
"826 1514 LINE",
"826 965 LINE",
"726 1046 OFFCURVE",
"609 1090 OFFCURVE",
"500 1090 CURVE SMOOTH",
"234 1090 OFFCURVE",
"58 873 OFFCURVE",
"58 538 CURVE SMOOTH",
"58 203 OFFCURVE",
"234 -18 OFFCURVE",
"525 -18 CURVE SMOOTH"
);
},
{
closed = 1;
nodes = (
"586 281 OFFCURVE",
"531 377 OFFCURVE",
"531 537 CURVE SMOOTH",
"531 697 OFFCURVE",
"586 791 OFFCURVE",
"680 791 CURVE SMOOTH",
"730 791 OFFCURVE",
"790 771 OFFCURVE",
"826 745 CURVE",
"826 324 LINE",
"790 298 OFFCURVE",
"730 281 OFFCURVE",
"680 281 CURVE SMOOTH"
);
},
{
closed = 1;
nodes = (
"1416 1222 LINE",
"1416 1405 LINE",
"466 1405 LINE",
"466 1222 LINE"
);
}
);
width = 1493;
}
);
leftKerningGroup = o;
leftMetricsKey = d;
widthMetricsKey = d;
rightKerningGroup = l;
unicode = 0111;
},
{
color = 6;
glyphname = e;
layers = (
{
anchors = (
{
name = bottom;
position = "{640, 0}";
},
{
name = ogonek;
position = "{864, 0}";
},
{
name = top;
position = "{640, 1072}";
}
);
layerId = "BC722C43-F174-4026-9892-4620CE50CA16";
paths = (
{
closed = 1;
nodes = (
"860 -18 OFFCURVE",
"1054 30 OFFCURVE",
"1151 97 CURVE",
"1151 384 LINE",
"1124 396 LINE",
"1046 331 OFFCURVE",
"929 282 OFFCURVE",
"807 282 CURVE SMOOTH",
"643 282 OFFCURVE",
"526 352 OFFCURVE",
"526 527 CURVE",
"526 647 LINE",
"531 771 OFFCURVE",
"575 844 OFFCURVE",
"665 844 CURVE SMOOTH",
"755 844 OFFCURVE",
"799 771 OFFCURVE",
"804 647 CURVE",
"495 647 LINE",
"495 473 LINE",
"1173 473 LINE",
"1178 507 OFFCURVE",
"1183 550 OFFCURVE",
"1183 596 CURVE SMOOTH",
"1183 888 OFFCURVE",
"981 1090 OFFCURVE",
"639 1090 CURVE SMOOTH",
"289 1090 OFFCURVE",
"53 880 OFFCURVE",
"53 546 CURVE SMOOTH",
"53 193 OFFCURVE",
"291 -18 OFFCURVE",
"687 -18 CURVE SMOOTH"
);
}
);
width = 1236;
}
);
leftKerningGroup = o;
leftMetricsKey = o;
rightKerningGroup = e;
unicode = 0065;
userData = {
com.typemytype.robofont.layerData = {
};
};
},
{
color = 6;
glyphname = eogonek;
layers = (
{
layerId = "BC722C43-F174-4026-9892-4620CE50CA16";
paths = (
{
closed = 1;
nodes = (
"715 -18 OFFCURVE",
"744 -17 OFFCURVE",
"773 -14 CURVE",
"1151 97 LINE",
"1151 384 LINE",
"1124 396 LINE",
"1046 331 OFFCURVE",
"929 282 OFFCURVE",
"807 282 CURVE SMOOTH",
"643 282 OFFCURVE",
"526 352 OFFCURVE",
"526 527 CURVE",
"526 647 LINE",
"531 771 OFFCURVE",
"575 844 OFFCURVE",
"665 844 CURVE SMOOTH",
"755 844 OFFCURVE",
"799 771 OFFCURVE",
"804 647 CURVE",
"495 647 LINE",
"495 473 LINE",
"1173 473 LINE",
"1178 507 OFFCURVE",
"1183 550 OFFCURVE",
"1183 596 CURVE SMOOTH",
"1183 888 OFFCURVE",
"981 1090 OFFCURVE",
"639 1090 CURVE SMOOTH",
"289 1090 OFFCURVE",
"53 880 OFFCURVE",
"53 546 CURVE SMOOTH",
"53 193 OFFCURVE",
"291 -18 OFFCURVE",
"687 -18 CURVE SMOOTH"
);
},
{
closed = 1;
nodes = (
"954 -468 OFFCURVE",
"997 -464 OFFCURVE",
"1051 -451 CURVE",
"1051 -256 LINE",
"1020 -262 OFFCURVE",
"989 -265 OFFCURVE",
"958 -265 CURVE SMOOTH",
"864 -265 OFFCURVE",
"824 -220 OFFCURVE",
"824 -158 CURVE SMOOTH",
"824 -66 OFFCURVE",
"891 -8 OFFCURVE",
"1151 97 CURVE",
"751 0 LINE",
"638 -52 OFFCURVE",
"592 -136 OFFCURVE",
"592 -226 CURVE SMOOTH",
"592 -387 OFFCURVE",
"734 -468 OFFCURVE",
"910 -468 CURVE SMOOTH"
);
}
);
width = 1236;
}
);
leftKerningGroup = o;
leftMetricsKey = e;
widthMetricsKey = e;
rightKerningGroup = e;
unicode = 0119;
userData = {
com.typemytype.robofont.layerData = {
};
};
},
{
color = 6;
glyphname = schwa;
layers = (
{
anchors = (
{
name = bottom;
position = "{597, 0}";
},
{
name = top;
position = "{606, 1072}";
}
);
layerId = "BC722C43-F174-4026-9892-4620CE50CA16";
paths = (
{
closed = 1;
nodes = (
"947 -18 OFFCURVE",
"1183 192 OFFCURVE",
"1183 526 CURVE SMOOTH",
"1183 879 OFFCURVE",
"945 1090 OFFCURVE",
"569 1090 CURVE SMOOTH",
"376 1090 OFFCURVE",
"202 1052 OFFCURVE",
"85 1005 CURVE",
"85 718 LINE",
"112 706 LINE",
"198 755 OFFCURVE",
"317 790 OFFCURVE",
"429 790 CURVE SMOOTH",
"593 790 OFFCURVE",
"710 720 OFFCURVE",
"710 545 CURVE",
"710 425 LINE",
"705 301 OFFCURVE",
"661 228 OFFCURVE",
"571 228 CURVE SMOOTH",
"481 228 OFFCURVE",
"437 301 OFFCURVE",
"432 425 CURVE",
"741 425 LINE",
"741 599 LINE",
"63 599 LINE",
"58 565 OFFCURVE",
"53 522 OFFCURVE",
"53 476 CURVE SMOOTH",
"53 184 OFFCURVE",
"255 -18 OFFCURVE",
"597 -18 CURVE SMOOTH"
);
}
);
width = 1236;
}
);
leftKerningGroup = o;
leftMetricsKey = "=e";
rightKerningGroup = o;
rightMetricsKey = "=e";
unicode = 0259;
},
{
color = 6;
glyphname = f;
layers = (
{
layerId = "BC722C43-F174-4026-9892-4620CE50CA16";
paths = (
{
closed = 1;
nodes = (
"942 0 LINE",
"942 300 LINE",
"700 300 LINE",
"700 772 LINE",
"942 772 LINE",
"942 1072 LINE",
"700 1072 LINE",
"700 1125 LINE SMOOTH",
"700 1205 OFFCURVE",
"739 1252 OFFCURVE",
"829 1252 CURVE SMOOTH",
"880 1252 OFFCURVE",
"911 1241 OFFCURVE",
"940 1232 CURVE",
"967 1244 LINE",
"967 1530 LINE",
"891 1548 OFFCURVE",
"817 1558 OFFCURVE",
"725 1558 CURVE SMOOTH",
"399 1558 OFFCURVE",
"220 1404 OFFCURVE",
"220 1135 CURVE SMOOTH",
"220 1061 LINE",
"55 1045 LINE",
"55 772 LINE",
"220 772 LINE",
"220 300 LINE",
"65 300 LINE",
"65 0 LINE"
);
}
);
width = 962;
}
);
leftKerningGroup = n;
rightKerningGroup = f;
unicode = 0066;
},
{
color = 6;
glyphname = g;
layers = (
{
anchors = (
{
name = top;
position = "{655, 1072}";
}
);
layerId = "BC722C43-F174-4026-9892-4620CE50CA16";
paths = (
{
closed = 1;
nodes = (
"867 781 LINE",
"1352 781 LINE",
"1352 1091 LINE",
"752 1032 LINE"
);
},
{
closed = 1;
nodes = (
"617 275 LINE SMOOTH",
"567 275 OFFCURVE",
"545 288 OFFCURVE",
"545 311 CURVE SMOOTH",
"545 334 OFFCURVE",
"567 346 OFFCURVE",
"617 346 CURVE SMOOTH",
"1012 346 OFFCURVE",
"1233 493 OFFCURVE",
"1233 717 CURVE SMOOTH",
"1233 931 OFFCURVE",
"1012 1090 OFFCURVE",
"655 1090 CURVE SMOOTH",
"258 1090 OFFCURVE",
"47 941 OFFCURVE",
"47 717 CURVE SMOOTH",
"47 506 OFFCURVE",
"250 388 OFFCURVE",
"491 357 CURVE",
"581 408 LINE",
"298 408 OFFCURVE",
"129 319 OFFCURVE",
"129 161 CURVE SMOOTH",
"129 18 OFFCURVE",
"258 -66 OFFCURVE",
"481 -66 CURVE SMOOTH",
"788 -66 LINE SMOOTH",
"835 -66 OFFCURVE",
"860 -83 OFFCURVE",
"860 -116 CURVE SMOOTH",
"860 -180 OFFCURVE",
"786 -226 OFFCURVE",
"608 -226 CURVE SMOOTH",
"444 -226 OFFCURVE",
"361 -177 OFFCURVE",
"361 -97 CURVE SMOOTH",
"361 -65 OFFCURVE",
"375 -28 OFFCURVE",
"404 0 CURVE",
"242 19 LINE",
"138 2 OFFCURVE",
"57 -70 OFFCURVE",
"57 -153 CURVE SMOOTH",
"57 -296 OFFCURVE",
"227 -418 OFFCURVE",
"638 -418 CURVE SMOOTH",
"1051 -418 OFFCURVE",
"1328 -284 OFFCURVE",
"1328 -29 CURVE SMOOTH",
"1328 165 OFFCURVE",
"1194 275 OFFCURVE",
"934 275 CURVE SMOOTH"
);
},
{
closed = 1;
nodes = (
"737 877 OFFCURVE",
"800 818 OFFCURVE",
"800 719 CURVE SMOOTH",
"800 619 OFFCURVE",
"738 559 OFFCURVE",
"655 558 CURVE SMOOTH",
"572 557 OFFCURVE",
"510 618 OFFCURVE",
"510 719 CURVE SMOOTH",
"510 819 OFFCURVE",
"573 879 OFFCURVE",
"655 878 CURVE SMOOTH"
);
}
);
width = 1367;
}
);
leftKerningGroup = g_ss;
rightKerningGroup = g_ss;
unicode = 0067;
},
{
color = 6;
glyphname = h;
layers = (
{
anchors = (
{
name = center;
position = "{714, 536}";
},
{
name = top;
position = "{427, 1540}";
}
);
layerId = "BC722C43-F174-4026-9892-4620CE50CA16";
paths = (
{
closed = 1;
nodes = (
"757 0 LINE",
"757 300 LINE",
"667 300 LINE",
"667 1560 LINE",
"42 1501 LINE",
"42 1228 LINE",
"187 1228 LINE",
"187 300 LINE",
"42 300 LINE",
"42 0 LINE"
);
},
{
closed = 1;
nodes = (
"1502 0 LINE",
"1502 300 LINE",
"1362 300 LINE",
"1362 679 LINE SMOOTH",
"1362 954 OFFCURVE",
"1253 1090 OFFCURVE",
"1012 1090 CURVE SMOOTH",
"863 1090 OFFCURVE",
"729 1034 OFFCURVE",
"647 938 CURVE",
"647 715 LINE",
"667 715 LINE",
"697 762 OFFCURVE",
"746 790 OFFCURVE",
"791 790 CURVE SMOOTH",
"846 790 OFFCURVE",
"882 756 OFFCURVE",
"882 679 CURVE SMOOTH",
"882 0 LINE"
);
}
);
width = 1549;
}
);
leftKerningGroup = l;
rightKerningGroup = n;
unicode = 0068;
userData = {
com.typemytype.robofont.layerData = {
};
};
},
{
color = 6;
glyphname = hbar;
layers = (
{
layerId = "BC722C43-F174-4026-9892-4620CE50CA16";
paths = (
{
closed = 1;
nodes = (
"757 0 LINE",
"757 300 LINE",
"667 300 LINE",
"667 1560 LINE",
"187 1514 LINE",
"187 300 LINE",
"42 300 LINE",
"42 0 LINE"
);
},
{
closed = 1;
nodes = (
"1502 0 LINE",
"1502 300 LINE",
"1362 300 LINE",
"1362 679 LINE SMOOTH",
"1362 954 OFFCURVE",
"1253 1090 OFFCURVE",
"1012 1090 CURVE SMOOTH",
"863 1090 OFFCURVE",
"729 1034 OFFCURVE",
"647 938 CURVE",
"647 715 LINE",
"667 715 LINE",
"697 762 OFFCURVE",
"746 790 OFFCURVE",
"791 790 CURVE SMOOTH",
"846 790 OFFCURVE",
"882 756 OFFCURVE",
"882 679 CURVE SMOOTH",
"882 0 LINE"
);
},
{
closed = 1;
nodes = (
"1027 1222 LINE",
"1027 1405 LINE",
"77 1405 LINE",
"77 1222 LINE"
);
}
);
width = 1549;
}
);
leftKerningGroup = l;
leftMetricsKey = h;
widthMetricsKey = h;
rightKerningGroup = n;
unicode = 0127;
},
{
color = 10;
glyphname = i;
layers = (
{
anchors = (
{
name = bottom;
position = "{460, 0}";
},
{
name = ogonek;
position = "{675, 0}";
}
);
background = {
paths = (
{
closed = 1;
nodes = (
"828 0 LINE",
"828 301 LINE",
"700 301 LINE",
"700 1072 LINE",
"92 1008 LINE",
"92 761 LINE",
"220 761 LINE",
"220 301 LINE",
"92 301 LINE",
"92 0 LINE"
);
},
{
closed = 1;
nodes = (
"618 1175 OFFCURVE",
"748 1249 OFFCURVE",
"748 1405 CURVE SMOOTH",
"748 1562 OFFCURVE",
"622 1630 OFFCURVE",
"461 1630 CURVE SMOOTH",
"304 1630 OFFCURVE",
"172 1560 OFFCURVE",
"172 1405 CURVE SMOOTH",
"172 1250 OFFCURVE",
"305 1175 OFFCURVE",
"460 1175 CURVE SMOOTH"
);
}
);
};
components = (
{
name = idotless;
},
{
name = dotaccentcomb.i;
}
);
layerId = "BC722C43-F174-4026-9892-4620CE50CA16";
width = 887;
}
);
leftKerningGroup = n;
rightKerningGroup = u;
unicode = 0069;
userData = {
com.typemytype.robofont.layerData = {
};
};
},
{
color = 6;
glyphname = idotless;
layers = (
{
anchors = (
{
name = bottom;
position = "{460, 0}";
},
{
name = ogonek;
position = "{700, 0}";
},
{
name = top;
position = "{460, 1072}";
}
);
layerId = "BC722C43-F174-4026-9892-4620CE50CA16";
paths = (
{
closed = 1;
nodes = (
"855 0 LINE",
"855 300 LINE",
"700 300 LINE",
"700 1091 LINE",
"65 1032 LINE",
"65 759 LINE",
"220 759 LINE",
"220 300 LINE",
"65 300 LINE",
"65 0 LINE"
);
}
);
width = 887;
}
);
leftKerningGroup = n;
rightKerningGroup = u;
unicode = 0131;
},
{
color = 6;
glyphname = ij;
layers = (
{
layerId = "BC722C43-F174-4026-9892-4620CE50CA16";
paths = (
{
closed = 1;
nodes = (
"1068 -417 OFFCURVE",
"1354 -253 OFFCURVE",
"1354 176 CURVE SMOOTH",
"1354 1091 LINE",
"784 1032 LINE",
"784 759 LINE",
"874 759 LINE",
"874 92 LINE SMOOTH",
"874 -55 OFFCURVE",
"787 -115 OFFCURVE",
"612 -115 CURVE SMOOTH",
"480 -115 OFFCURVE",
"345 -91 OFFCURVE",
"238 -36 CURVE",
"211 -48 LINE",
"211 -340 LINE",
"342 -387 OFFCURVE",
"509 -414 OFFCURVE",
"688 -415 CURVE SMOOTH"
);
},
{
closed = 1;
nodes = (
"701 18 OFFCURVE",
"813 72 OFFCURVE",
"894 165 CURVE",
"894 393 LINE",
"874 395 LINE",
"849 348 OFFCURVE",
"803 318 OFFCURVE",
"758 318 CURVE SMOOTH",
"702 318 OFFCURVE",
"662 352 OFFCURVE",
"662 433 CURVE SMOOTH",
"662 1091 LINE",
"42 1032 LINE",
"42 759 LINE",
"182 759 LINE",
"182 434 LINE SMOOTH",
"182 158 OFFCURVE",
"301 18 OFFCURVE",
"552 18 CURVE SMOOTH"
);
},
{
closed = 1;
nodes = (
"599 1158 OFFCURVE",
"710 1247 OFFCURVE",
"710 1388 CURVE SMOOTH",
"710 1530 OFFCURVE",
"604 1613 OFFCURVE",
"423 1613 CURVE SMOOTH",
"245 1613 OFFCURVE",
"134 1527 OFFCURVE",
"134 1388 CURVE SMOOTH",
"134 1249 OFFCURVE",
"247 1158 OFFCURVE",
"422 1158 CURVE SMOOTH"
);
},
{
closed = 1;
nodes = (
"1291 1158 OFFCURVE",
"1402 1247 OFFCURVE",
"1402 1388 CURVE SMOOTH",
"1402 1530 OFFCURVE",
"1296 1613 OFFCURVE",
"1115 1613 CURVE SMOOTH",
"937 1613 OFFCURVE",
"826 1527 OFFCURVE",
"826 1388 CURVE SMOOTH",
"826 1249 OFFCURVE",
"939 1158 OFFCURVE",
"1114 1158 CURVE SMOOTH"
);
}
);
width = 1494;
}
);
leftKerningGroup = u;
leftMetricsKey = u;
rightKerningGroup = j;
unicode = 0133;
},
{
color = 6;
glyphname = jdotless;
layers = (
{
anchors = (
{
name = bottom;
position = "{427, 0}";
},
{
name = top;
position = "{427, 1072}";
}
);
layerId = "BC722C43-F174-4026-9892-4620CE50CA16";
paths = (
{
closed = 1;
nodes = (
"493 -408 OFFCURVE",
"667 -270 OFFCURVE",
"667 101 CURVE SMOOTH",
"667 1091 LINE",
"32 1032 LINE",
"32 759 LINE",
"187 759 LINE",
"187 40 LINE SMOOTH",
"187 -73 OFFCURVE",
"149 -108 OFFCURVE",
"27 -108 CURVE",
"27 -408 LINE"
);
}
);
width = 797;
}
);
leftKerningGroup = p;
rightKerningGroup = j;
unicode = 0237;
},
{
color = 6;
glyphname = k;
layers = (
{
anchors = (
{
name = bottom;
position = "{797, 0}";
},
{
name = top;
position = "{427, 1540}";
}
);
layerId = "BC722C43-F174-4026-9892-4620CE50CA16";
paths = (
{
closed = 1;
nodes = (
"667 0 LINE",
"667 1560 LINE",
"42 1495 LINE",
"42 1222 LINE",
"187 1222 LINE",
"187 300 LINE",
"42 300 LINE",
"42 0 LINE"
);
},
{
closed = 1;
nodes = (
"1455 0 LINE",
"1455 300 LINE",
"1305 300 LINE",
"1008 713 LINE",
"996 564 LINE",
"1244 772 LINE",
"1434 772 LINE",
"1434 1072 LINE",
"758 1072 LINE",
"758 772 LINE",
"912 772 LINE",
"627 532 LINE",
"617 468 LINE",
"947 0 LINE"
);
}
);
width = 1481;
}
);
leftKerningGroup = l;
rightKerningGroup = k;
unicode = 006B;
userData = {
com.typemytype.robofont.layerData = {
};
};
},
{
color = 6;
glyphname = kgreenlandic;
layers = (
{
layerId = "BC722C43-F174-4026-9892-4620CE50CA16";
paths = (
{
closed = 1;
nodes = (
"1498 0 LINE",
"1498 300 LINE",
"1348 300 LINE",
"1051 713 LINE",
"1039 564 LINE",
"1287 772 LINE",
"1477 772 LINE",
"1477 1072 LINE",
"801 1072 LINE",
"801 772 LINE",
"955 772 LINE",
"670 532 LINE",
"660 468 LINE",
"990 0 LINE"
);
},
{
closed = 1;
nodes = (
"710 0 LINE",
"710 1072 LINE",
"75 1072 LINE",
"75 772 LINE",
"230 772 LINE",
"230 300 LINE",
"75 300 LINE",
"75 0 LINE"
);
}
);
width = 1524;
}
);
leftKerningGroup = n;
leftMetricsKey = n;
rightKerningGroup = k;
rightMetricsKey = k;
unicode = 0138;
},
{
color = 6;
glyphname = l;
layers = (
{
anchors = (
{
name = bottom;
position = "{427, 0}";
},
{
name = center;
position = "{427, 761}";
},
{
name = top;
position = "{427, 1540}";
},
{
name = topright;
position = "{767, 1560}";
}
);
layerId = "BC722C43-F174-4026-9892-4620CE50CA16";
paths = (
{
closed = 1;
nodes = (
"822 0 LINE",
"822 300 LINE",
"667 300 LINE",
"667 1560 LINE",
"32 1495 LINE",
"32 1222 LINE",
"187 1222 LINE",
"187 300 LINE",
"32 300 LINE",
"32 0 LINE"
);
}
);
width = 854;
}
);
leftKerningGroup = l;
rightKerningGroup = l;
unicode = 006C;
userData = {
com.typemytype.robofont.layerData = {
};
};
},
{
color = 6;
glyphname = ldot;
layers = (
{
layerId = "BC722C43-F174-4026-9892-4620CE50CA16";
paths = (
{
closed = 1;
nodes = (
"822 0 LINE",
"822 300 LINE",
"667 300 LINE",
"667 1560 LINE",
"32 1495 LINE",
"32 1222 LINE",
"187 1222 LINE",
"187 300 LINE",
"32 300 LINE",
"32 0 LINE"
);
},
{
closed = 1;
nodes = (
"1094 585 OFFCURVE",
"1183 654 OFFCURVE",
"1183 765 CURVE SMOOTH",
"1183 873 OFFCURVE",
"1099 942 OFFCURVE",
"980 942 CURVE SMOOTH",
"862 942 OFFCURVE",
"777 873 OFFCURVE",
"777 765 CURVE SMOOTH",
"777 654 OFFCURVE",
"867 585 OFFCURVE",
"980 585 CURVE SMOOTH"
);
}
);
width = 1106;
}
);
leftKerningGroup = l;
leftMetricsKey = l;
unicode = 0140;
},
{
color = 10;
glyphname = lslash;
layers = (
{
background = {
paths = (
{
closed = 1;
nodes = (
"838 0 LINE",
"838 305 LINE",
"760 305 LINE",
"760 861 LINE",
"970 974 LINE",
"871 1153 LINE",
"760 1093 LINE",
"760 1630 LINE",
"181 1630 LINE",
"181 1317 LINE",
"265 1317 LINE",
"265 828 LINE",
"59 718 LINE",
"159 540 LINE",
"265 596 LINE",
"265 305 LINE",
"191 305 LINE",
"191 0 LINE"
);
}
);
};
components = (
{
name = l;
},
{
name = slashshortcomb;
transform = "{1, 0, 0, 1, -88, -85}";
}
);
layerId = "BC722C43-F174-4026-9892-4620CE50CA16";
width = 854;
}
);
leftKerningGroup = l;
rightKerningGroup = l;
unicode = 0142;
},
{
color = 6;
glyphname = m;
layers = (
{
anchors = (
{
name = bottom;
position = "{1145, 0}";
},
{
name = top;
position = "{1145, 1072}";
}
);
layerId = "BC722C43-F174-4026-9892-4620CE50CA16";
paths = (
{
closed = 1;
nodes = (
"790 0 LINE",
"790 300 LINE",
"700 300 LINE",
"700 867 LINE",
"690 912 LINE",
"690 1091 LINE",
"75 1032 LINE",
"75 759 LINE",
"220 759 LINE",
"220 300 LINE",
"75 300 LINE",
"75 0 LINE"
);
},
{
closed = 1;
nodes = (
"1475 0 LINE",
"1475 300 LINE",
"1385 300 LINE",
"1385 914 LINE",
"1347 914 LINE",
"1296 1032 OFFCURVE",
"1196 1091 OFFCURVE",
"1040 1091 CURVE SMOOTH",
"896 1091 OFFCURVE",
"762 1040 OFFCURVE",
"680 949 CURVE",
"680 721 LINE",
"700 721 LINE",
"730 766 OFFCURVE",
"779 791 OFFCURVE",
"819 791 CURVE SMOOTH",
"868 791 OFFCURVE",
"905 759 OFFCURVE",
"905 684 CURVE SMOOTH",
"905 0 LINE"
);
},
{
closed = 1;
nodes = (
"2210 0 LINE",
"2210 300 LINE",
"2070 300 LINE",
"2070 684 LINE SMOOTH",
"2070 957 OFFCURVE",
"1961 1091 OFFCURVE",
"1705 1091 CURVE SMOOTH",
"1559 1091 OFFCURVE",
"1406 1027 OFFCURVE",
"1301 914 CURVE",
"1365 721 LINE",
"1385 721 LINE",
"1415 766 OFFCURVE",
"1464 791 OFFCURVE",
"1504 791 CURVE SMOOTH",
"1553 791 OFFCURVE",
"1590 759 OFFCURVE",
"1590 684 CURVE SMOOTH",
"1590 0 LINE"
);
}
);
width = 2257;
}
);
leftKerningGroup = n;
rightKerningGroup = n;
unicode = 006D;
userData = {
com.typemytype.robofont.layerData = {
};
};
},
{
color = 6;
glyphname = n;
layers = (
{
anchors = (
{
name = bottom;
position = "{805, 0}";
},
{
name = top;
position = "{805, 1072}";
}
);
layerId = "BC722C43-F174-4026-9892-4620CE50CA16";
paths = (
{
closed = 1;
nodes = (
"790 0 LINE",
"790 300 LINE",
"700 300 LINE",
"700 867 LINE",
"690 912 LINE",
"690 1091 LINE",
"75 1032 LINE",
"75 759 LINE",
"220 759 LINE",
"220 300 LINE",
"75 300 LINE",
"75 0 LINE"
);
},
{
closed = 1;
nodes = (
"1535 0 LINE",
"1535 300 LINE",
"1395 300 LINE",
"1395 680 LINE SMOOTH",
"1395 955 OFFCURVE",
"1286 1091 OFFCURVE",
"1045 1091 CURVE SMOOTH",
"896 1091 OFFCURVE",
"762 1037 OFFCURVE",
"680 944 CURVE",
"680 716 LINE",
"700 716 LINE",
"730 763 OFFCURVE",
"779 791 OFFCURVE",
"824 791 CURVE SMOOTH",
"878 791 OFFCURVE",
"915 757 OFFCURVE",
"915 680 CURVE SMOOTH",
"915 0 LINE"
);
}
);
width = 1582;
}
);
leftKerningGroup = n;
rightKerningGroup = n;
unicode = 006E;
userData = {
com.typemytype.robofont.guides = (
);
com.typemytype.robofont.layerData = {
};
};
},
{
color = 6;
glyphname = eng;
layers = (
{
layerId = "BC722C43-F174-4026-9892-4620CE50CA16";
paths = (
{
closed = 1;
nodes = (
"1221 -408 OFFCURVE",
"1395 -270 OFFCURVE",
"1395 101 CURVE SMOOTH",
"1395 680 LINE SMOOTH",
"1395 955 OFFCURVE",
"1286 1091 OFFCURVE",
"1045 1091 CURVE SMOOTH",
"896 1091 OFFCURVE",
"762 1037 OFFCURVE",
"680 944 CURVE",
"680 716 LINE",
"700 716 LINE",
"730 763 OFFCURVE",
"779 791 OFFCURVE",
"824 791 CURVE SMOOTH",
"878 791 OFFCURVE",
"915 757 OFFCURVE",
"915 680 CURVE SMOOTH",
"915 40 LINE SMOOTH",
"915 -73 OFFCURVE",
"877 -108 OFFCURVE",
"755 -108 CURVE",
"755 -408 LINE"
);
},
{
closed = 1;
nodes = (
"790 0 LINE",
"790 300 LINE",
"700 300 LINE",
"700 867 LINE",
"690 912 LINE",
"690 1091 LINE",
"75 1032 LINE",
"75 759 LINE",
"220 759 LINE",
"220 300 LINE",
"75 300 LINE",
"75 0 LINE"
);
}
);
width = 1525;
}
);
leftKerningGroup = n;
leftMetricsKey = n;
rightKerningGroup = j;
rightMetricsKey = jdotless;
unicode = 014B;
},
{
color = 6;
glyphname = o;
layers = (
{
anchors = (
{
name = bottom;
position = "{661, 0}";
},
{
name = center;
position = "{661, 536}";
},
{
name = ogonek;
position = "{824, 0}";
},
{
name = top;
position = "{661, 1072}";
},
{
name = topright;
position = "{1302, 1072}";
}
);
layerId = "BC722C43-F174-4026-9892-4620CE50CA16";
paths = (
{
closed = 1;
nodes = (
"1037 -18 OFFCURVE",
"1269 193 OFFCURVE",
"1269 535 CURVE SMOOTH",
"1269 878 OFFCURVE",
"1037 1090 OFFCURVE",
"661 1090 CURVE SMOOTH",
"285 1090 OFFCURVE",
"53 878 OFFCURVE",
"53 535 CURVE SMOOTH",
"53 193 OFFCURVE",
"285 -18 OFFCURVE",
"661 -18 CURVE SMOOTH"
);
},
{
closed = 1;
nodes = (
"573 273 OFFCURVE",
"526 365 OFFCURVE",
"526 536 CURVE SMOOTH",
"526 707 OFFCURVE",
"573 799 OFFCURVE",
"661 799 CURVE SMOOTH",
"749 799 OFFCURVE",
"796 707 OFFCURVE",
"796 536 CURVE SMOOTH",
"796 365 OFFCURVE",
"749 273 OFFCURVE",
"661 273 CURVE SMOOTH"
);
}
);
width = 1322;
}
);
leftKerningGroup = o;
rightKerningGroup = o;
rightMetricsKey = "=|";
unicode = 006F;
},
{
color = 6;
glyphname = ohorn;
layers = (
{
anchors = (
{
name = bottom;
position = "{661, 0}";
},
{
name = top;
position = "{661, 1072}";
}
);
layerId = "BC722C43-F174-4026-9892-4620CE50CA16";
paths = (
{
closed = 1;
nodes = (
"1037 -18 OFFCURVE",
"1269 193 OFFCURVE",
"1269 535 CURVE SMOOTH",
"1269 726 OFFCURVE",
"1195 881 OFFCURVE",
"1072 972 CURVE",
"1003 834 LINE",
"1225 834 OFFCURVE",
"1367 955 OFFCURVE",
"1367 1177 CURVE SMOOTH",
"1367 1286 LINE",
"1027 1286 LINE",
"1027 1177 LINE SMOOTH",
"1027 1092 OFFCURVE",
"994 1058 OFFCURVE",
"933 1058 CURVE SMOOTH",
"852 1058 OFFCURVE",
"792 1091 OFFCURVE",
"661 1091 CURVE SMOOTH",
"285 1091 OFFCURVE",
"53 878 OFFCURVE",
"53 535 CURVE SMOOTH",
"53 193 OFFCURVE",
"285 -18 OFFCURVE",
"661 -18 CURVE SMOOTH"
);
},
{
closed = 1;
nodes = (
"573 273 OFFCURVE",
"526 365 OFFCURVE",
"526 536 CURVE SMOOTH",
"526 707 OFFCURVE",
"573 799 OFFCURVE",
"661 799 CURVE SMOOTH",
"749 799 OFFCURVE",
"796 707 OFFCURVE",
"796 536 CURVE SMOOTH",
"796 365 OFFCURVE",
"749 273 OFFCURVE",
"661 273 CURVE SMOOTH"
);
}
);
width = 1322;
}
);
leftKerningGroup = o;
leftMetricsKey = o;
widthMetricsKey = o;
rightKerningGroup = ohorn;
unicode = 01A1;
},
{
color = 6;
glyphname = oogonek;
layers = (
{
anchors = (
{
name = center;
position = "{661, 536}";
},
{
name = top;
position = "{661, 1072}";
}
);
layerId = "BC722C43-F174-4026-9892-4620CE50CA16";
paths = (
{
closed = 1;
nodes = (
"783 -468 OFFCURVE",
"826 -464 OFFCURVE",
"880 -451 CURVE",
"880 -256 LINE",
"849 -262 OFFCURVE",
"818 -265 OFFCURVE",
"787 -265 CURVE SMOOTH",
"693 -265 OFFCURVE",
"653 -220 OFFCURVE",
"653 -151 CURVE SMOOTH",
"653 -68 OFFCURVE",
"714 -28 OFFCURVE",
"832 -2 CURVE SMOOTH",
"1106 54 OFFCURVE",
"1269 248 OFFCURVE",
"1269 535 CURVE SMOOTH",
"1269 878 OFFCURVE",
"1037 1090 OFFCURVE",
"661 1090 CURVE SMOOTH",
"285 1090 OFFCURVE",
"53 878 OFFCURVE",
"53 535 CURVE SMOOTH",
"53 193 OFFCURVE",
"285 -18 OFFCURVE",
"661 -18 CURVE",
"772 50 LINE",
"515 20 OFFCURVE",
"421 -97 OFFCURVE",
"421 -226 CURVE SMOOTH",
"421 -387 OFFCURVE",
"563 -468 OFFCURVE",
"739 -468 CURVE SMOOTH"
);
},
{
closed = 1;
nodes = (
"573 273 OFFCURVE",
"526 365 OFFCURVE",
"526 536 CURVE SMOOTH",
"526 707 OFFCURVE",
"573 799 OFFCURVE",
"661 799 CURVE SMOOTH",
"749 799 OFFCURVE",
"796 707 OFFCURVE",
"796 536 CURVE SMOOTH",
"796 365 OFFCURVE",
"749 273 OFFCURVE",
"661 273 CURVE SMOOTH"
);
}
);
width = 1322;
}
);
leftKerningGroup = o;
leftMetricsKey = o;
widthMetricsKey = o;
rightKerningGroup = o;
unicode = 01EB;
},
{
color = 6;
glyphname = oe;
layers = (
{
anchors = (
{
name = bottom;
position = "{1042, 0}";
},
{
name = top;
position = "{1042, 1072}";
}
);
layerId = "BC722C43-F174-4026-9892-4620CE50CA16";
paths = (
{
closed = 1;
nodes = (
"967 -18 OFFCURVE",
"1189 183 OFFCURVE",
"1189 535 CURVE SMOOTH",
"1189 888 OFFCURVE",
"967 1090 OFFCURVE",
"651 1090 CURVE SMOOTH",
"285 1090 OFFCURVE",
"53 878 OFFCURVE",
"53 535 CURVE SMOOTH",
"53 193 OFFCURVE",
"285 -18 OFFCURVE",
"651 -18 CURVE SMOOTH"
);
},
{
closed = 1;
nodes = (
"573 273 OFFCURVE",
"526 365 OFFCURVE",
"526 536 CURVE SMOOTH",
"526 707 OFFCURVE",
"573 799 OFFCURVE",
"661 799 CURVE SMOOTH",
"749 799 OFFCURVE",
"796 707 OFFCURVE",
"796 536 CURVE SMOOTH",
"796 365 OFFCURVE",
"749 273 OFFCURVE",
"661 273 CURVE SMOOTH"
);
},
{
closed = 1;
nodes = (
"1603 -18 OFFCURVE",
"1797 30 OFFCURVE",
"1894 97 CURVE",
"1894 384 LINE",
"1867 396 LINE",
"1789 331 OFFCURVE",
"1672 282 OFFCURVE",
"1550 282 CURVE SMOOTH",
"1386 282 OFFCURVE",
"1269 352 OFFCURVE",
"1269 527 CURVE",
"1269 647 LINE",
"1274 771 OFFCURVE",
"1318 844 OFFCURVE",
"1408 844 CURVE SMOOTH",
"1498 844 OFFCURVE",
"1542 771 OFFCURVE",
"1547 647 CURVE",
"1238 647 LINE",
"1238 473 LINE",
"1916 473 LINE",
"1921 507 OFFCURVE",
"1926 550 OFFCURVE",
"1926 596 CURVE SMOOTH",
"1926 888 OFFCURVE",
"1724 1090 OFFCURVE",
"1432 1090 CURVE SMOOTH",
"1102 1090 OFFCURVE",
"876 890 OFFCURVE",
"876 546 CURVE SMOOTH",
"876 183 OFFCURVE",
"1094 -18 OFFCURVE",
"1460 -18 CURVE SMOOTH"
);
}
);
width = 1979;
}
);
leftKerningGroup = o;
leftMetricsKey = o;
rightKerningGroup = e;
rightMetricsKey = e;
unicode = 0153;
},
{
color = 6;
glyphname = p;
layers = (
{
layerId = "BC722C43-F174-4026-9892-4620CE50CA16";
paths = (
{
closed = 1;
nodes = (
"812 -398 LINE",
"812 -98 LINE",
"667 -98 LINE",
"667 108 LINE",
"767 27 OFFCURVE",
"884 -17 OFFCURVE",
"993 -17 CURVE SMOOTH",
"1259 -17 OFFCURVE",
"1435 200 OFFCURVE",
"1435 535 CURVE SMOOTH",
"1435 870 OFFCURVE",
"1259 1091 OFFCURVE",
"968 1091 CURVE SMOOTH",
"855 1091 OFFCURVE",
"740 1040 OFFCURVE",
"657 961 CURVE",
"657 1091 LINE",
"42 1032 LINE",
"42 759 LINE",
"187 759 LINE",
"187 -98 LINE",
"42 -98 LINE",
"42 -398 LINE"
);
},
{
closed = 1;
nodes = (
"763 282 OFFCURVE",
"703 302 OFFCURVE",
"667 328 CURVE",
"667 749 LINE",
"703 775 OFFCURVE",
"763 792 OFFCURVE",
"813 792 CURVE SMOOTH",
"907 792 OFFCURVE",
"962 696 OFFCURVE",
"962 536 CURVE SMOOTH",
"962 376 OFFCURVE",
"907 282 OFFCURVE",
"813 282 CURVE SMOOTH"
);
}
);
width = 1493;
}
);
leftKerningGroup = p;
rightKerningGroup = o;
rightMetricsKey = "=o+5";
unicode = 0070;
userData = {
com.typemytype.robofont.layerData = {
};
};
},
{
color = 6;
glyphname = thorn;
layers = (
{
layerId = "BC722C43-F174-4026-9892-4620CE50CA16";
paths = (
{
closed = 1;
nodes = (
"812 -398 LINE",
"812 -98 LINE",
"667 -98 LINE",
"667 108 LINE",
"767 27 OFFCURVE",
"884 -17 OFFCURVE",
"993 -17 CURVE SMOOTH",
"1259 -17 OFFCURVE",
"1435 200 OFFCURVE",
"1435 535 CURVE SMOOTH",
"1435 870 OFFCURVE",
"1259 1091 OFFCURVE",
"968 1091 CURVE SMOOTH",
"855 1091 OFFCURVE",
"740 1040 OFFCURVE",
"657 961 CURVE",
"657 1560 LINE",
"42 1503 LINE",
"42 1230 LINE",
"187 1230 LINE",
"187 -98 LINE",
"42 -98 LINE",
"42 -398 LINE"
);
},
{
closed = 1;
nodes = (
"763 282 OFFCURVE",
"703 302 OFFCURVE",
"667 328 CURVE",
"667 749 LINE",
"703 775 OFFCURVE",
"763 792 OFFCURVE",
"813 792 CURVE SMOOTH",
"907 792 OFFCURVE",
"962 696 OFFCURVE",
"962 536 CURVE SMOOTH",
"962 376 OFFCURVE",
"907 282 OFFCURVE",
"813 282 CURVE SMOOTH"
);
}
);
width = 1493;
}
);
leftKerningGroup = l;
widthMetricsKey = p;
rightKerningGroup = o;
rightMetricsKey = p;
unicode = 00FE;
},
{
color = 6;
glyphname = q;
layers = (
{
layerId = "BC722C43-F174-4026-9892-4620CE50CA16";
paths = (
{
closed = 1;
nodes = (
"1451 -398 LINE",
"1451 -98 LINE",
"1306 -98 LINE",
"1306 1072 LINE",
"928 1072 LINE",
"888 985 LINE",
"789 1054 OFFCURVE",
"674 1090 OFFCURVE",
"565 1090 CURVE SMOOTH",
"250 1090 OFFCURVE",
"58 875 OFFCURVE",
"58 534 CURVE SMOOTH",
"58 199 OFFCURVE",
"234 -18 OFFCURVE",
"500 -18 CURVE SMOOTH",
"609 -18 OFFCURVE",
"726 26 OFFCURVE",
"826 107 CURVE",
"826 -98 LINE",
"681 -98 LINE",
"681 -398 LINE"
);
},
{
closed = 1;
nodes = (
"586 281 OFFCURVE",
"531 375 OFFCURVE",
"531 535 CURVE SMOOTH",
"531 695 OFFCURVE",
"586 791 OFFCURVE",
"690 791 CURVE SMOOTH",
"740 791 OFFCURVE",
"790 776 OFFCURVE",
"826 752 CURVE",
"826 327 LINE",
"790 301 OFFCURVE",
"730 281 OFFCURVE",
"680 281 CURVE SMOOTH"
);
}
);
width = 1451;
}
);
leftKerningGroup = o;
rightKerningGroup = q;
unicode = 0071;
},
{
color = 6;
glyphname = r;
layers = (
{
anchors = (
{
name = bottom;
position = "{460, 0}";
},
{
name = top;
position = "{616, 1072}";
}
);
layerId = "BC722C43-F174-4026-9892-4620CE50CA16";
paths = (
{
closed = 1;
nodes = (
"930 0 LINE",
"930 300 LINE",
"700 300 LINE",
"700 631 LINE",
"736 671 OFFCURVE",
"820 696 OFFCURVE",
"887 696 CURVE SMOOTH",
"936 696 OFFCURVE",
"991 686 OFFCURVE",
"1052 665 CURVE",
"1052 1095 LINE",
"925 1095 OFFCURVE",
"769 1031 OFFCURVE",
"690 886 CURVE",
"690 1091 LINE",
"75 1032 LINE",
"75 759 LINE",
"220 759 LINE",
"220 300 LINE",
"75 300 LINE",
"75 0 LINE"
);
}
);
width = 1092;
}
);
leftKerningGroup = n;
rightKerningGroup = r;
unicode = 0072;
userData = {
com.typemytype.robofont.layerData = {
};
};
},
{
color = 6;
glyphname = s;
layers = (
{
anchors = (
{
name = bottom;
position = "{584, 0}";
},
{
name = cedilla;
position = "{618, 0}";
},
{
name = top;
position = "{584, 1072}";
}
);
layerId = "BC722C43-F174-4026-9892-4620CE50CA16";
paths = (
{
closed = 1;
nodes = (
"967 -18 OFFCURVE",
"1126 118 OFFCURVE",
"1126 330 CURVE SMOOTH",
"1126 745 OFFCURVE",
"568 646 OFFCURVE",
"568 815 CURVE SMOOTH",
"568 852 OFFCURVE",
"598 875 OFFCURVE",
"666 875 CURVE SMOOTH",
"741 875 OFFCURVE",
"810 829 OFFCURVE",
"845 728 CURVE",
"1101 728 LINE",
"1101 1072 LINE",
"881 1072 LINE",
"857 1005 LINE",
"760 1065 OFFCURVE",
"650 1091 OFFCURVE",
"519 1091 CURVE SMOOTH",
"214 1091 OFFCURVE",
"67 940 OFFCURVE",
"67 755 CURVE SMOOTH",
"67 341 OFFCURVE",
"615 465 OFFCURVE",
"615 274 CURVE SMOOTH",
"615 233 OFFCURVE",
"585 208 OFFCURVE",
"527 208 CURVE SMOOTH",
"437 208 OFFCURVE",
"354 272 OFFCURVE",
"323 376 CURVE",
"67 376 LINE",
"67 0 LINE",
"287 0 LINE",
"318 75 LINE",
"417 15 OFFCURVE",
"550 -18 OFFCURVE",
"686 -18 CURVE SMOOTH"
);
}
);
width = 1173;
}
);
leftKerningGroup = s;
rightKerningGroup = s;
unicode = 0073;
userData = {
com.typemytype.robofont.layerData = {
};
};
},
{
color = 6;
glyphname = germandbls;
layers = (
{
layerId = "BC722C43-F174-4026-9892-4620CE50CA16";
paths = (
{
closed = 1;
nodes = (
"757 0 LINE",
"757 300 LINE",
"667 300 LINE",
"667 1051 LINE SMOOTH",
"667 1200 OFFCURVE",
"734 1274 OFFCURVE",
"849 1274 CURVE SMOOTH",
"948 1274 OFFCURVE",
"1010 1217 OFFCURVE",
"1010 1122 CURVE SMOOTH",
"1010 1015 OFFCURVE",
"950 953 OFFCURVE",
"834 953 CURVE SMOOTH",
"787 953 LINE",
"787 653 LINE",
"902 653 LINE SMOOTH",
"1026 653 OFFCURVE",
"1105 597 OFFCURVE",
"1105 477 CURVE SMOOTH",
"1105 357 OFFCURVE",
"1026 300 OFFCURVE",
"929 300 CURVE SMOOTH",
"897 300 LINE",
"897 0 LINE",
"982 0 LINE SMOOTH",
"1356 0 OFFCURVE",
"1578 162 OFFCURVE",
"1578 474 CURVE SMOOTH",
"1578 773 OFFCURVE",
"1349 914 OFFCURVE",
"971 912 CURVE",
"997 834 LINE",
"1222 834 OFFCURVE",
"1352 957 OFFCURVE",
"1352 1160 CURVE SMOOTH",
"1352 1391 OFFCURVE",
"1156 1558 OFFCURVE",
"814 1558 CURVE SMOOTH",
"457 1558 OFFCURVE",
"187 1364 OFFCURVE",
"187 972 CURVE SMOOTH",
"187 310 LINE",
"42 310 LINE",
"42 0 LINE"
);
}
);
width = 1625;
}
);
leftKerningGroup = l;
rightKerningGroup = o;
unicode = 00DF;
},
{
color = 6;
glyphname = t;
layers = (
{
anchors = (
{
name = bottom;
position = "{531, 0}";
},
{
name = cedilla;
position = "{543, 0}";
},
{
name = center;
position = "{417, 576}";
},
{
name = top;
position = "{417, 1345}";
},
{
name = topright;
position = "{757, 1769}";
}
);
layerId = "BC722C43-F174-4026-9892-4620CE50CA16";
paths = (
{
closed = 1;
nodes = (
"759 -18 OFFCURVE",
"833 -8 OFFCURVE",
"909 10 CURVE",
"909 296 LINE",
"882 308 LINE",
"853 299 OFFCURVE",
"822 288 OFFCURVE",
"776 288 CURVE SMOOTH",
"696 288 OFFCURVE",
"657 335 OFFCURVE",
"657 415 CURVE SMOOTH",
"657 772 LINE",
"899 772 LINE",
"899 1072 LINE",
"657 1072 LINE",
"657 1406 LINE",
"177 1301 LINE",
"177 1061 LINE",
"12 1045 LINE",
"12 772 LINE",
"177 772 LINE",
"177 405 LINE SMOOTH",
"177 130 OFFCURVE",
"356 -18 OFFCURVE",
"672 -18 CURVE SMOOTH"
);
}
);
width = 947;
}
);
leftKerningGroup = u;
rightKerningGroup = t;
unicode = 0074;
userData = {
com.typemytype.robofont.layerData = {
};
};
},
{
color = 6;
glyphname = u;
layers = (
{
anchors = (
{
name = bottom;
position = "{768, 0}";
},
{
name = ogonek;
position = "{1394, 0}";
},
{
name = top;
position = "{768, 1072}";
}
);
layerId = "BC722C43-F174-4026-9892-4620CE50CA16";
paths = (
{
closed = 1;
nodes = (
"695 -19 OFFCURVE",
"804 31 OFFCURVE",
"884 117 CURVE",
"884 0 LINE",
"1494 0 LINE",
"1494 300 LINE",
"1354 300 LINE",
"1354 1091 LINE",
"784 1032 LINE",
"784 759 LINE",
"874 759 LINE",
"874 358 LINE",
"849 311 OFFCURVE",
"803 281 OFFCURVE",
"758 281 CURVE SMOOTH",
"702 281 OFFCURVE",
"662 315 OFFCURVE",
"662 396 CURVE SMOOTH",
"662 1091 LINE",
"42 1032 LINE",
"42 759 LINE",
"182 759 LINE",
"182 397 LINE SMOOTH",
"182 121 OFFCURVE",
"301 -19 OFFCURVE",
"552 -19 CURVE SMOOTH"
);
}
);
width = 1541;
}
);
leftKerningGroup = u;
rightKerningGroup = u;
unicode = 0075;
userData = {
com.typemytype.robofont.layerData = {
};
};
},
{
color = 6;
glyphname = uhorn;
layers = (
{
anchors = (
{
name = bottom;
position = "{768, 0}";
},
{
name = ogonek;
position = "{1319, 0}";
},
{
name = top;
position = "{768, 1072}";
}
);
layerId = "BC722C43-F174-4026-9892-4620CE50CA16";
paths = (
{
closed = 1;
nodes = (
"695 -19 OFFCURVE",
"804 31 OFFCURVE",
"884 117 CURVE",
"884 0 LINE",
"1499 0 LINE",
"1499 300 LINE",
"1354 300 LINE",
"1354 872 LINE",
"1464 923 OFFCURVE",
"1529 1027 OFFCURVE",
"1529 1177 CURVE SMOOTH",
"1529 1286 LINE",
"1189 1286 LINE",
"1189 1184 LINE SMOOTH",
"1189 1099 OFFCURVE",
"1155 1070 OFFCURVE",
"1094 1064 CURVE SMOOTH",
"784 1032 LINE",
"784 759 LINE",
"874 759 LINE",
"874 358 LINE",
"849 311 OFFCURVE",
"803 281 OFFCURVE",
"758 281 CURVE SMOOTH",
"702 281 OFFCURVE",
"662 315 OFFCURVE",
"662 396 CURVE SMOOTH",
"662 1091 LINE",
"42 1032 LINE",
"42 759 LINE",
"182 759 LINE",
"182 397 LINE SMOOTH",
"182 121 OFFCURVE",
"301 -19 OFFCURVE",
"552 -19 CURVE SMOOTH"
);
}
);
width = 1541;
}
);
leftKerningGroup = u;
leftMetricsKey = u;
rightKerningGroup = uhorn;
unicode = 01B0;
},
{
color = 6;
glyphname = v;
layers = (
{
layerId = "BC722C43-F174-4026-9892-4620CE50CA16";
paths = (
{
closed = 1;
nodes = (
"980 0 LINE",
"1289 772 LINE",
"1384 772 LINE",
"1384 1072 LINE",
"877 1072 LINE",
"877 772 LINE",
"997 772 LINE",
"756 153 LINE",
"852 153 LINE",
"632 772 LINE",
"752 772 LINE",
"752 1072 LINE",
"29 1072 LINE",
"29 772 LINE",
"124 772 LINE",
"433 0 LINE"
);
}
);
width = 1413;
}
);
leftKerningGroup = v;
rightKerningGroup = v;
unicode = 0076;
userData = {
com.typemytype.robofont.layerData = {
};
};
},
{
color = 6;
glyphname = w;
layers = (
{
anchors = (
{
name = bottom;
position = "{1058, 0}";
},
{
name = top;
position = "{1156, 1072}";
}
);
layerId = "BC722C43-F174-4026-9892-4620CE50CA16";
paths = (
{
closed = 1;
nodes = (
"921 0 LINE",
"1129 615 LINE",
"987 615 LINE",
"1195 0 LINE",
"1710 0 LINE",
"1979 772 LINE",
"2074 772 LINE",
"2074 1072 LINE",
"1567 1072 LINE",
"1567 772 LINE",
"1687 772 LINE",
"1486 153 LINE",
"1582 153 LINE",
"1315 1072 LINE",
"997 1072 LINE",
"699 153 LINE",
"825 153 LINE",
"645 772 LINE",
"765 772 LINE",
"765 1072 LINE",
"42 1072 LINE",
"42 772 LINE",
"137 772 LINE",
"406 0 LINE"
);
}
);
width = 2116;
}
);
leftKerningGroup = v;
rightKerningGroup = v;
unicode = 0077;
},
{
color = 6;
glyphname = x;
layers = (
{
layerId = "BC722C43-F174-4026-9892-4620CE50CA16";
paths = (
{
closed = 1;
nodes = (
"376 0 LINE",
"540 339 LINE",
"885 449 LINE",
"1075 772 LINE",
"1210 772 LINE",
"1210 1072 LINE",
"900 1072 LINE",
"736 733 LINE",
"380 623 LINE",
"190 300 LINE",
"45 300 LINE",
"45 0 LINE"
);
},
{
closed = 1;
nodes = (
"1231 0 LINE",
"1231 300 LINE",
"1096 300 LINE",
"598 1072 LINE",
"66 1072 LINE",
"66 772 LINE",
"196 772 LINE",
"689 0 LINE"
);
}
);
width = 1276;
}
);
leftKerningGroup = x;
rightKerningGroup = x;
unicode = 0078;
},
{
color = 6;
glyphname = y;
layers = (
{
anchors = (
{
name = bottom;
position = "{1240, 44}";
},
{
name = top;
position = "{728, 1072}";
}
);
layerId = "BC722C43-F174-4026-9892-4620CE50CA16";
paths = (
{
closed = 1;
nodes = (
"981 -398 LINE",
"981 -98 LINE",
"836 -98 LINE",
"1269 772 LINE",
"1364 772 LINE",
"1364 1072 LINE",
"857 1072 LINE",
"857 772 LINE",
"977 772 LINE",
"544 -98 LINE",
"297 -98 LINE",
"297 -398 LINE"
);
},
{
closed = 1;
nodes = (
"870 304 LINE",
"612 772 LINE",
"732 772 LINE",
"732 1072 LINE",
"9 1072 LINE",
"9 772 LINE",
"104 772 LINE",
"603 -66 LINE"
);
}
);
width = 1413;
}
);
leftKerningGroup = v;
rightKerningGroup = v;
unicode = 0079;
},
{
color = 6;
glyphname = z;
layers = (
{
anchors = (
{
name = bottom;
position = "{633, 0}";
},
{
name = top;
position = "{633, 1072}";
}
);
layerId = "BC722C43-F174-4026-9892-4620CE50CA16";
paths = (
{
closed = 1;
nodes = (
"1180 0 LINE",
"1180 440 LINE",
"960 440 LINE",
"940 235 LINE",
"690 235 LINE",
"1160 812 LINE",
"1160 1072 LINE",
"85 1072 LINE",
"85 672 LINE",
"305 672 LINE",
"325 837 LINE",
"565 837 LINE",
"85 260 LINE",
"85 0 LINE"
);
}
);
width = 1245;
}
);
rightKerningGroup = z;
unicode = 007A;
},
{
color = 6;
glyphname = a.ss01;
layers = (
{
anchors = (
{
name = bottom;
position = "{763, 0}";
},
{
name = ogonek;
position = "{1431, 0}";
},
{
name = top;
position = "{763, 1072}";
}
);
layerId = "BC722C43-F174-4026-9892-4620CE50CA16";
paths = (
{
closed = 1;
nodes = (
"609 -18 OFFCURVE",
"736 31 OFFCURVE",
"836 112 CURVE",
"836 0 LINE",
"1451 0 LINE",
"1451 300 LINE",
"1306 300 LINE",
"1306 1072 LINE",
"928 1072 LINE",
"888 985 LINE",
"789 1054 OFFCURVE",
"674 1090 OFFCURVE",
"565 1090 CURVE SMOOTH",
"250 1090 OFFCURVE",
"58 875 OFFCURVE",
"58 534 CURVE SMOOTH",
"58 199 OFFCURVE",
"234 -18 OFFCURVE",
"500 -18 CURVE SMOOTH"
);
},
{
closed = 1;
nodes = (
"586 281 OFFCURVE",
"531 375 OFFCURVE",
"531 535 CURVE SMOOTH",
"531 695 OFFCURVE",
"586 791 OFFCURVE",
"690 791 CURVE SMOOTH",
"740 791 OFFCURVE",
"790 776 OFFCURVE",
"826 752 CURVE",
"826 324 LINE",
"790 298 OFFCURVE",
"730 281 OFFCURVE",
"680 281 CURVE SMOOTH"
);
}
);
width = 1526;
}
);
leftKerningGroup = o;
leftMetricsKey = "=o+5";
rightKerningGroup = u;
},
{
color = 6;
glyphname = ae.ss01;
layers = (
{
anchors = (
{
name = bottom;
position = "{976, 0}";
},
{
name = top;
position = "{976, 1072}";
}
);
guideLines = (
{
angle = 90;
position = "{1012, 555}";
}
);
layerId = "BC722C43-F174-4026-9892-4620CE50CA16";
paths = (
{
closed = 1;
nodes = (
"929 -18 OFFCURVE",
"1132 146 OFFCURVE",
"1132 400 CURVE SMOOTH",
"1132 669 LINE SMOOTH",
"1132 964 OFFCURVE",
"926 1090 OFFCURVE",
"597 1090 CURVE SMOOTH",
"437 1090 OFFCURVE",
"270 1061 OFFCURVE",
"130 1007 CURVE",
"130 715 LINE",
"157 703 LINE",
"255 758 OFFCURVE",
"382 790 OFFCURVE",
"499 790 CURVE SMOOTH",
"661 790 OFFCURVE",
"732 738 OFFCURVE",
"732 617 CURVE SMOOTH",
"732 595 LINE",
"649 620 OFFCURVE",
"572 630 OFFCURVE",
"484 630 CURVE SMOOTH",
"231 630 OFFCURVE",
"66 503 OFFCURVE",
"66 314 CURVE SMOOTH",
"66 116 OFFCURVE",
"234 -18 OFFCURVE",
"551 -18 CURVE SMOOTH"
);
},
{
closed = 1;
nodes = (
"561 228 OFFCURVE",
"514 271 OFFCURVE",
"514 344 CURVE SMOOTH",
"514 415 OFFCURVE",
"566 459 OFFCURVE",
"634 459 CURVE SMOOTH",
"663 459 OFFCURVE",
"698 454 OFFCURVE",
"732 440 CURVE",
"732 259 LINE",
"711 240 OFFCURVE",
"666 228 OFFCURVE",
"630 228 CURVE SMOOTH"
);
},
{
closed = 1;
nodes = (
"1556 -18 OFFCURVE",
"1730 30 OFFCURVE",
"1827 97 CURVE",
"1827 384 LINE",
"1800 396 LINE",
"1722 331 OFFCURVE",
"1605 282 OFFCURVE",
"1483 282 CURVE SMOOTH",
"1319 282 OFFCURVE",
"1202 352 OFFCURVE",
"1202 527 CURVE",
"1202 627 LINE",
"1207 761 OFFCURVE",
"1261 844 OFFCURVE",
"1359 844 CURVE SMOOTH",
"1419 844 OFFCURVE",
"1469 806 OFFCURVE",
"1469 741 CURVE SMOOTH",
"1469 686 OFFCURVE",
"1430 652 OFFCURVE",
"1361 645 CURVE SMOOTH",
"1174 627 LINE",
"1180 433 LINE",
"1557 469 LINE SMOOTH",
"1741 487 OFFCURVE",
"1842 568 OFFCURVE",
"1842 736 CURVE SMOOTH",
"1842 928 OFFCURVE",
"1661 1090 OFFCURVE",
"1335 1090 CURVE SMOOTH",
"1045 1090 OFFCURVE",
"809 880 OFFCURVE",
"809 546 CURVE SMOOTH",
"809 203 OFFCURVE",
"1057 -18 OFFCURVE",
"1403 -18 CURVE SMOOTH"
);
}
);
width = 1909;
}
);
leftKerningGroup = a_rom;
leftMetricsKey = a;
rightKerningGroup = e;
rightMetricsKey = e.ss01;
},
{
color = 6;
glyphname = e.ss01;
layers = (
{
anchors = (
{
name = bottom;
position = "{640, 0}";
},
{
name = ogonek;
position = "{864, 0}";
},
{
name = top;
position = "{640, 1072}";
}
);
layerId = "BC722C43-F174-4026-9892-4620CE50CA16";
paths = (
{
closed = 1;
nodes = (
"860 -18 OFFCURVE",
"1054 30 OFFCURVE",
"1151 97 CURVE",
"1151 384 LINE",
"1124 396 LINE",
"1046 331 OFFCURVE",
"929 282 OFFCURVE",
"807 282 CURVE SMOOTH",
"643 282 OFFCURVE",
"526 352 OFFCURVE",
"526 527 CURVE",
"526 627 LINE",
"531 761 OFFCURVE",
"585 844 OFFCURVE",
"683 844 CURVE SMOOTH",
"743 844 OFFCURVE",
"793 806 OFFCURVE",
"793 741 CURVE SMOOTH",
"793 686 OFFCURVE",
"754 651 OFFCURVE",
"685 645 CURVE SMOOTH",
"498 627 LINE",
"504 433 LINE",
"881 469 LINE SMOOTH",
"1065 487 OFFCURVE",
"1166 568 OFFCURVE",
"1166 736 CURVE SMOOTH",
"1166 928 OFFCURVE",
"985 1090 OFFCURVE",
"659 1090 CURVE SMOOTH",
"289 1090 OFFCURVE",
"53 880 OFFCURVE",
"53 546 CURVE SMOOTH",
"53 193 OFFCURVE",
"291 -18 OFFCURVE",
"687 -18 CURVE SMOOTH"
);
}
);
width = 1233;
}
);
leftKerningGroup = o;
leftMetricsKey = o;
rightKerningGroup = e;
userData = {
com.typemytype.robofont.layerData = {
};
};
},
{
color = 6;
glyphname = eogonek.ss01;
layers = (
{
layerId = "BC722C43-F174-4026-9892-4620CE50CA16";
paths = (
{
closed = 1;
nodes = (
"715 -18 OFFCURVE",
"744 -17 OFFCURVE",
"773 -14 CURVE",
"1151 97 LINE",
"1151 384 LINE",
"1124 396 LINE",
"1046 331 OFFCURVE",
"929 282 OFFCURVE",
"807 282 CURVE SMOOTH",
"643 282 OFFCURVE",
"526 352 OFFCURVE",
"526 527 CURVE",
"526 627 LINE",
"531 761 OFFCURVE",
"585 844 OFFCURVE",
"683 844 CURVE SMOOTH",
"743 844 OFFCURVE",
"793 806 OFFCURVE",
"793 741 CURVE SMOOTH",
"793 686 OFFCURVE",
"754 651 OFFCURVE",
"685 645 CURVE SMOOTH",
"498 627 LINE",
"504 433 LINE",
"881 469 LINE SMOOTH",
"1065 487 OFFCURVE",
"1166 568 OFFCURVE",
"1166 736 CURVE SMOOTH",
"1166 928 OFFCURVE",
"985 1090 OFFCURVE",
"659 1090 CURVE SMOOTH",
"289 1090 OFFCURVE",
"53 880 OFFCURVE",
"53 546 CURVE SMOOTH",
"53 193 OFFCURVE",
"291 -18 OFFCURVE",
"687 -18 CURVE SMOOTH"
);
},
{
closed = 1;
nodes = (
"954 -468 OFFCURVE",
"997 -464 OFFCURVE",
"1051 -451 CURVE",
"1051 -256 LINE",
"1020 -262 OFFCURVE",
"989 -265 OFFCURVE",
"958 -265 CURVE SMOOTH",
"864 -265 OFFCURVE",
"824 -220 OFFCURVE",
"824 -158 CURVE SMOOTH",
"824 -66 OFFCURVE",
"891 -8 OFFCURVE",
"1151 97 CURVE",
"751 0 LINE",
"638 -52 OFFCURVE",
"592 -136 OFFCURVE",
"592 -226 CURVE SMOOTH",
"592 -387 OFFCURVE",
"734 -468 OFFCURVE",
"910 -468 CURVE SMOOTH"
);
}
);
width = 1236;
}
);
leftKerningGroup = o;
leftMetricsKey = e;
widthMetricsKey = e;
rightKerningGroup = e;
userData = {
com.typemytype.robofont.layerData = {
};
};
},
{
color = 6;
glyphname = schwa.ss01;
layers = (
{
anchors = (
{
name = bottom;
position = "{654, 0}";
},
{
name = ogonek;
position = "{878, 0}";
},
{
name = top;
position = "{654, 1072}";
}
);
layerId = "BC722C43-F174-4026-9892-4620CE50CA16";
paths = (
{
closed = 1;
nodes = (
"373 1090 OFFCURVE",
"179 1042 OFFCURVE",
"82 975 CURVE",
"82 688 LINE",
"109 676 LINE",
"187 741 OFFCURVE",
"304 790 OFFCURVE",
"426 790 CURVE SMOOTH",
"590 790 OFFCURVE",
"707 720 OFFCURVE",
"707 545 CURVE",
"707 445 LINE",
"702 311 OFFCURVE",
"648 228 OFFCURVE",
"550 228 CURVE SMOOTH",
"490 228 OFFCURVE",
"440 266 OFFCURVE",
"440 331 CURVE SMOOTH",
"440 386 OFFCURVE",
"479 421 OFFCURVE",
"548 427 CURVE SMOOTH",
"735 445 LINE",
"729 639 LINE",
"352 603 LINE SMOOTH",
"168 585 OFFCURVE",
"67 504 OFFCURVE",
"67 336 CURVE SMOOTH",
"67 144 OFFCURVE",
"248 -18 OFFCURVE",
"574 -18 CURVE SMOOTH",
"944 -18 OFFCURVE",
"1180 192 OFFCURVE",
"1180 526 CURVE SMOOTH",
"1180 879 OFFCURVE",
"942 1090 OFFCURVE",
"546 1090 CURVE SMOOTH"
);
}
);
width = 1233;
}
);
leftKerningGroup = o;
rightKerningGroup = e;
rightMetricsKey = o;
userData = {
com.typemytype.robofont.layerData = {
};
};
},
{
color = 6;
glyphname = g.ss01;
layers = (
{
anchors = (
{
name = top;
position = "{767, 1072}";
}
);
layerId = "BC722C43-F174-4026-9892-4620CE50CA16";
paths = (
{
closed = 1;
nodes = (
"1025 -417 OFFCURVE",
"1306 -253 OFFCURVE",
"1306 176 CURVE SMOOTH",
"1306 772 LINE",
"1411 772 LINE",
"1411 1072 LINE",
"858 1072 LINE",
"818 957 LINE",
"746 1039 OFFCURVE",
"634 1090 OFFCURVE",
"525 1090 CURVE SMOOTH",
"234 1090 OFFCURVE",
"58 869 OFFCURVE",
"58 556 CURVE SMOOTH",
"58 239 OFFCURVE",
"244 18 OFFCURVE",
"535 18 CURVE SMOOTH",
"640 18 OFFCURVE",
"749 62 OFFCURVE",
"831 134 CURVE",
"831 92 LINE SMOOTH",
"831 -55 OFFCURVE",
"744 -115 OFFCURVE",
"569 -115 CURVE SMOOTH",
"437 -115 OFFCURVE",
"302 -91 OFFCURVE",
"195 -36 CURVE",
"168 -48 LINE",
"168 -340 LINE",
"299 -387 OFFCURVE",
"466 -414 OFFCURVE",
"645 -415 CURVE SMOOTH"
);
},
{
closed = 1;
nodes = (
"586 317 OFFCURVE",
"531 413 OFFCURVE",
"531 555 CURVE SMOOTH",
"531 697 OFFCURVE",
"586 791 OFFCURVE",
"680 791 CURVE SMOOTH",
"730 791 OFFCURVE",
"790 774 OFFCURVE",
"826 745 CURVE",
"826 360 LINE",
"790 334 OFFCURVE",
"730 317 OFFCURVE",
"680 317 CURVE SMOOTH"
);
}
);
width = 1483;
}
);
leftKerningGroup = o;
leftMetricsKey = "=o+5";
rightKerningGroup = g;
},
{
color = 6;
glyphname = oe.ss01;
layers = (
{
anchors = (
{
name = bottom;
position = "{1042, 0}";
},
{
name = top;
position = "{1042, 1072}";
}
);
layerId = "BC722C43-F174-4026-9892-4620CE50CA16";
paths = (
{
closed = 1;
nodes = (
"967 -18 OFFCURVE",
"1189 183 OFFCURVE",
"1189 535 CURVE SMOOTH",
"1189 888 OFFCURVE",
"967 1090 OFFCURVE",
"651 1090 CURVE SMOOTH",
"285 1090 OFFCURVE",
"53 878 OFFCURVE",
"53 535 CURVE SMOOTH",
"53 193 OFFCURVE",
"285 -18 OFFCURVE",
"651 -18 CURVE SMOOTH"
);
},
{
closed = 1;
nodes = (
"573 273 OFFCURVE",
"526 365 OFFCURVE",
"526 536 CURVE SMOOTH",
"526 707 OFFCURVE",
"573 799 OFFCURVE",
"661 799 CURVE SMOOTH",
"749 799 OFFCURVE",
"796 707 OFFCURVE",
"796 536 CURVE SMOOTH",
"796 365 OFFCURVE",
"749 273 OFFCURVE",
"661 273 CURVE SMOOTH"
);
},
{
closed = 1;
nodes = (
"1603 -18 OFFCURVE",
"1797 30 OFFCURVE",
"1894 97 CURVE",
"1894 384 LINE",
"1867 396 LINE",
"1789 331 OFFCURVE",
"1672 282 OFFCURVE",
"1550 282 CURVE SMOOTH",
"1386 282 OFFCURVE",
"1269 352 OFFCURVE",
"1269 527 CURVE",
"1269 627 LINE",
"1274 761 OFFCURVE",
"1328 844 OFFCURVE",
"1426 844 CURVE SMOOTH",
"1486 844 OFFCURVE",
"1536 806 OFFCURVE",
"1536 741 CURVE SMOOTH",
"1536 686 OFFCURVE",
"1497 652 OFFCURVE",
"1428 645 CURVE SMOOTH",
"1241 627 LINE",
"1247 433 LINE",
"1624 469 LINE SMOOTH",
"1808 487 OFFCURVE",
"1909 568 OFFCURVE",
"1909 736 CURVE SMOOTH",
"1909 928 OFFCURVE",
"1728 1090 OFFCURVE",
"1432 1090 CURVE SMOOTH",
"1112 1090 OFFCURVE",
"876 890 OFFCURVE",
"876 546 CURVE SMOOTH",
"876 183 OFFCURVE",
"1094 -18 OFFCURVE",
"1450 -18 CURVE SMOOTH"
);
}
);
width = 1976;
}
);
leftKerningGroup = o;
leftMetricsKey = o;
rightKerningGroup = e;
rightMetricsKey = e.ss01;
},
{
color = 6;
glyphname = fi;
layers = (
{
anchors = (
{
name = caret_1;
position = "{924.5, 0}";
}
);
layerId = "BC722C43-F174-4026-9892-4620CE50CA16";
paths = (
{
closed = 1;
nodes = (
"871 0 LINE",
"871 300 LINE",
"700 300 LINE",
"700 772 LINE",
"1182 772 LINE",
"1182 300 LINE",
"1011 300 LINE",
"1011 0 LINE",
"1817 0 LINE",
"1817 300 LINE",
"1662 300 LINE",
"1662 1072 LINE",
"700 1072 LINE",
"700 1125 LINE SMOOTH",
"700 1205 OFFCURVE",
"739 1252 OFFCURVE",
"829 1252 CURVE SMOOTH",
"880 1252 OFFCURVE",
"911 1241 OFFCURVE",
"940 1232 CURVE",
"967 1244 LINE",
"967 1530 LINE",
"891 1548 OFFCURVE",
"817 1558 OFFCURVE",
"725 1558 CURVE SMOOTH",
"399 1558 OFFCURVE",
"220 1404 OFFCURVE",
"220 1135 CURVE SMOOTH",
"220 1061 LINE",
"55 1045 LINE",
"55 772 LINE",
"220 772 LINE",
"220 300 LINE",
"65 300 LINE",
"65 0 LINE"
);
},
{
closed = 1;
nodes = (
"1599 1168 OFFCURVE",
"1710 1257 OFFCURVE",
"1710 1398 CURVE SMOOTH",
"1710 1540 OFFCURVE",
"1604 1623 OFFCURVE",
"1423 1623 CURVE SMOOTH",
"1245 1623 OFFCURVE",
"1134 1537 OFFCURVE",
"1134 1398 CURVE SMOOTH",
"1134 1259 OFFCURVE",
"1247 1168 OFFCURVE",
"1422 1168 CURVE SMOOTH"
);
}
);
width = 1849;
}
);
leftKerningGroup = n;
leftMetricsKey = f;
rightKerningGroup = u;
rightMetricsKey = i;
unicode = FB01;
},
{
color = 6;
glyphname = fl;
layers = (
{
anchors = (
{
name = caret_1;
position = "{908, 0}";
}
);
layerId = "BC722C43-F174-4026-9892-4620CE50CA16";
paths = (
{
closed = 1;
nodes = (
"855 0 LINE",
"855 300 LINE",
"700 300 LINE",
"700 772 LINE",
"942 772 LINE",
"942 1072 LINE",
"700 1072 LINE",
"700 1125 LINE SMOOTH",
"700 1205 OFFCURVE",
"739 1252 OFFCURVE",
"829 1252 CURVE SMOOTH",
"880 1252 OFFCURVE",
"911 1241 OFFCURVE",
"940 1232 CURVE",
"967 1244 LINE",
"967 1530 LINE",
"891 1548 OFFCURVE",
"817 1558 OFFCURVE",
"725 1558 CURVE SMOOTH",
"399 1558 OFFCURVE",
"220 1404 OFFCURVE",
"220 1135 CURVE SMOOTH",
"220 1061 LINE",
"55 1045 LINE",
"55 772 LINE",
"220 772 LINE",
"220 300 LINE",
"65 300 LINE",
"65 0 LINE"
);
},
{
closed = 1;
nodes = (
"1784 0 LINE",
"1784 300 LINE",
"1629 300 LINE",
"1629 1560 LINE",
"1054 1501 LINE",
"1054 1222 LINE",
"1149 1222 LINE",
"1149 300 LINE",
"995 300 LINE",
"995 0 LINE"
);
}
);
width = 1816;
}
);
leftKerningGroup = n;
leftMetricsKey = f;
rightKerningGroup = l;
rightMetricsKey = l;
unicode = FB02;
},
{
color = 6;
glyphname = ordfeminine;
layers = (
{
layerId = "BC722C43-F174-4026-9892-4620CE50CA16";
paths = (
{
closed = 1;
nodes = (
"439 807 OFFCURVE",
"532 854 OFFCURVE",
"579 935 CURVE",
"617 820 LINE",
"1040 820 LINE",
"1040 1060 LINE",
"942 1060 LINE",
"942 1313 LINE SMOOTH",
"942 1530 OFFCURVE",
"808 1623 OFFCURVE",
"496 1623 CURVE SMOOTH",
"359 1623 OFFCURVE",
"218 1602 OFFCURVE",
"112 1562 CURVE",
"112 1337 LINE",
"139 1325 LINE",
"206 1368 OFFCURVE",
"303 1392 OFFCURVE",
"391 1392 CURVE SMOOTH",
"514 1392 OFFCURVE",
"568 1354 OFFCURVE",
"568 1274 CURVE SMOOTH",
"568 1258 LINE",
"505 1277 OFFCURVE",
"447 1284 OFFCURVE",
"380 1284 CURVE SMOOTH",
"188 1284 OFFCURVE",
"63 1190 OFFCURVE",
"63 1045 CURVE SMOOTH",
"63 905 OFFCURVE",
"175 807 OFFCURVE",
"332 807 CURVE SMOOTH"
);
},
{
closed = 1;
nodes = (
"454 1005 OFFCURVE",
"423 1033 OFFCURVE",
"423 1077 CURVE SMOOTH",
"423 1123 OFFCURVE",
"457 1148 OFFCURVE",
"503 1148 CURVE SMOOTH",
"522 1148 OFFCURVE",
"545 1145 OFFCURVE",
"568 1136 CURVE",
"568 1028 LINE",
"554 1014 OFFCURVE",
"524 1005 OFFCURVE",
"500 1005 CURVE SMOOTH"
);
}
);
width = 1080;
}
);
leftKerningGroup = ord_a;
rightKerningGroup = ord_a;
rightMetricsKey = "=a*0.7";
unicode = 00AA;
},
{
color = 6;
glyphname = ordmasculine;
layers = (
{
layerId = "BC722C43-F174-4026-9892-4620CE50CA16";
paths = (
{
closed = 1;
nodes = (
"776 806 OFFCURVE",
"951 961 OFFCURVE",
"951 1214 CURVE SMOOTH",
"951 1467 OFFCURVE",
"776 1623 OFFCURVE",
"493 1623 CURVE SMOOTH",
"211 1623 OFFCURVE",
"37 1467 OFFCURVE",
"37 1214 CURVE SMOOTH",
"37 961 OFFCURVE",
"211 806 OFFCURVE",
"494 806 CURVE SMOOTH"
);
},
{
closed = 1;
nodes = (
"428 1017 OFFCURVE",
"390 1085 OFFCURVE",
"390 1214 CURVE SMOOTH",
"390 1344 OFFCURVE",
"427 1412 OFFCURVE",
"493 1412 CURVE SMOOTH",
"560 1412 OFFCURVE",
"597 1344 OFFCURVE",
"597 1214 CURVE SMOOTH",
"597 1085 OFFCURVE",
"560 1017 OFFCURVE",
"494 1017 CURVE SMOOTH"
);
}
);
width = 988;
}
);
leftKerningGroup = ord_o;
leftMetricsKey = "=o*0.7";
rightKerningGroup = ord_o;
rightMetricsKey = "=o*0.7";
unicode = 00BA;
},
{
color = 6;
glyphname = ordfeminine.ss01;
layers = (
{
layerId = "BC722C43-F174-4026-9892-4620CE50CA16";
paths = (
{
closed = 1;
nodes = (
"453 806 OFFCURVE",
"547 843 OFFCURVE",
"621 902 CURVE",
"621 820 LINE",
"1079 820 LINE",
"1079 1041 LINE",
"972 1041 LINE",
"972 1610 LINE",
"688 1610 LINE",
"659 1546 LINE",
"586 1597 OFFCURVE",
"501 1624 OFFCURVE",
"421 1624 CURVE SMOOTH",
"182 1624 OFFCURVE",
"41 1465 OFFCURVE",
"41 1214 CURVE SMOOTH",
"41 967 OFFCURVE",
"171 806 OFFCURVE",
"373 806 CURVE SMOOTH"
);
},
{
closed = 1;
nodes = (
"436 1027 OFFCURVE",
"396 1096 OFFCURVE",
"396 1214 CURVE SMOOTH",
"396 1332 OFFCURVE",
"436 1403 OFFCURVE",
"513 1403 CURVE SMOOTH",
"550 1403 OFFCURVE",
"587 1392 OFFCURVE",
"613 1374 CURVE",
"613 1059 LINE",
"587 1040 OFFCURVE",
"542 1027 OFFCURVE",
"506 1027 CURVE SMOOTH"
);
}
);
width = 1132;
}
);
leftKerningGroup = ord_o;
leftMetricsKey = "=a.ss01*0.7";
rightKerningGroup = ord_a;
rightMetricsKey = "=a.ss01*0.7";
},
{
color = 6;
glyphname = Delta;
layers = (
{
layerId = "BC722C43-F174-4026-9892-4620CE50CA16";
paths = (
{
closed = 1;
nodes = (
"1653 0 LINE",
"1653 345 LINE",
"1219 1592 LINE",
"552 1592 LINE",
"119 345 LINE",
"119 0 LINE"
);
},
{
closed = 1;
nodes = (
"769 1238 LINE",
"1064 345 LINE",
"474 345 LINE"
);
}
);
width = 1772;
}
);
rightMetricsKey = "=|";
unicode = 0394;
},
{
color = 6;
glyphname = Omega;
layers = (
{
layerId = "BC722C43-F174-4026-9892-4620CE50CA16";
paths = (
{
closed = 1;
nodes = (
"803 0 LINE",
"803 335 LINE",
"670 499 OFFCURVE",
"639 672 OFFCURVE",
"639 867 CURVE SMOOTH",
"639 1125 OFFCURVE",
"725 1276 OFFCURVE",
"872 1276 CURVE SMOOTH",
"1020 1276 OFFCURVE",
"1106 1126 OFFCURVE",
"1106 867 CURVE SMOOTH",
"1106 674 OFFCURVE",
"1073 495 OFFCURVE",
"943 335 CURVE",
"943 0 LINE",
"1673 0 LINE",
"1673 345 LINE",
"1303 345 LINE",
"1262 285 LINE",
"1538 464 OFFCURVE",
"1673 665 OFFCURVE",
"1673 898 CURVE SMOOTH",
"1673 1310 OFFCURVE",
"1328 1621 OFFCURVE",
"872 1621 CURVE SMOOTH",
"409 1621 OFFCURVE",
"73 1317 OFFCURVE",
"73 898 CURVE SMOOTH",
"73 652 OFFCURVE",
"223 425 OFFCURVE",
"481 285 CURVE",
"443 345 LINE",
"73 345 LINE",
"73 0 LINE"
);
}
);
width = 1746;
}
);
leftMetricsKey = O;
rightMetricsKey = O;
unicode = 03A9;
},
{
color = 6;
glyphname = mu;
layers = (
{
layerId = "BC722C43-F174-4026-9892-4620CE50CA16";
paths = (
{
closed = 1;
nodes = (
"667 -398 LINE",
"667 138 LINE",
"687 32 OFFCURVE",
"727 -19 OFFCURVE",
"778 -19 CURVE SMOOTH",
"829 -19 OFFCURVE",
"879 32 OFFCURVE",
"899 138 CURVE",
"899 0 LINE",
"1499 0 LINE",
"1499 300 LINE",
"1359 300 LINE",
"1359 1091 LINE",
"789 1032 LINE",
"789 759 LINE",
"879 759 LINE",
"879 466 LINE SMOOTH",
"879 363 OFFCURVE",
"828 321 OFFCURVE",
"773 321 CURVE SMOOTH",
"718 321 OFFCURVE",
"667 363 OFFCURVE",
"667 466 CURVE SMOOTH",
"667 1091 LINE",
"47 1032 LINE",
"47 759 LINE",
"187 759 LINE",
"187 -398 LINE"
);
}
);
width = 1546;
}
);
unicode = 03BC;
},
{
color = 6;
glyphname = pi;
layers = (
{
layerId = "BC722C43-F174-4026-9892-4620CE50CA16";
paths = (
{
closed = 1;
nodes = (
"790 0 LINE",
"790 300 LINE",
"700 300 LINE",
"700 898 LINE",
"220 898 LINE",
"220 300 LINE",
"75 300 LINE",
"75 0 LINE"
);
},
{
closed = 1;
nodes = (
"1545 296 LINE",
"1423 296 OFFCURVE",
"1385 331 OFFCURVE",
"1385 444 CURVE SMOOTH",
"1385 899 LINE",
"905 899 LINE",
"905 495 LINE SMOOTH",
"905 124 OFFCURVE",
"1079 -14 OFFCURVE",
"1545 -14 CURVE"
);
},
{
closed = 1;
nodes = (
"1525 772 LINE",
"1525 1072 LINE",
"498 1072 LINE",
"75 1032 LINE",
"75 772 LINE"
);
}
);
width = 1605;
},
{
associatedMasterId = "BC722C43-F174-4026-9892-4620CE50CA16";
background = {
paths = (
{
closed = 1;
nodes = (
"586 -9 OFFCURVE",
"622 10 OFFCURVE",
"622 53 CURVE SMOOTH",
"622 86 OFFCURVE",
"604 104 OFFCURVE",
"562 107 CURVE SMOOTH",
"534 109 LINE SMOOTH",
"501 111 OFFCURVE",
"482 132 OFFCURVE",
"482 169 CURVE SMOOTH",
"482 437 LINE",
"326 437 LINE",
"326 181 LINE SMOOTH",
"326 71 OFFCURVE",
"382 6 OFFCURVE",
"502 -3 CURVE SMOOTH",
"530 -5 LINE SMOOTH"
);
},
{
closed = 1;
nodes = (
"249 167 OFFCURVE",
"259 294 OFFCURVE",
"259 437 CURVE",
"105 437 LINE",
"105 294 OFFCURVE",
"82 186 OFFCURVE",
"54 83 CURVE SMOOTH",
"28 -13 OFFCURVE",
"177 -43 OFFCURVE",
"207 45 CURVE SMOOTH"
);
},
{
closed = 1;
nodes = (
"529 375 LINE SMOOTH",
"577 375 OFFCURVE",
"599 396 OFFCURVE",
"599 433 CURVE SMOOTH",
"599 470 OFFCURVE",
"577 491 OFFCURVE",
"529 491 CURVE SMOOTH",
"59 491 LINE SMOOTH",
"11 491 OFFCURVE",
"-11 470 OFFCURVE",
"-11 433 CURVE SMOOTH",
"-11 396 OFFCURVE",
"11 375 OFFCURVE",
"59 375 CURVE SMOOTH"
);
}
);
};
layerId = "E1B555A7-F4E1-459C-9C1A-AE952106EEF9";
name = "new Layer";
paths = (
{
closed = 1;
nodes = (
"251 167 OFFCURVE",
"259 294 OFFCURVE",
"259 437 CURVE",
"105 437 LINE",
"105 284 OFFCURVE",
"78 159 OFFCURVE",
"33 -1 CURVE",
"193 0 LINE"
);
},
{
closed = 1;
nodes = (
"584 375 LINE",
"584 491 LINE",
"4 491 LINE",
"4 375 LINE"
);
},
{
closed = 1;
nodes = (
"326 211 LINE SMOOTH",
"326 61 OFFCURVE",
"386 4 OFFCURVE",
"553 -6 CURVE SMOOTH",
"601 -9 LINE",
"612 103 LINE",
"560 107 LINE SMOOTH",
"504 111 OFFCURVE",
"482 133 OFFCURVE",
"482 184 CURVE SMOOTH",
"482 437 LINE",
"326 437 LINE"
);
}
);
width = 619;
}
);
unicode = 03C0;
},
{
color = 6;
glyphname = zero;
layers = (
{
layerId = "BC722C43-F174-4026-9892-4620CE50CA16";
paths = (
{
closed = 1;
nodes = (
"1075 -26 OFFCURVE",
"1311 239 OFFCURVE",
"1311 671 CURVE SMOOTH",
"1311 1105 OFFCURVE",
"1076 1372 OFFCURVE",
"692 1372 CURVE SMOOTH",
"308 1372 OFFCURVE",
"73 1105 OFFCURVE",
"73 671 CURVE SMOOTH",
"73 239 OFFCURVE",
"309 -26 OFFCURVE",
"692 -26 CURVE SMOOTH"
);
},
{
closed = 1;
nodes = (
"585 294 OFFCURVE",
"527 424 OFFCURVE",
"527 674 CURVE SMOOTH",
"527 924 OFFCURVE",
"585 1054 OFFCURVE",
"692 1054 CURVE SMOOTH",
"799 1054 OFFCURVE",
"857 924 OFFCURVE",
"857 674 CURVE SMOOTH",
"857 424 OFFCURVE",
"799 294 OFFCURVE",
"692 294 CURVE SMOOTH"
);
}
);
width = 1384;
}
);
leftKerningGroup = zero;
leftMetricsKey = O;
rightKerningGroup = zero;
rightMetricsKey = "=|";
unicode = 0030;
},
{
color = 6;
glyphname = one;
layers = (
{
layerId = "BC722C43-F174-4026-9892-4620CE50CA16";
paths = (
{
closed = 1;
nodes = (
"919 0 LINE",
"919 320 LINE",
"764 320 LINE",
"764 1372 LINE",
"79 1203 LINE",
"79 910 LINE",
"289 910 LINE",
"289 320 LINE",
"99 320 LINE",
"99 0 LINE"
);
}
);
width = 972;
}
);
leftKerningGroup = one;
rightKerningGroup = one;
unicode = 0031;
},
{
color = 6;
glyphname = two;
layers = (
{
layerId = "BC722C43-F174-4026-9892-4620CE50CA16";
paths = (
{
closed = 1;
nodes = (
"1220 0 LINE",
"1215 345 LINE",
"464 345 LINE",
"478 281 LINE",
"948 405 OFFCURVE",
"1182 645 OFFCURVE",
"1182 921 CURVE SMOOTH",
"1182 1209 OFFCURVE",
"962 1372 OFFCURVE",
"633 1372 CURVE SMOOTH",
"314 1372 OFFCURVE",
"65 1209 OFFCURVE",
"65 905 CURVE SMOOTH",
"65 785 OFFCURVE",
"108 669 OFFCURVE",
"174 604 CURVE",
"429 705 LINE",
"393 771 OFFCURVE",
"377 821 OFFCURVE",
"377 886 CURVE SMOOTH",
"377 1003 OFFCURVE",
"436 1085 OFFCURVE",
"547 1085 CURVE SMOOTH",
"654 1085 OFFCURVE",
"707 1003 OFFCURVE",
"707 876 CURVE SMOOTH",
"707 651 OFFCURVE",
"487 437 OFFCURVE",
"97 285 CURVE",
"97 0 LINE"
);
}
);
width = 1264;
}
);
leftKerningGroup = two;
rightKerningGroup = two;
unicode = 0032;
},
{
color = 6;
glyphname = three;
layers = (
{
layerId = "BC722C43-F174-4026-9892-4620CE50CA16";
paths = (
{
closed = 1;
nodes = (
"993 -28 OFFCURVE",
"1219 146 OFFCURVE",
"1219 419 CURVE SMOOTH",
"1219 680 OFFCURVE",
"998 814 OFFCURVE",
"651 814 CURVE",
"703 730 LINE",
"1165 1077 LINE",
"1165 1352 LINE",
"94 1352 LINE",
"94 1007 LINE",
"961 1007 LINE",
"770 1067 LINE",
"313 720 LINE",
"313 566 LINE",
"340 554 LINE",
"397 568 OFFCURVE",
"461 574 OFFCURVE",
"508 574 CURVE SMOOTH",
"635 574 OFFCURVE",
"744 534 OFFCURVE",
"744 428 CURVE SMOOTH",
"744 322 OFFCURVE",
"635 284 OFFCURVE",
"502 284 CURVE SMOOTH",
"329 284 OFFCURVE",
"207 332 OFFCURVE",
"122 396 CURVE",
"95 384 LINE",
"95 84 LINE",
"196 17 OFFCURVE",
"396 -28 OFFCURVE",
"572 -28 CURVE SMOOTH"
);
}
);
width = 1284;
}
);
leftKerningGroup = three;
rightKerningGroup = three;
unicode = 0033;
},
{
color = 6;
glyphname = four;
layers = (
{
layerId = "BC722C43-F174-4026-9892-4620CE50CA16";
paths = (
{
closed = 1;
nodes = (
"1085 0 LINE",
"1085 1352 LINE",
"650 1352 LINE",
"45 609 LINE",
"45 309 LINE",
"1322 310 LINE",
"1322 630 LINE",
"167 632 LINE",
"201 461 LINE",
"793 1194 LINE",
"630 1133 LINE",
"630 0 LINE"
);
}
);
width = 1345;
}
);
leftKerningGroup = four;
rightKerningGroup = four;
unicode = 0034;
},
{
color = 6;
glyphname = five;
layers = (
{
layerId = "BC722C43-F174-4026-9892-4620CE50CA16";
paths = (
{
closed = 1;
nodes = (
"992 -28 OFFCURVE",
"1218 144 OFFCURVE",
"1218 427 CURVE SMOOTH",
"1218 709 OFFCURVE",
"992 876 OFFCURVE",
"621 876 CURVE SMOOTH",
"499 876 OFFCURVE",
"357 852 OFFCURVE",
"259 802 CURVE",
"417 645 LINE",
"448 1007 LINE",
"1144 1007 LINE",
"1144 1352 LINE",
"174 1352 LINE",
"114 518 LINE",
"141 506 LINE",
"252 550 OFFCURVE",
"378 574 OFFCURVE",
"491 574 CURVE SMOOTH",
"636 574 OFFCURVE",
"743 534 OFFCURVE",
"743 428 CURVE SMOOTH",
"743 322 OFFCURVE",
"636 284 OFFCURVE",
"501 284 CURVE SMOOTH",
"328 284 OFFCURVE",
"206 332 OFFCURVE",
"121 386 CURVE",
"94 374 LINE",
"94 84 LINE",
"195 17 OFFCURVE",
"395 -28 OFFCURVE",
"571 -28 CURVE SMOOTH"
);
}
);
width = 1284;
}
);
leftKerningGroup = five;
rightKerningGroup = fice;
unicode = 0035;
},
{
color = 6;
glyphname = six;
layers = (
{
layerId = "BC722C43-F174-4026-9892-4620CE50CA16";
paths = (
{
closed = 1;
nodes = (
"1059 -26 OFFCURVE",
"1301 150 OFFCURVE",
"1301 418 CURVE SMOOTH",
"1301 676 OFFCURVE",
"1125 844 OFFCURVE",
"860 844 CURVE SMOOTH",
"717 844 OFFCURVE",
"586 790 OFFCURVE",
"510 682 CURVE",
"540 628 LINE",
"533 665 OFFCURVE",
"530 698 OFFCURVE",
"530 746 CURVE SMOOTH",
"530 991 OFFCURVE",
"642 1100 OFFCURVE",
"793 1100 CURVE SMOOTH",
"894 1100 OFFCURVE",
"965 1050 OFFCURVE",
"965 944 CURVE SMOOTH",
"965 920 OFFCURVE",
"965 913 OFFCURVE",
"965 907 CURVE",
"1272 896 LINE",
"1278 925 OFFCURVE",
"1279 952 OFFCURVE",
"1279 986 CURVE SMOOTH",
"1279 1231 OFFCURVE",
"1065 1372 OFFCURVE",
"768 1372 CURVE SMOOTH",
"382 1372 OFFCURVE",
"73 1132 OFFCURVE",
"73 668 CURVE SMOOTH",
"73 236 OFFCURVE",
"319 -26 OFFCURVE",
"734 -26 CURVE SMOOTH"
);
},
{
closed = 1;
nodes = (
"625 248 OFFCURVE",
"557 317 OFFCURVE",
"557 419 CURVE SMOOTH",
"557 520 OFFCURVE",
"628 588 OFFCURVE",
"719 588 CURVE SMOOTH",
"813 588 OFFCURVE",
"881 521 OFFCURVE",
"881 419 CURVE SMOOTH",
"881 317 OFFCURVE",
"813 248 OFFCURVE",
"719 248 CURVE SMOOTH"
);
}
);
width = 1357;
}
);
leftKerningGroup = zero;
leftMetricsKey = zero;
rightKerningGroup = six;
unicode = 0036;
},
{
color = 6;
glyphname = seven;
layers = (
{
layerId = "BC722C43-F174-4026-9892-4620CE50CA16";
paths = (
{
closed = 1;
nodes = (
"703 0 LINE",
"1223 1067 LINE",
"1223 1352 LINE",
"50 1352 LINE",
"50 798 LINE",
"320 797 LINE",
"345 1027 LINE",
"862 1027 LINE",
"765 1219 LINE",
"133 0 LINE"
);
}
);
width = 1249;
}
);
leftKerningGroup = seven;
rightKerningGroup = seven;
unicode = 0037;
},
{
color = 6;
glyphname = eight;
layers = (
{
layerId = "BC722C43-F174-4026-9892-4620CE50CA16";
paths = (
{
closed = 1;
nodes = (
"1088 -28 OFFCURVE",
"1319 127 OFFCURVE",
"1319 375 CURVE SMOOTH",
"1319 636 OFFCURVE",
"1084 757 OFFCURVE",
"692 757 CURVE SMOOTH",
"300 757 OFFCURVE",
"65 636 OFFCURVE",
"65 375 CURVE SMOOTH",
"65 127 OFFCURVE",
"296 -28 OFFCURVE",
"692 -28 CURVE SMOOTH"
);
},
{
closed = 1;
nodes = (
"570 246 OFFCURVE",
"490 309 OFFCURVE",
"490 406 CURVE SMOOTH",
"490 502 OFFCURVE",
"571 566 OFFCURVE",
"692 566 CURVE SMOOTH",
"813 566 OFFCURVE",
"894 502 OFFCURVE",
"894 406 CURVE SMOOTH",
"894 309 OFFCURVE",
"814 246 OFFCURVE",
"692 246 CURVE SMOOTH"
);
},
{
closed = 1;
nodes = (
"601 778 OFFCURVE",
"540 842 OFFCURVE",
"540 938 CURVE SMOOTH",
"540 1034 OFFCURVE",
"601 1098 OFFCURVE",
"692 1098 CURVE SMOOTH",
"783 1098 OFFCURVE",
"844 1034 OFFCURVE",
"844 938 CURVE SMOOTH",
"844 842 OFFCURVE",
"783 778 OFFCURVE",
"692 778 CURVE SMOOTH"
);
},
{
closed = 1;
nodes = (
"1052 597 OFFCURVE",
"1259 720 OFFCURVE",
"1259 969 CURVE SMOOTH",
"1259 1215 OFFCURVE",
"1038 1372 OFFCURVE",
"692 1372 CURVE SMOOTH",
"346 1372 OFFCURVE",
"125 1215 OFFCURVE",
"125 969 CURVE SMOOTH",
"125 720 OFFCURVE",
"332 597 OFFCURVE",
"692 597 CURVE SMOOTH"
);
}
);
width = 1384;
}
);
leftKerningGroup = eight;
rightKerningGroup = eight;
unicode = 0038;
},
{
color = 10;
glyphname = nine;
layers = (
{
background = {
paths = (
{
closed = 1;
nodes = (
"1078 317 OFFCURVE",
"1292 552 OFFCURVE",
"1292 811 CURVE SMOOTH",
"1292 1167 OFFCURVE",
"993 1367 OFFCURVE",
"682 1367 CURVE SMOOTH",
"316 1367 OFFCURVE",
"40 1132 OFFCURVE",
"40 781 CURVE SMOOTH",
"40 516 OFFCURVE",
"250 321 OFFCURVE",
"525 321 CURVE",
"479 260 OFFCURVE",
"393 171 OFFCURVE",
"221 0 CURVE",
"759 -2 LINE"
);
},
{
closed = 1;
nodes = (
"592 571 OFFCURVE",
"562 634 OFFCURVE",
"562 791 CURVE SMOOTH",
"562 947 OFFCURVE",
"592 1010 OFFCURVE",
"666 1010 CURVE SMOOTH",
"740 1010 OFFCURVE",
"769 947 OFFCURVE",
"769 791 CURVE SMOOTH",
"769 634 OFFCURVE",
"740 571 OFFCURVE",
"666 571 CURVE SMOOTH"
);
}
);
};
components = (
{
name = six;
transform = "{-1, 0, 0, -1, 1357, 1346}";
}
);
layerId = "BC722C43-F174-4026-9892-4620CE50CA16";
width = 1357;
}
);
leftKerningGroup = nine;
widthMetricsKey = "=six";
rightKerningGroup = zero;
rightMetricsKey = "=|six";
unicode = 0039;
},
{
color = 6;
glyphname = zero.tf;
layers = (
{
layerId = "BC722C43-F174-4026-9892-4620CE50CA16";
paths = (
{
closed = 1;
nodes = (
"1083 -26 OFFCURVE",
"1319 239 OFFCURVE",
"1319 671 CURVE SMOOTH",
"1319 1105 OFFCURVE",
"1084 1372 OFFCURVE",
"700 1372 CURVE SMOOTH",
"316 1372 OFFCURVE",
"81 1105 OFFCURVE",
"81 671 CURVE SMOOTH",
"81 239 OFFCURVE",
"317 -26 OFFCURVE",
"700 -26 CURVE SMOOTH"
);
},
{
closed = 1;
nodes = (
"593 294 OFFCURVE",
"535 424 OFFCURVE",
"535 674 CURVE SMOOTH",
"535 924 OFFCURVE",
"593 1054 OFFCURVE",
"700 1054 CURVE SMOOTH",
"807 1054 OFFCURVE",
"865 924 OFFCURVE",
"865 674 CURVE SMOOTH",
"865 424 OFFCURVE",
"807 294 OFFCURVE",
"700 294 CURVE SMOOTH"
);
}
);
width = 1400;
}
);
},
{
color = 6;
glyphname = one.tf;
layers = (
{
layerId = "BC722C43-F174-4026-9892-4620CE50CA16";
paths = (
{
closed = 1;
nodes = (
"1230 0 LINE",
"1230 320 LINE",
"1005 320 LINE",
"1005 1372 LINE",
"250 1203 LINE",
"250 910 LINE",
"530 910 LINE",
"530 320 LINE",
"270 320 LINE",
"270 0 LINE"
);
}
);
width = 1400;
}
);
},
{
color = 6;
glyphname = two.tf;
layers = (
{
layerId = "BC722C43-F174-4026-9892-4620CE50CA16";
paths = (
{
closed = 1;
nodes = (
"1287 0 LINE",
"1282 345 LINE",
"531 345 LINE",
"545 281 LINE",
"1015 405 OFFCURVE",
"1249 645 OFFCURVE",
"1249 921 CURVE SMOOTH",
"1249 1209 OFFCURVE",
"1029 1372 OFFCURVE",
"700 1372 CURVE SMOOTH",
"381 1372 OFFCURVE",
"132 1209 OFFCURVE",
"132 905 CURVE SMOOTH",
"132 785 OFFCURVE",
"175 669 OFFCURVE",
"241 604 CURVE",
"496 705 LINE",
"460 771 OFFCURVE",
"444 821 OFFCURVE",
"444 886 CURVE SMOOTH",
"444 1003 OFFCURVE",
"503 1085 OFFCURVE",
"614 1085 CURVE SMOOTH",
"721 1085 OFFCURVE",
"774 1003 OFFCURVE",
"774 876 CURVE SMOOTH",
"774 651 OFFCURVE",
"554 437 OFFCURVE",
"164 285 CURVE",
"164 0 LINE"
);
}
);
width = 1400;
}
);
},
{
color = 6;
glyphname = three.tf;
layers = (
{
layerId = "BC722C43-F174-4026-9892-4620CE50CA16";
paths = (
{
closed = 1;
nodes = (
"1061 -28 OFFCURVE",
"1287 146 OFFCURVE",
"1287 419 CURVE SMOOTH",
"1287 680 OFFCURVE",
"1066 814 OFFCURVE",
"719 814 CURVE",
"771 730 LINE",
"1233 1077 LINE",
"1233 1352 LINE",
"162 1352 LINE",
"162 1007 LINE",
"1029 1007 LINE",
"838 1067 LINE",
"381 720 LINE",
"381 566 LINE",
"408 554 LINE",
"465 568 OFFCURVE",
"529 574 OFFCURVE",
"576 574 CURVE SMOOTH",
"703 574 OFFCURVE",
"812 534 OFFCURVE",
"812 428 CURVE SMOOTH",
"812 322 OFFCURVE",
"703 284 OFFCURVE",
"570 284 CURVE SMOOTH",
"397 284 OFFCURVE",
"275 332 OFFCURVE",
"190 396 CURVE",
"163 384 LINE",
"163 84 LINE",
"264 17 OFFCURVE",
"464 -28 OFFCURVE",
"640 -28 CURVE SMOOTH"
);
}
);
width = 1400;
}
);
},
{
color = 6;
glyphname = four.tf;
layers = (
{
layerId = "BC722C43-F174-4026-9892-4620CE50CA16";
paths = (
{
closed = 1;
nodes = (
"1111 0 LINE",
"1111 1352 LINE",
"676 1352 LINE",
"71 609 LINE",
"71 309 LINE",
"1348 310 LINE",
"1348 630 LINE",
"193 632 LINE",
"227 461 LINE",
"819 1194 LINE",
"656 1133 LINE",
"656 0 LINE"
);
}
);
width = 1400;
}
);
},
{
color = 6;
glyphname = five.tf;
layers = (
{
layerId = "BC722C43-F174-4026-9892-4620CE50CA16";
paths = (
{
closed = 1;
nodes = (
"1061 -28 OFFCURVE",
"1287 144 OFFCURVE",
"1287 427 CURVE SMOOTH",
"1287 709 OFFCURVE",
"1061 876 OFFCURVE",
"690 876 CURVE SMOOTH",
"568 876 OFFCURVE",
"426 852 OFFCURVE",
"328 802 CURVE",
"486 645 LINE",
"517 1007 LINE",
"1213 1007 LINE",
"1213 1352 LINE",
"243 1352 LINE",
"183 518 LINE",
"210 506 LINE",
"321 550 OFFCURVE",
"447 574 OFFCURVE",
"560 574 CURVE SMOOTH",
"705 574 OFFCURVE",
"812 534 OFFCURVE",
"812 428 CURVE SMOOTH",
"812 322 OFFCURVE",
"705 284 OFFCURVE",
"570 284 CURVE SMOOTH",
"397 284 OFFCURVE",
"275 332 OFFCURVE",
"190 386 CURVE",
"163 374 LINE",
"163 84 LINE",
"264 17 OFFCURVE",
"464 -28 OFFCURVE",
"640 -28 CURVE SMOOTH"
);
}
);
width = 1400;
}
);
},
{
color = 6;
glyphname = six.tf;
layers = (
{
layerId = "BC722C43-F174-4026-9892-4620CE50CA16";
paths = (
{
closed = 1;
nodes = (
"1077 -26 OFFCURVE",
"1319 150 OFFCURVE",
"1319 418 CURVE SMOOTH",
"1319 676 OFFCURVE",
"1143 844 OFFCURVE",
"878 844 CURVE SMOOTH",
"735 844 OFFCURVE",
"604 790 OFFCURVE",
"528 682 CURVE",
"558 628 LINE",
"551 665 OFFCURVE",
"548 698 OFFCURVE",
"548 746 CURVE SMOOTH",
"548 991 OFFCURVE",
"660 1100 OFFCURVE",
"811 1100 CURVE SMOOTH",
"912 1100 OFFCURVE",
"983 1050 OFFCURVE",
"983 944 CURVE SMOOTH",
"983 920 OFFCURVE",
"983 913 OFFCURVE",
"983 907 CURVE",
"1290 896 LINE",
"1296 925 OFFCURVE",
"1297 952 OFFCURVE",
"1297 986 CURVE SMOOTH",
"1297 1231 OFFCURVE",
"1083 1372 OFFCURVE",
"786 1372 CURVE SMOOTH",
"400 1372 OFFCURVE",
"91 1132 OFFCURVE",
"91 668 CURVE SMOOTH",
"91 236 OFFCURVE",
"337 -26 OFFCURVE",
"752 -26 CURVE SMOOTH"
);
},
{
closed = 1;
nodes = (
"643 248 OFFCURVE",
"575 317 OFFCURVE",
"575 419 CURVE SMOOTH",
"575 520 OFFCURVE",
"646 588 OFFCURVE",
"737 588 CURVE SMOOTH",
"831 588 OFFCURVE",
"899 521 OFFCURVE",
"899 419 CURVE SMOOTH",
"899 317 OFFCURVE",
"831 248 OFFCURVE",
"737 248 CURVE SMOOTH"
);
}
);
width = 1400;
}
);
},
{
color = 6;
glyphname = seven.tf;
layers = (
{
layerId = "BC722C43-F174-4026-9892-4620CE50CA16";
paths = (
{
closed = 1;
nodes = (
"779 0 LINE",
"1299 1067 LINE",
"1299 1352 LINE",
"126 1352 LINE",
"126 798 LINE",
"396 797 LINE",
"421 1027 LINE",
"938 1027 LINE",
"841 1219 LINE",
"209 0 LINE"
);
}
);
width = 1400;
}
);
},
{
color = 6;
glyphname = eight.tf;
layers = (
{
layerId = "BC722C43-F174-4026-9892-4620CE50CA16";
paths = (
{
closed = 1;
nodes = (
"1096 -28 OFFCURVE",
"1327 127 OFFCURVE",
"1327 375 CURVE SMOOTH",
"1327 636 OFFCURVE",
"1092 757 OFFCURVE",
"700 757 CURVE SMOOTH",
"308 757 OFFCURVE",
"73 636 OFFCURVE",
"73 375 CURVE SMOOTH",
"73 127 OFFCURVE",
"304 -28 OFFCURVE",
"700 -28 CURVE SMOOTH"
);
},
{
closed = 1;
nodes = (
"578 246 OFFCURVE",
"498 309 OFFCURVE",
"498 406 CURVE SMOOTH",
"498 502 OFFCURVE",
"579 566 OFFCURVE",
"700 566 CURVE SMOOTH",
"821 566 OFFCURVE",
"902 502 OFFCURVE",
"902 406 CURVE SMOOTH",
"902 309 OFFCURVE",
"822 246 OFFCURVE",
"700 246 CURVE SMOOTH"
);
},
{
closed = 1;
nodes = (
"609 778 OFFCURVE",
"548 842 OFFCURVE",
"548 938 CURVE SMOOTH",
"548 1034 OFFCURVE",
"609 1098 OFFCURVE",
"700 1098 CURVE SMOOTH",
"791 1098 OFFCURVE",
"852 1034 OFFCURVE",
"852 938 CURVE SMOOTH",
"852 842 OFFCURVE",
"791 778 OFFCURVE",
"700 778 CURVE SMOOTH"
);
},
{
closed = 1;
nodes = (
"1060 597 OFFCURVE",
"1267 720 OFFCURVE",
"1267 969 CURVE SMOOTH",
"1267 1215 OFFCURVE",
"1046 1372 OFFCURVE",
"700 1372 CURVE SMOOTH",
"354 1372 OFFCURVE",
"133 1215 OFFCURVE",
"133 969 CURVE SMOOTH",
"133 720 OFFCURVE",
"340 597 OFFCURVE",
"700 597 CURVE SMOOTH"
);
}
);
width = 1400;
}
);
},
{
color = 10;
glyphname = nine.tf;
layers = (
{
background = {
paths = (
{
closed = 1;
nodes = (
"1103 317 OFFCURVE",
"1317 552 OFFCURVE",
"1317 811 CURVE SMOOTH",
"1317 1167 OFFCURVE",
"1018 1367 OFFCURVE",
"707 1367 CURVE SMOOTH",
"341 1367 OFFCURVE",
"65 1132 OFFCURVE",
"65 781 CURVE SMOOTH",
"65 516 OFFCURVE",
"275 321 OFFCURVE",
"550 321 CURVE",
"504 260 OFFCURVE",
"418 171 OFFCURVE",
"246 0 CURVE",
"784 -2 LINE"
);
},
{
closed = 1;
nodes = (
"617 571 OFFCURVE",
"587 634 OFFCURVE",
"587 791 CURVE SMOOTH",
"587 947 OFFCURVE",
"617 1010 OFFCURVE",
"691 1010 CURVE SMOOTH",
"765 1010 OFFCURVE",
"794 947 OFFCURVE",
"794 791 CURVE SMOOTH",
"794 634 OFFCURVE",
"765 571 OFFCURVE",
"691 571 CURVE SMOOTH"
);
}
);
};
components = (
{
alignment = -1;
name = six;
transform = "{-1, 0, 0, -1, 1382, 1346}";
}
);
layerId = "BC722C43-F174-4026-9892-4620CE50CA16";
width = 1400;
}
);
},
{
color = 6;
glyphname = onesuperior;
layers = (
{
layerId = "BC722C43-F174-4026-9892-4620CE50CA16";
paths = (
{
closed = 1;
nodes = (
"566 788 LINE",
"566 998 LINE",
"472 998 LINE",
"472 1623 LINE",
"40 1520 LINE",
"40 1327 LINE",
"168 1327 LINE",
"168 998 LINE",
"52 998 LINE",
"52 788 LINE"
);
}
);
width = 593;
}
);
leftMetricsKey = "=one*0.5";
rightMetricsKey = "=one*0.5";
unicode = 00B9;
},
{
color = 6;
glyphname = twosuperior;
layers = (
{
layerId = "BC722C43-F174-4026-9892-4620CE50CA16";
paths = (
{
closed = 1;
nodes = (
"764 788 LINE",
"764 1013 LINE",
"290 1013 LINE",
"298 959 LINE",
"600 1034 OFFCURVE",
"742 1180 OFFCURVE",
"742 1348 CURVE SMOOTH",
"742 1524 OFFCURVE",
"608 1623 OFFCURVE",
"393 1623 CURVE SMOOTH",
"184 1623 OFFCURVE",
"32 1524 OFFCURVE",
"32 1339 CURVE SMOOTH",
"32 1266 OFFCURVE",
"58 1195 OFFCURVE",
"98 1155 CURVE",
"269 1217 LINE",
"247 1257 OFFCURVE",
"237 1287 OFFCURVE",
"237 1327 CURVE SMOOTH",
"237 1388 OFFCURVE",
"273 1436 OFFCURVE",
"341 1436 CURVE SMOOTH",
"406 1436 OFFCURVE",
"438 1388 OFFCURVE",
"438 1321 CURVE SMOOTH",
"438 1184 OFFCURVE",
"289 1054 OFFCURVE",
"51 971 CURVE",
"51 788 LINE"
);
}
);
width = 786;
}
);
leftMetricsKey = "=two*0.5";
rightMetricsKey = "=two*0.5";
unicode = 00B2;
},
{
color = 6;
glyphname = threesuperior;
layers = (
{
layerId = "BC722C43-F174-4026-9892-4620CE50CA16";
paths = (
{
closed = 1;
nodes = (
"623 757 OFFCURVE",
"761 862 OFFCURVE",
"761 1027 CURVE SMOOTH",
"761 1185 OFFCURVE",
"626 1266 OFFCURVE",
"401 1266 CURVE",
"434 1212 LINE",
"712 1426 LINE",
"712 1592 LINE",
"49 1592 LINE",
"49 1367 LINE",
"549 1367 LINE",
"465 1420 LINE",
"187 1206 LINE",
"187 1111 LINE",
"203 1104 LINE",
"237 1113 OFFCURVE",
"276 1116 OFFCURVE",
"310 1116 CURVE SMOOTH",
"391 1116 OFFCURVE",
"457 1092 OFFCURVE",
"457 1033 CURVE SMOOTH",
"457 974 OFFCURVE",
"391 951 OFFCURVE",
"306 951 CURVE SMOOTH",
"191 951 OFFCURVE",
"118 980 OFFCURVE",
"66 1019 CURVE",
"50 1011 LINE",
"50 825 LINE",
"111 784 OFFCURVE",
"232 757 OFFCURVE",
"353 757 CURVE SMOOTH"
);
}
);
width = 786;
}
);
unicode = 00B3;
},
{
color = 6;
glyphname = foursuperior;
layers = (
{
layerId = "BC722C43-F174-4026-9892-4620CE50CA16";
paths = (
{
closed = 1;
nodes = (
"668 788 LINE",
"668 1592 LINE",
"395 1592 LINE",
"22 1150 LINE",
"22 958 LINE",
"809 958 LINE",
"809 1163 LINE",
"100 1164 LINE",
"125 1062 LINE",
"490 1498 LINE",
"383 1462 LINE",
"383 788 LINE"
);
}
);
width = 821;
}
);
leftMetricsKey = "=four*0.5";
rightMetricsKey = "=four*0.5";
unicode = 2074;
},
{
color = 6;
glyphname = fraction;
layers = (
{
layerId = "BC722C43-F174-4026-9892-4620CE50CA16";
paths = (
{
closed = 1;
nodes = (
"-80 0 LINE",
"760 1592 LINE",
"440 1592 LINE",
"-400 0 LINE"
);
}
);
width = 360;
}
);
unicode = 2044;
},
{
color = 10;
glyphname = threequarters;
layers = (
{
background = {
paths = (
{
closed = 1;
nodes = (
"1105 -2 LINE",
"1607 1621 LINE",
"1243 1621 LINE",
"752 -2 LINE"
);
},
{
closed = 1;
nodes = (
"729 822 OFFCURVE",
"822 847 OFFCURVE",
"890 897 CURVE SMOOTH",
"958 947 OFFCURVE",
"992 1018 OFFCURVE",
"992 1110 CURVE SMOOTH",
"992 1165 OFFCURVE",
"972 1214 OFFCURVE",
"932 1258 CURVE SMOOTH",
"892 1302 OFFCURVE",
"843 1326 OFFCURVE",
"786 1331 CURVE",
"897 1422 OFFCURVE",
"953 1468 OFFCURVE",
"953 1469 CURVE SMOOTH",
"953 1623 LINE",
"327 1623 LINE",
"327 1358 LINE",
"440 1357 LINE",
"445 1375 OFFCURVE",
"448 1387 OFFCURVE",
"450 1393 CURVE SMOOTH",
"452 1399 OFFCURVE",
"456 1407 OFFCURVE",
"462 1417 CURVE SMOOTH",
"468 1427 OFFCURVE",
"475 1433 OFFCURVE",
"484 1436 CURVE SMOOTH",
"493 1439 OFFCURVE",
"505 1440 OFFCURVE",
"520 1440 CURVE SMOOTH",
"648 1440 LINE",
"648 1434 LINE",
"448 1264 LINE",
"448 1171 LINE",
"449 1168 LINE",
"451 1167 OFFCURVE",
"455 1166 OFFCURVE",
"460 1166 CURVE SMOOTH",
"463 1166 OFFCURVE",
"472 1168 OFFCURVE",
"488 1172 CURVE SMOOTH",
"504 1176 OFFCURVE",
"520 1178 OFFCURVE",
"535 1178 CURVE SMOOTH",
"574 1178 OFFCURVE",
"608 1170 OFFCURVE",
"637 1155 CURVE SMOOTH",
"666 1140 OFFCURVE",
"681 1115 OFFCURVE",
"681 1080 CURVE SMOOTH",
"681 1050 OFFCURVE",
"668 1028 OFFCURVE",
"641 1014 CURVE SMOOTH",
"614 1000 OFFCURVE",
"584 993 OFFCURVE",
"550 993 CURVE SMOOTH",
"476 993 OFFCURVE",
"404 1022 OFFCURVE",
"333 1079 CURVE",
"334 1081 LINE",
"334 878 LINE",
"369 855 OFFCURVE",
"409 840 OFFCURVE",
"453 833 CURVE SMOOTH",
"497 826 OFFCURVE",
"550 822 OFFCURVE",
"612 822 CURVE SMOOTH"
);
},
{
closed = 1;
nodes = (
"1513 395 LINE",
"1624 532 LINE",
"1624 394 LINE"
);
},
{
closed = 1;
nodes = (
"1964 -3 LINE",
"1964 166 LINE",
"1892 166 LINE",
"1892 243 LINE",
"2026 243 LINE",
"2026 394 LINE",
"1893 393 LINE",
"1893 784 LINE",
"1635 785 LINE",
"1311 401 LINE",
"1311 243 LINE",
"1624 243 LINE",
"1624 166 LINE",
"1550 166 LINE",
"1550 -3 LINE"
);
}
);
};
components = (
{
alignment = -1;
name = fraction;
transform = "{1, 0, 0, 1, 788, 0}";
},
{
name = threesuperior;
},
{
name = foursuperior;
transform = "{1, 0, 0, 1, 1053, -803}";
}
);
layerId = "BC722C43-F174-4026-9892-4620CE50CA16";
width = 1874;
}
);
unicode = 00BE;
},
{
color = 6;
glyphname = .notdef;
layers = (
{
layerId = "BC722C43-F174-4026-9892-4620CE50CA16";
paths = (
{
closed = 1;
nodes = (
"884 0 LINE",
"884 1540 LINE",
"70 1540 LINE",
"70 0 LINE"
);
},
{
closed = 1;
nodes = (
"180 1334 LINE",
"689 112 LINE",
"180 112 LINE"
);
},
{
closed = 1;
nodes = (
"260 1428 LINE",
"774 1428 LINE",
"774 195 LINE"
);
}
);
width = 954;
}
);
},
{
color = 6;
glyphname = "leftanglebracket-math";
layers = (
{
layerId = "BC722C43-F174-4026-9892-4620CE50CA16";
paths = (
{
closed = 1;
nodes = (
"1102 -398 LINE",
"530 829 LINE",
"530 365 LINE",
"1102 1592 LINE",
"630 1592 LINE",
"160 597 LINE",
"630 -398 LINE"
);
}
);
width = 1200;
}
);
unicode = 27E8;
},
{
color = 6;
glyphname = "rightanglebracket-math";
layers = (
{
layerId = "BC722C43-F174-4026-9892-4620CE50CA16";
paths = (
{
closed = 1;
nodes = (
"570 -398 LINE",
"1040 597 LINE",
"570 1592 LINE",
"98 1592 LINE",
"670 365 LINE",
"670 829 LINE",
"98 -398 LINE"
);
}
);
width = 1200;
}
);
unicode = 27E9;
},
{
color = 6;
glyphname = period;
layers = (
{
layerId = "BC722C43-F174-4026-9892-4620CE50CA16";
paths = (
{
closed = 1;
nodes = (
"480 -27 OFFCURVE",
"592 72 OFFCURVE",
"592 228 CURVE SMOOTH",
"592 382 OFFCURVE",
"481 478 OFFCURVE",
"311 478 CURVE SMOOTH",
"141 478 OFFCURVE",
"30 382 OFFCURVE",
"30 228 CURVE SMOOTH",
"30 72 OFFCURVE",
"142 -27 OFFCURVE",
"311 -27 CURVE SMOOTH"
);
}
);
width = 622;
}
);
leftKerningGroup = period;
rightKerningGroup = period;
unicode = 002E;
},
{
color = 6;
glyphname = comma;
layers = (
{
layerId = "BC722C43-F174-4026-9892-4620CE50CA16";
paths = (
{
closed = 1;
nodes = (
"399 -438 OFFCURVE",
"592 -233 OFFCURVE",
"592 103 CURVE SMOOTH",
"592 348 OFFCURVE",
"487 478 OFFCURVE",
"291 478 CURVE SMOOTH",
"136 478 OFFCURVE",
"30 377 OFFCURVE",
"30 228 CURVE SMOOTH",
"30 73 OFFCURVE",
"142 -27 OFFCURVE",
"322 -27 CURVE",
"267 4 LINE",
"267 -141 OFFCURVE",
"203 -205 OFFCURVE",
"57 -208 CURVE",
"57 -438 LINE"
);
}
);
width = 622;
}
);
leftKerningGroup = period;
leftMetricsKey = period;
widthMetricsKey = period;
rightKerningGroup = period;
unicode = 002C;
},
{
color = 6;
glyphname = colon;
layers = (
{
layerId = "BC722C43-F174-4026-9892-4620CE50CA16";
paths = (
{
closed = 1;
nodes = (
"480 596 OFFCURVE",
"592 695 OFFCURVE",
"592 851 CURVE SMOOTH",
"592 1005 OFFCURVE",
"481 1101 OFFCURVE",
"311 1101 CURVE SMOOTH",
"141 1101 OFFCURVE",
"30 1005 OFFCURVE",
"30 851 CURVE SMOOTH",
"30 695 OFFCURVE",
"142 596 OFFCURVE",
"311 596 CURVE SMOOTH"
);
},
{
closed = 1;
nodes = (
"480 -27 OFFCURVE",
"592 72 OFFCURVE",
"592 228 CURVE SMOOTH",
"592 382 OFFCURVE",
"481 478 OFFCURVE",
"311 478 CURVE SMOOTH",
"141 478 OFFCURVE",
"30 382 OFFCURVE",
"30 228 CURVE SMOOTH",
"30 72 OFFCURVE",
"142 -27 OFFCURVE",
"311 -27 CURVE SMOOTH"
);
}
);
width = 622;
}
);
leftKerningGroup = colon;
leftMetricsKey = period;
rightKerningGroup = colon;
rightMetricsKey = period;
unicode = 003A;
},
{
color = 6;
glyphname = semicolon;
layers = (
{
layerId = "BC722C43-F174-4026-9892-4620CE50CA16";
paths = (
{
closed = 1;
nodes = (
"399 -438 OFFCURVE",
"592 -233 OFFCURVE",
"592 103 CURVE SMOOTH",
"592 348 OFFCURVE",
"487 478 OFFCURVE",
"291 478 CURVE SMOOTH",
"136 478 OFFCURVE",
"30 377 OFFCURVE",
"30 228 CURVE SMOOTH",
"30 73 OFFCURVE",
"142 -27 OFFCURVE",
"322 -27 CURVE",
"267 4 LINE",
"267 -141 OFFCURVE",
"203 -205 OFFCURVE",
"57 -208 CURVE",
"57 -438 LINE"
);
},
{
closed = 1;
nodes = (
"480 596 OFFCURVE",
"592 695 OFFCURVE",
"592 851 CURVE SMOOTH",
"592 1005 OFFCURVE",
"481 1101 OFFCURVE",
"311 1101 CURVE SMOOTH",
"141 1101 OFFCURVE",
"30 1005 OFFCURVE",
"30 851 CURVE SMOOTH",
"30 695 OFFCURVE",
"142 596 OFFCURVE",
"311 596 CURVE SMOOTH"
);
}
);
width = 622;
}
);
leftKerningGroup = colon;
leftMetricsKey = period;
widthMetricsKey = period;
rightKerningGroup = colon;
unicode = 003B;
},
{
color = 6;
glyphname = exclam;
layers = (
{
layerId = "BC722C43-F174-4026-9892-4620CE50CA16";
paths = (
{
closed = 1;
nodes = (
"600 547 LINE",
"713 1192 LINE",
"713 1592 LINE",
"105 1592 LINE",
"105 1192 LINE",
"218 545 LINE"
);
},
{
closed = 1;
nodes = (
"578 -27 OFFCURVE",
"690 72 OFFCURVE",
"690 228 CURVE SMOOTH",
"690 382 OFFCURVE",
"579 478 OFFCURVE",
"409 478 CURVE SMOOTH",
"239 478 OFFCURVE",
"128 382 OFFCURVE",
"128 228 CURVE SMOOTH",
"128 72 OFFCURVE",
"240 -27 OFFCURVE",
"409 -27 CURVE SMOOTH"
);
}
);
width = 818;
}
);
leftKerningGroup = exclam;
rightKerningGroup = exclam;
rightMetricsKey = "=|";
unicode = 0021;
},
{
color = 6;
glyphname = exclamdown;
layers = (
{
layerId = "BC722C43-F174-4026-9892-4620CE50CA16";
paths = (
{
closed = 1;
nodes = (
"713 -398 LINE",
"713 2 LINE",
"600 645 LINE",
"218 647 LINE",
"105 2 LINE",
"105 -398 LINE"
);
},
{
closed = 1;
nodes = (
"579 716 OFFCURVE",
"690 812 OFFCURVE",
"690 966 CURVE SMOOTH",
"690 1122 OFFCURVE",
"578 1221 OFFCURVE",
"409 1221 CURVE SMOOTH",
"240 1221 OFFCURVE",
"128 1122 OFFCURVE",
"128 966 CURVE SMOOTH",
"128 812 OFFCURVE",
"239 716 OFFCURVE",
"409 716 CURVE SMOOTH"
);
}
);
width = 818;
}
);
leftKerningGroup = exclamdown;
rightKerningGroup = exclamdown;
rightMetricsKey = "=|";
unicode = 00A1;
},
{
color = 6;
glyphname = question;
layers = (
{
layerId = "BC722C43-F174-4026-9892-4620CE50CA16";
paths = (
{
closed = 1;
nodes = (
"764 548 LINE",
"764 686 LINE",
"1098 794 OFFCURVE",
"1238 944 OFFCURVE",
"1238 1159 CURVE SMOOTH",
"1238 1427 OFFCURVE",
"1012 1621 OFFCURVE",
"633 1621 CURVE SMOOTH",
"239 1621 OFFCURVE",
"30 1406 OFFCURVE",
"30 1159 CURVE",
"500 1159 LINE",
"500 1263 OFFCURVE",
"542 1321 OFFCURVE",
"617 1321 CURVE SMOOTH",
"683 1321 OFFCURVE",
"726 1273 OFFCURVE",
"726 1180 CURVE SMOOTH",
"726 1043 OFFCURVE",
"631 917 OFFCURVE",
"382 833 CURVE",
"382 831 LINE",
"382 548 LINE"
);
},
{
closed = 1;
nodes = (
"743 -27 OFFCURVE",
"854 73 OFFCURVE",
"854 228 CURVE SMOOTH",
"854 381 OFFCURVE",
"745 478 OFFCURVE",
"573 478 CURVE SMOOTH",
"401 478 OFFCURVE",
"292 381 OFFCURVE",
"292 228 CURVE SMOOTH",
"292 73 OFFCURVE",
"403 -27 OFFCURVE",
"573 -27 CURVE SMOOTH"
);
}
);
width = 1268;
}
);
unicode = 003F;
},
{
color = 6;
glyphname = questiondown;
layers = (
{
layerId = "BC722C43-F174-4026-9892-4620CE50CA16";
paths = (
{
closed = 1;
nodes = (
"1029 -427 OFFCURVE",
"1238 -212 OFFCURVE",
"1238 35 CURVE",
"768 35 LINE",
"768 -69 OFFCURVE",
"726 -127 OFFCURVE",
"651 -127 CURVE SMOOTH",
"585 -127 OFFCURVE",
"542 -79 OFFCURVE",
"542 14 CURVE SMOOTH",
"542 151 OFFCURVE",
"637 277 OFFCURVE",
"886 361 CURVE",
"886 363 LINE",
"886 646 LINE",
"504 646 LINE",
"504 508 LINE",
"170 400 OFFCURVE",
"30 250 OFFCURVE",
"30 35 CURVE SMOOTH",
"30 -233 OFFCURVE",
"256 -427 OFFCURVE",
"635 -427 CURVE SMOOTH"
);
},
{
closed = 1;
nodes = (
"867 716 OFFCURVE",
"976 813 OFFCURVE",
"976 966 CURVE SMOOTH",
"976 1121 OFFCURVE",
"865 1221 OFFCURVE",
"695 1221 CURVE SMOOTH",
"525 1221 OFFCURVE",
"414 1121 OFFCURVE",
"414 966 CURVE SMOOTH",
"414 813 OFFCURVE",
"523 716 OFFCURVE",
"695 716 CURVE SMOOTH"
);
}
);
width = 1268;
}
);
unicode = 00BF;
},
{
color = 6;
glyphname = periodcentered;
layers = (
{
layerId = "BC722C43-F174-4026-9892-4620CE50CA16";
paths = (
{
closed = 1;
nodes = (
"502 293 OFFCURVE",
"620 396 OFFCURVE",
"620 544 CURVE SMOOTH",
"620 690 OFFCURVE",
"504 789 OFFCURVE",
"333 789 CURVE SMOOTH",
"165 789 OFFCURVE",
"55 692 OFFCURVE",
"55 544 CURVE SMOOTH",
"55 394 OFFCURVE",
"167 293 OFFCURVE",
"333 293 CURVE SMOOTH"
);
}
);
width = 675;
}
);
leftKerningGroup = hyphen;
rightKerningGroup = hyphen;
rightMetricsKey = "=|";
unicode = 00B7;
},
{
color = 6;
glyphname = bullet;
layers = (
{
layerId = "BC722C43-F174-4026-9892-4620CE50CA16";
paths = (
{
closed = 1;
nodes = (
"684 152 OFFCURVE",
"855 312 OFFCURVE",
"855 543 CURVE SMOOTH",
"855 774 OFFCURVE",
"684 930 OFFCURVE",
"455 930 CURVE SMOOTH",
"226 930 OFFCURVE",
"55 774 OFFCURVE",
"55 543 CURVE SMOOTH",
"55 312 OFFCURVE",
"226 152 OFFCURVE",
"455 152 CURVE SMOOTH"
);
}
);
width = 910;
}
);
leftKerningGroup = hyphen;
rightKerningGroup = hyphen;
rightMetricsKey = "=|";
unicode = 2022;
},
{
color = 6;
glyphname = asterisk;
layers = (
{
layerId = "BC722C43-F174-4026-9892-4620CE50CA16";
paths = (
{
closed = 1;
nodes = (
"563 1100 LINE",
"741 1140 LINE SMOOTH",
"864 1167 OFFCURVE",
"988 1223 OFFCURVE",
"988 1328 CURVE SMOOTH",
"988 1395 OFFCURVE",
"929 1453 OFFCURVE",
"861 1453 CURVE SMOOTH",
"803 1453 OFFCURVE",
"725 1414 OFFCURVE",
"666 1336 CURVE SMOOTH",
"575 1216 LINE",
"627 1353 LINE SMOOTH",
"648 1408 OFFCURVE",
"651 1453 OFFCURVE",
"651 1492 CURVE SMOOTH",
"651 1572 OFFCURVE",
"598 1633 OFFCURVE",
"529 1633 CURVE SMOOTH",
"460 1633 OFFCURVE",
"407 1572 OFFCURVE",
"407 1492 CURVE SMOOTH",
"407 1453 OFFCURVE",
"410 1408 OFFCURVE",
"431 1353 CURVE SMOOTH",
"483 1216 LINE",
"392 1336 LINE SMOOTH",
"333 1414 OFFCURVE",
"255 1453 OFFCURVE",
"197 1453 CURVE SMOOTH",
"129 1453 OFFCURVE",
"70 1395 OFFCURVE",
"70 1328 CURVE SMOOTH",
"70 1223 OFFCURVE",
"195 1168 OFFCURVE",
"317 1140 CURVE SMOOTH",
"503 1097 LINE"
);
},
{
closed = 1;
nodes = (
"598 614 OFFCURVE",
"651 675 OFFCURVE",
"651 755 CURVE SMOOTH",
"651 794 OFFCURVE",
"648 839 OFFCURVE",
"627 894 CURVE SMOOTH",
"575 1031 LINE",
"666 911 LINE SMOOTH",
"725 833 OFFCURVE",
"803 794 OFFCURVE",
"861 794 CURVE SMOOTH",
"929 794 OFFCURVE",
"988 852 OFFCURVE",
"988 919 CURVE SMOOTH",
"988 1024 OFFCURVE",
"864 1080 OFFCURVE",
"741 1107 CURVE SMOOTH",
"563 1147 LINE",
"503 1150 LINE",
"317 1107 LINE SMOOTH",
"195 1079 OFFCURVE",
"70 1024 OFFCURVE",
"70 919 CURVE SMOOTH",
"70 852 OFFCURVE",
"129 794 OFFCURVE",
"197 794 CURVE SMOOTH",
"255 794 OFFCURVE",
"333 833 OFFCURVE",
"392 911 CURVE SMOOTH",
"483 1031 LINE",
"431 894 LINE SMOOTH",
"410 839 OFFCURVE",
"407 794 OFFCURVE",
"407 755 CURVE SMOOTH",
"407 675 OFFCURVE",
"460 614 OFFCURVE",
"529 614 CURVE SMOOTH"
);
}
);
width = 1058;
}
);
leftKerningGroup = asterisk;
rightKerningGroup = asterisk;
rightMetricsKey = "=|";
unicode = 002A;
},
{
color = 6;
glyphname = numbersign;
layers = (
{
layerId = "BC722C43-F174-4026-9892-4620CE50CA16";
paths = (
{
closed = 1;
nodes = (
"897 0 LINE",
"1259 1592 LINE",
"935 1592 LINE",
"573 0 LINE"
);
},
{
closed = 1;
nodes = (
"1110 316 LINE",
"1173 615 LINE",
"93 615 LINE",
"30 316 LINE"
);
},
{
closed = 1;
nodes = (
"419 0 LINE",
"781 1592 LINE",
"457 1592 LINE",
"95 0 LINE"
);
},
{
closed = 1;
nodes = (
"1261 977 LINE",
"1324 1276 LINE",
"244 1276 LINE",
"181 977 LINE"
);
}
);
width = 1354;
}
);
unicode = 0023;
},
{
color = 6;
glyphname = slash;
layers = (
{
layerId = "BC722C43-F174-4026-9892-4620CE50CA16";
paths = (
{
closed = 1;
nodes = (
"510 0 LINE",
"851 1592 LINE",
"361 1592 LINE",
"20 0 LINE"
);
}
);
width = 871;
}
);
unicode = 002F;
},
{
color = 6;
glyphname = backslash;
layers = (
{
layerId = "BC722C43-F174-4026-9892-4620CE50CA16";
paths = (
{
closed = 1;
nodes = (
"851 0 LINE",
"510 1592 LINE",
"20 1592 LINE",
"361 0 LINE"
);
}
);
width = 871;
}
);
leftKerningGroup = backslash;
rightKerningGroup = backslash;
unicode = 005C;
},
{
color = 6;
glyphname = periodcentered.loclCAT;
layers = (
{
anchors = (
{
name = _center;
position = "{333, 764}";
}
);
layerId = "BC722C43-F174-4026-9892-4620CE50CA16";
paths = (
{
closed = 1;
nodes = (
"496 504 OFFCURVE",
"615 604 OFFCURVE",
"615 764 CURVE SMOOTH",
"615 928 OFFCURVE",
"491 1019 OFFCURVE",
"328 1019 CURVE SMOOTH",
"173 1019 OFFCURVE",
"50 929 OFFCURVE",
"50 764 CURVE SMOOTH",
"50 600 OFFCURVE",
"172 503 OFFCURVE",
"328 503 CURVE SMOOTH"
);
}
);
width = 670;
}
);
},
{
color = 6;
glyphname = asterisk.ss01;
layers = (
{
layerId = "BC722C43-F174-4026-9892-4620CE50CA16";
paths = (
{
closed = 1;
nodes = (
"716 256 OFFCURVE",
"781 333 OFFCURVE",
"781 436 CURVE SMOOTH",
"781 490 OFFCURVE",
"771 550 OFFCURVE",
"750 622 CURVE SMOOTH",
"695 814 LINE",
"825 659 LINE SMOOTH",
"892 579 OFFCURVE",
"985 502 OFFCURVE",
"1069 502 CURVE SMOOTH",
"1153 502 OFFCURVE",
"1222 576 OFFCURVE",
"1222 660 CURVE SMOOTH",
"1222 794 OFFCURVE",
"1067 857 OFFCURVE",
"909 904 CURVE SMOOTH",
"679 973 LINE",
"679 928 LINE",
"899 997 LINE SMOOTH",
"1131 1070 OFFCURVE",
"1219 1130 OFFCURVE",
"1219 1243 CURVE SMOOTH",
"1219 1333 OFFCURVE",
"1162 1392 OFFCURVE",
"1076 1392 CURVE SMOOTH",
"992 1392 OFFCURVE",
"907 1326 OFFCURVE",
"803 1202 CURVE SMOOTH",
"699 1078 LINE",
"755 1272 LINE SMOOTH",
"773 1333 OFFCURVE",
"784 1400 OFFCURVE",
"784 1454 CURVE SMOOTH",
"784 1559 OFFCURVE",
"716 1634 OFFCURVE",
"621 1634 CURVE SMOOTH",
"526 1634 OFFCURVE",
"458 1559 OFFCURVE",
"458 1454 CURVE SMOOTH",
"458 1400 OFFCURVE",
"469 1333 OFFCURVE",
"487 1272 CURVE SMOOTH",
"543 1078 LINE",
"439 1202 LINE SMOOTH",
"335 1326 OFFCURVE",
"250 1392 OFFCURVE",
"166 1392 CURVE SMOOTH",
"80 1392 OFFCURVE",
"23 1333 OFFCURVE",
"23 1243 CURVE SMOOTH",
"23 1130 OFFCURVE",
"109 1071 OFFCURVE",
"343 997 CURVE SMOOTH",
"574 924 LINE",
"574 976 LINE",
"333 904 LINE SMOOTH",
"176 857 OFFCURVE",
"20 794 OFFCURVE",
"20 660 CURVE SMOOTH",
"20 576 OFFCURVE",
"89 502 OFFCURVE",
"173 502 CURVE SMOOTH",
"257 502 OFFCURVE",
"350 579 OFFCURVE",
"417 659 CURVE SMOOTH",
"547 814 LINE",
"492 622 LINE SMOOTH",
"471 550 OFFCURVE",
"461 490 OFFCURVE",
"461 436 CURVE SMOOTH",
"461 333 OFFCURVE",
"526 256 OFFCURVE",
"621 256 CURVE SMOOTH"
);
}
);
width = 1242;
}
);
leftKerningGroup = asterisk.ss01;
rightKerningGroup = asterisk.ss01;
},
{
color = 6;
glyphname = periodcentered.loclCAT.case;
layers = (
{
anchors = (
{
name = _center_case;
position = "{333, 761}";
}
);
layerId = "BC722C43-F174-4026-9892-4620CE50CA16";
paths = (
{
closed = 1;
nodes = (
"496 504 OFFCURVE",
"615 604 OFFCURVE",
"615 764 CURVE SMOOTH",
"615 928 OFFCURVE",
"491 1019 OFFCURVE",
"328 1019 CURVE SMOOTH",
"173 1019 OFFCURVE",
"50 929 OFFCURVE",
"50 764 CURVE SMOOTH",
"50 600 OFFCURVE",
"172 503 OFFCURVE",
"328 503 CURVE SMOOTH"
);
}
);
width = 670;
}
);
},
{
color = 6;
glyphname = hyphen;
layers = (
{
layerId = "BC722C43-F174-4026-9892-4620CE50CA16";
paths = (
{
closed = 1;
nodes = (
"724 391 LINE",
"724 691 LINE",
"100 691 LINE",
"100 391 LINE"
);
}
);
width = 824;
}
);
leftKerningGroup = hyphen;
rightKerningGroup = hyphen;
rightMetricsKey = "=|";
unicode = 002D;
},
{
color = 10;
glyphname = softhyphen;
layers = (
{
background = {
paths = (
{
closed = 1;
nodes = (
"713 537 LINE",
"713 836 LINE",
"66 836 LINE",
"66 537 LINE"
);
}
);
};
components = (
{
alignment = 1;
name = hyphen;
}
);
layerId = "BC722C43-F174-4026-9892-4620CE50CA16";
width = 824;
}
);
leftKerningGroup = hyphen;
rightKerningGroup = hyphen;
unicode = 00AD;
},
{
color = 6;
glyphname = endash;
layers = (
{
layerId = "BC722C43-F174-4026-9892-4620CE50CA16";
paths = (
{
closed = 1;
nodes = (
"924 441 LINE",
"924 641 LINE",
"100 641 LINE",
"100 441 LINE"
);
}
);
width = 1024;
}
);
leftKerningGroup = hyphen;
rightKerningGroup = hyphen;
rightMetricsKey = "=|";
unicode = 2013;
},
{
color = 6;
glyphname = emdash;
layers = (
{
layerId = "BC722C43-F174-4026-9892-4620CE50CA16";
paths = (
{
closed = 1;
nodes = (
"1948 441 LINE",
"1948 641 LINE",
"100 641 LINE",
"100 441 LINE"
);
}
);
width = 2048;
}
);
leftKerningGroup = hyphen;
rightKerningGroup = hyphen;
rightMetricsKey = "=|";
unicode = 2014;
},
{
color = 10;
glyphname = hyphentwo;
layers = (
{
background = {
paths = (
{
closed = 1;
nodes = (
"713 537 LINE",
"713 836 LINE",
"66 836 LINE",
"66 537 LINE"
);
}
);
};
components = (
{
alignment = 1;
name = hyphen;
}
);
layerId = "BC722C43-F174-4026-9892-4620CE50CA16";
width = 824;
}
);
leftKerningGroup = hyphen;
rightKerningGroup = hyphen;
unicode = 2010;
},
{
color = 6;
glyphname = underscore;
layers = (
{
layerId = "BC722C43-F174-4026-9892-4620CE50CA16";
paths = (
{
closed = 1;
nodes = (
"1233 -266 LINE",
"1233 -1 LINE",
"40 -1 LINE",
"40 -266 LINE"
);
}
);
width = 1273;
}
);
leftKerningGroup = period;
rightKerningGroup = period;
unicode = 005F;
},
{
color = 6;
glyphname = parenleft;
layers = (
{
layerId = "BC722C43-F174-4026-9892-4620CE50CA16";
paths = (
{
closed = 1;
nodes = (
"984 -98 LINE",
"786 -57 OFFCURVE",
"708 129 OFFCURVE",
"708 597 CURVE SMOOTH",
"708 1065 OFFCURVE",
"786 1251 OFFCURVE",
"984 1292 CURVE",
"984 1602 LINE",
"457 1581 OFFCURVE",
"168 1225 OFFCURVE",
"168 597 CURVE SMOOTH",
"168 -30 OFFCURVE",
"458 -387 OFFCURVE",
"984 -408 CURVE"
);
}
);
width = 1034;
}
);
leftKerningGroup = parenleft;
rightKerningGroup = brace;
rightMetricsKey = braceleft;
unicode = 0028;
},
{
color = 6;
glyphname = parenright;
layers = (
{
layerId = "BC722C43-F174-4026-9892-4620CE50CA16";
paths = (
{
closed = 1;
nodes = (
"576 -387 OFFCURVE",
"866 -30 OFFCURVE",
"866 597 CURVE SMOOTH",
"866 1225 OFFCURVE",
"577 1581 OFFCURVE",
"50 1602 CURVE",
"50 1292 LINE",
"248 1251 OFFCURVE",
"326 1065 OFFCURVE",
"326 597 CURVE SMOOTH",
"326 129 OFFCURVE",
"248 -57 OFFCURVE",
"50 -98 CURVE",
"50 -408 LINE"
);
}
);
width = 1034;
}
);
leftKerningGroup = brace;
leftMetricsKey = "=|braceleft";
rightMetricsKey = "=|parenleft";
unicode = 0029;
},
{
color = 6;
glyphname = braceleft;
layers = (
{
layerId = "BC722C43-F174-4026-9892-4620CE50CA16";
paths = (
{
closed = 1;
nodes = (
"991 -398 LINE",
"991 -98 LINE",
"961 -98 LINE SMOOTH",
"854 -98 OFFCURVE",
"799 -48 OFFCURVE",
"799 48 CURVE SMOOTH",
"799 314 LINE SMOOTH",
"799 456 OFFCURVE",
"713 574 OFFCURVE",
"551 598 CURVE",
"713 621 OFFCURVE",
"799 738 OFFCURVE",
"799 880 CURVE SMOOTH",
"799 1146 LINE SMOOTH",
"799 1242 OFFCURVE",
"854 1292 OFFCURVE",
"961 1292 CURVE SMOOTH",
"991 1292 LINE",
"991 1592 LINE",
"849 1592 LINE SMOOTH",
"518 1592 OFFCURVE",
"319 1422 OFFCURVE",
"319 1156 CURVE SMOOTH",
"319 910 LINE SMOOTH",
"319 791 OFFCURVE",
"273 747 OFFCURVE",
"150 747 CURVE SMOOTH",
"110 747 LINE",
"110 447 LINE",
"150 447 LINE SMOOTH",
"273 447 OFFCURVE",
"319 403 OFFCURVE",
"319 284 CURVE SMOOTH",
"319 38 LINE SMOOTH",
"319 -228 OFFCURVE",
"518 -398 OFFCURVE",
"849 -398 CURVE SMOOTH"
);
}
);
width = 1041;
}
);
leftKerningGroup = hyphen;
rightKerningGroup = brace;
unicode = 007B;
},
{
color = 6;
glyphname = braceright;
layers = (
{
layerId = "BC722C43-F174-4026-9892-4620CE50CA16";
paths = (
{
closed = 1;
nodes = (
"192 -398 LINE SMOOTH",
"523 -398 OFFCURVE",
"722 -228 OFFCURVE",
"722 38 CURVE SMOOTH",
"722 284 LINE SMOOTH",
"722 403 OFFCURVE",
"768 447 OFFCURVE",
"891 447 CURVE SMOOTH",
"931 447 LINE",
"931 747 LINE",
"891 747 LINE SMOOTH",
"768 747 OFFCURVE",
"722 791 OFFCURVE",
"722 910 CURVE SMOOTH",
"722 1156 LINE SMOOTH",
"722 1422 OFFCURVE",
"523 1592 OFFCURVE",
"192 1592 CURVE SMOOTH",
"50 1592 LINE",
"50 1292 LINE",
"80 1292 LINE SMOOTH",
"187 1292 OFFCURVE",
"242 1242 OFFCURVE",
"242 1146 CURVE SMOOTH",
"242 880 LINE SMOOTH",
"242 738 OFFCURVE",
"328 621 OFFCURVE",
"490 598 CURVE",
"328 574 OFFCURVE",
"242 456 OFFCURVE",
"242 314 CURVE SMOOTH",
"242 48 LINE SMOOTH",
"242 -48 OFFCURVE",
"187 -98 OFFCURVE",
"80 -98 CURVE SMOOTH",
"50 -98 LINE",
"50 -398 LINE"
);
}
);
width = 1041;
}
);
leftKerningGroup = brace;
leftMetricsKey = "=|braceleft";
rightKerningGroup = hyphen;
rightMetricsKey = "=|braceleft";
unicode = 007D;
},
{
color = 6;
glyphname = bracketleft;
layers = (
{
layerId = "BC722C43-F174-4026-9892-4620CE50CA16";
paths = (
{
closed = 1;
nodes = (
"866 -398 LINE",
"866 -98 LINE",
"704 -98 LINE",
"704 1292 LINE",
"901 1292 LINE",
"901 1592 LINE",
"224 1592 LINE",
"224 -398 LINE"
);
}
);
width = 951;
}
);
rightKerningGroup = brace;
rightMetricsKey = braceleft;
unicode = 005B;
},
{
color = 6;
glyphname = bracketright;
layers = (
{
layerId = "BC722C43-F174-4026-9892-4620CE50CA16";
paths = (
{
closed = 1;
nodes = (
"727 -398 LINE",
"727 1592 LINE",
"50 1592 LINE",
"50 1292 LINE",
"247 1292 LINE",
"247 -98 LINE",
"85 -98 LINE",
"85 -398 LINE"
);
}
);
width = 951;
}
);
leftKerningGroup = brace;
leftMetricsKey = braceright;
rightMetricsKey = "=|bracketleft";
unicode = 005D;
},
{
color = 6;
glyphname = quotesinglbase;
layers = (
{
layerId = "BC722C43-F174-4026-9892-4620CE50CA16";
paths = (
{
closed = 1;
nodes = (
"399 -438 OFFCURVE",
"592 -233 OFFCURVE",
"592 103 CURVE SMOOTH",
"592 348 OFFCURVE",
"487 478 OFFCURVE",
"291 478 CURVE SMOOTH",
"136 478 OFFCURVE",
"30 377 OFFCURVE",
"30 228 CURVE SMOOTH",
"30 73 OFFCURVE",
"142 -27 OFFCURVE",
"322 -27 CURVE",
"267 4 LINE",
"267 -141 OFFCURVE",
"203 -205 OFFCURVE",
"57 -208 CURVE",
"57 -438 LINE"
);
}
);
width = 622;
}
);
leftKerningGroup = period;
leftMetricsKey = period;
widthMetricsKey = period;
rightKerningGroup = period;
unicode = 201A;
},
{
color = 10;
glyphname = quotedblbase;
layers = (
{
background = {
paths = (
{
closed = 1;
nodes = (
"854 -448 OFFCURVE",
"989 -405 OFFCURVE",
"1076 -319 CURVE SMOOTH",
"1163 -233 OFFCURVE",
"1206 -97 OFFCURVE",
"1206 88 CURVE SMOOTH",
"1206 170 OFFCURVE",
"1198 262 OFFCURVE",
"1182 365 CURVE",
"672 365 LINE",
"672 -1 LINE",
"861 -1 LINE",
"861 -29 OFFCURVE",
"861 -51 OFFCURVE",
"860 -66 CURVE SMOOTH",
"859 -81 OFFCURVE",
"857 -99 OFFCURVE",
"853 -119 CURVE SMOOTH",
"849 -139 OFFCURVE",
"843 -154 OFFCURVE",
"835 -165 CURVE SMOOTH",
"827 -176 OFFCURVE",
"816 -187 OFFCURVE",
"802 -197 CURVE SMOOTH",
"788 -207 OFFCURVE",
"770 -214 OFFCURVE",
"748 -218 CURVE SMOOTH",
"726 -222 OFFCURVE",
"700 -224 OFFCURVE",
"670 -224 CURVE",
"671 -223 LINE",
"671 -448 LINE"
);
},
{
closed = 1;
nodes = (
"218 -449 OFFCURVE",
"353 -406 OFFCURVE",
"440 -320 CURVE SMOOTH",
"527 -234 OFFCURVE",
"570 -98 OFFCURVE",
"570 87 CURVE SMOOTH",
"570 169 OFFCURVE",
"562 261 OFFCURVE",
"546 364 CURVE",
"36 364 LINE",
"36 -2 LINE",
"225 -2 LINE",
"225 -30 OFFCURVE",
"225 -52 OFFCURVE",
"224 -67 CURVE SMOOTH",
"223 -82 OFFCURVE",
"221 -100 OFFCURVE",
"217 -120 CURVE SMOOTH",
"213 -140 OFFCURVE",
"207 -155 OFFCURVE",
"199 -166 CURVE SMOOTH",
"191 -177 OFFCURVE",
"180 -188 OFFCURVE",
"166 -198 CURVE SMOOTH",
"152 -208 OFFCURVE",
"134 -215 OFFCURVE",
"112 -219 CURVE SMOOTH",
"90 -223 OFFCURVE",
"64 -225 OFFCURVE",
"34 -225 CURVE",
"35 -224 LINE",
"35 -449 LINE"
);
}
);
};
components = (
{
name = quotesinglbase;
},
{
name = quotesinglbase;
transform = "{1, 0, 0, 1, 620, 0}";
}
);
layerId = "BC722C43-F174-4026-9892-4620CE50CA16";
width = 1242;
}
);
leftKerningGroup = period;
leftMetricsKey = period;
rightKerningGroup = period;
rightMetricsKey = period;
unicode = 201E;
},
{
color = 10;
glyphname = quotedblleft;
layers = (
{
background = {
paths = (
{
closed = 1;
nodes = (
"1216 840 LINE",
"1216 1206 LINE",
"1027 1206 LINE",
"1027 1234 OFFCURVE",
"1027 1255 OFFCURVE",
"1028 1270 CURVE SMOOTH",
"1029 1285 OFFCURVE",
"1031 1302 OFFCURVE",
"1035 1322 CURVE SMOOTH",
"1039 1342 OFFCURVE",
"1045 1357 OFFCURVE",
"1053 1368 CURVE SMOOTH",
"1061 1379 OFFCURVE",
"1072 1389 OFFCURVE",
"1086 1399 CURVE SMOOTH",
"1100 1409 OFFCURVE",
"1118 1416 OFFCURVE",
"1140 1420 CURVE SMOOTH",
"1162 1424 OFFCURVE",
"1188 1426 OFFCURVE",
"1218 1426 CURVE",
"1217 1428 LINE",
"1217 1653 LINE",
"1034 1653 OFFCURVE",
"899 1610 OFFCURVE",
"812 1524 CURVE SMOOTH",
"725 1438 OFFCURVE",
"682 1302 OFFCURVE",
"682 1117 CURVE SMOOTH",
"682 1035 OFFCURVE",
"690 943 OFFCURVE",
"706 840 CURVE"
);
},
{
closed = 1;
nodes = (
"586 838 LINE",
"586 1204 LINE",
"397 1204 LINE",
"397 1232 OFFCURVE",
"397 1253 OFFCURVE",
"398 1268 CURVE SMOOTH",
"399 1283 OFFCURVE",
"401 1300 OFFCURVE",
"405 1320 CURVE SMOOTH",
"409 1340 OFFCURVE",
"415 1355 OFFCURVE",
"423 1366 CURVE SMOOTH",
"431 1377 OFFCURVE",
"442 1387 OFFCURVE",
"456 1397 CURVE SMOOTH",
"470 1407 OFFCURVE",
"488 1414 OFFCURVE",
"510 1418 CURVE SMOOTH",
"532 1422 OFFCURVE",
"558 1424 OFFCURVE",
"588 1424 CURVE",
"587 1426 LINE",
"587 1651 LINE",
"404 1651 OFFCURVE",
"269 1608 OFFCURVE",
"182 1522 CURVE SMOOTH",
"95 1436 OFFCURVE",
"52 1300 OFFCURVE",
"52 1115 CURVE SMOOTH",
"52 1033 OFFCURVE",
"60 941 OFFCURVE",
"76 838 CURVE"
);
}
);
};
components = (
{
name = quoteleft;
},
{
name = quoteleft;
transform = "{1, 0, 0, 1, 620, 0}";
}
);
layerId = "BC722C43-F174-4026-9892-4620CE50CA16";
width = 1242;
}
);
leftKerningGroup = quote;
leftMetricsKey = period;
rightKerningGroup = quote;
rightMetricsKey = period;
unicode = 201C;
},
{
color = 10;
glyphname = quotedblright;
layers = (
{
background = {
paths = (
{
closed = 1;
nodes = (
"898 809 OFFCURVE",
"1033 852 OFFCURVE",
"1120 938 CURVE SMOOTH",
"1207 1024 OFFCURVE",
"1250 1160 OFFCURVE",
"1250 1345 CURVE SMOOTH",
"1250 1426 OFFCURVE",
"1242 1518 OFFCURVE",
"1226 1621 CURVE",
"716 1621 LINE",
"716 1255 LINE",
"905 1255 LINE",
"905 1227 OFFCURVE",
"905 1205 OFFCURVE",
"904 1190 CURVE SMOOTH",
"903 1175 OFFCURVE",
"901 1157 OFFCURVE",
"897 1137 CURVE SMOOTH",
"893 1117 OFFCURVE",
"887 1102 OFFCURVE",
"879 1091 CURVE SMOOTH",
"871 1080 OFFCURVE",
"860 1069 OFFCURVE",
"846 1059 CURVE SMOOTH",
"832 1049 OFFCURVE",
"814 1042 OFFCURVE",
"792 1038 CURVE SMOOTH",
"770 1034 OFFCURVE",
"744 1032 OFFCURVE",
"714 1032 CURVE",
"715 1034 LINE",
"715 809 LINE"
);
},
{
closed = 1;
nodes = (
"246 807 OFFCURVE",
"381 850 OFFCURVE",
"468 936 CURVE SMOOTH",
"555 1022 OFFCURVE",
"598 1158 OFFCURVE",
"598 1343 CURVE SMOOTH",
"598 1424 OFFCURVE",
"590 1516 OFFCURVE",
"574 1619 CURVE",
"64 1619 LINE",
"64 1253 LINE",
"253 1253 LINE",
"253 1225 OFFCURVE",
"253 1203 OFFCURVE",
"252 1188 CURVE SMOOTH",
"251 1173 OFFCURVE",
"249 1155 OFFCURVE",
"245 1135 CURVE SMOOTH",
"241 1115 OFFCURVE",
"235 1100 OFFCURVE",
"227 1089 CURVE SMOOTH",
"219 1078 OFFCURVE",
"208 1067 OFFCURVE",
"194 1057 CURVE SMOOTH",
"180 1047 OFFCURVE",
"162 1040 OFFCURVE",
"140 1036 CURVE SMOOTH",
"118 1032 OFFCURVE",
"92 1030 OFFCURVE",
"62 1030 CURVE",
"63 1032 LINE",
"63 807 LINE"
);
}
);
};
components = (
{
name = quoteright;
},
{
name = quoteright;
transform = "{1, 0, 0, 1, 620, 0}";
}
);
layerId = "BC722C43-F174-4026-9892-4620CE50CA16";
width = 1242;
}
);
leftKerningGroup = quote;
leftMetricsKey = period;
rightKerningGroup = quote;
rightMetricsKey = period;
unicode = 201D;
},
{
color = 6;
glyphname = quoteleft;
layers = (
{
layerId = "BC722C43-F174-4026-9892-4620CE50CA16";
paths = (
{
closed = 1;
nodes = (
"486 725 OFFCURVE",
"592 826 OFFCURVE",
"592 975 CURVE SMOOTH",
"592 1130 OFFCURVE",
"480 1230 OFFCURVE",
"300 1230 CURVE",
"355 1199 LINE",
"355 1344 OFFCURVE",
"419 1408 OFFCURVE",
"565 1411 CURVE",
"565 1641 LINE",
"223 1641 OFFCURVE",
"30 1436 OFFCURVE",
"30 1100 CURVE SMOOTH",
"30 855 OFFCURVE",
"135 725 OFFCURVE",
"331 725 CURVE SMOOTH"
);
}
);
width = 622;
}
);
leftKerningGroup = quote;
leftMetricsKey = period;
widthMetricsKey = period;
rightKerningGroup = quote;
unicode = 2018;
},
{
color = 6;
glyphname = quoteright;
layers = (
{
layerId = "BC722C43-F174-4026-9892-4620CE50CA16";
paths = (
{
closed = 1;
nodes = (
"399 705 OFFCURVE",
"592 910 OFFCURVE",
"592 1246 CURVE SMOOTH",
"592 1491 OFFCURVE",
"487 1621 OFFCURVE",
"291 1621 CURVE SMOOTH",
"136 1621 OFFCURVE",
"30 1520 OFFCURVE",
"30 1371 CURVE SMOOTH",
"30 1216 OFFCURVE",
"142 1116 OFFCURVE",
"322 1116 CURVE",
"267 1147 LINE",
"267 1002 OFFCURVE",
"203 938 OFFCURVE",
"57 935 CURVE",
"57 705 LINE"
);
}
);
width = 622;
}
);
leftKerningGroup = quote;
leftMetricsKey = period;
widthMetricsKey = period;
rightKerningGroup = quote;
unicode = 2019;
},
{
color = 6;
glyphname = guillemetleft;
layers = (
{
layerId = "BC722C43-F174-4026-9892-4620CE50CA16";
paths = (
{
closed = 1;
nodes = (
"1266 256 LINE",
"800 722 LINE",
"800 360 LINE",
"1266 826 LINE",
"1042 1050 LINE",
"655 676 LINE",
"655 406 LINE",
"1042 32 LINE"
);
},
{
closed = 1;
nodes = (
"706 256 LINE",
"240 722 LINE",
"240 360 LINE",
"706 826 LINE",
"482 1050 LINE",
"95 676 LINE",
"95 406 LINE",
"482 32 LINE"
);
}
);
width = 1301;
}
);
leftKerningGroup = guilsinglleft;
leftMetricsKey = guilsinglleft;
rightKerningGroup = guilsinglleft;
rightMetricsKey = guilsinglleft;
unicode = 00AB;
},
{
color = 6;
glyphname = guillemetright;
layers = (
{
layerId = "BC722C43-F174-4026-9892-4620CE50CA16";
paths = (
{
closed = 1;
nodes = (
"1206 406 LINE",
"1206 676 LINE",
"819 1050 LINE",
"595 826 LINE",
"1061 360 LINE",
"1061 722 LINE",
"595 256 LINE",
"819 32 LINE"
);
},
{
closed = 1;
nodes = (
"646 406 LINE",
"646 676 LINE",
"259 1050 LINE",
"35 826 LINE",
"501 360 LINE",
"501 722 LINE",
"35 256 LINE",
"259 32 LINE"
);
}
);
width = 1301;
}
);
leftMetricsKey = "=|guilsinglleft";
rightMetricsKey = "=|guilsinglleft";
unicode = 00BB;
},
{
color = 6;
glyphname = guilsinglleft;
layers = (
{
layerId = "BC722C43-F174-4026-9892-4620CE50CA16";
paths = (
{
closed = 1;
nodes = (
"706 256 LINE",
"240 722 LINE",
"240 360 LINE",
"706 826 LINE",
"482 1050 LINE",
"95 676 LINE",
"95 406 LINE",
"482 32 LINE"
);
}
);
width = 741;
}
);
leftKerningGroup = guilsinglleft;
rightKerningGroup = guilsinglleft;
unicode = 2039;
},
{
color = 6;
glyphname = guilsinglright;
layers = (
{
layerId = "BC722C43-F174-4026-9892-4620CE50CA16";
paths = (
{
closed = 1;
nodes = (
"646 406 LINE",
"646 676 LINE",
"259 1050 LINE",
"35 826 LINE",
"501 360 LINE",
"501 722 LINE",
"35 256 LINE",
"259 32 LINE"
);
}
);
width = 741;
}
);
leftKerningGroup = guilsinglright;
leftMetricsKey = "=|guilsinglleft";
rightKerningGroup = guilsinglright;
rightMetricsKey = "=|guilsinglleft";
unicode = 203A;
},
{
color = 6;
glyphname = quotedbl;
layers = (
{
layerId = "BC722C43-F174-4026-9892-4620CE50CA16";
paths = (
{
closed = 1;
nodes = (
"995 842 LINE",
"1085 1592 LINE",
"595 1592 LINE",
"685 842 LINE"
);
},
{
closed = 1;
nodes = (
"450 842 LINE",
"540 1592 LINE",
"50 1592 LINE",
"140 842 LINE"
);
}
);
width = 1135;
}
);
leftKerningGroup = quote_straight;
leftMetricsKey = quotesingle;
rightKerningGroup = quote_straight;
rightMetricsKey = "=|";
unicode = 0022;
},
{
color = 6;
glyphname = quotesingle;
layers = (
{
layerId = "BC722C43-F174-4026-9892-4620CE50CA16";
paths = (
{
closed = 1;
nodes = (
"450 842 LINE",
"540 1592 LINE",
"50 1592 LINE",
"140 842 LINE"
);
}
);
width = 590;
}
);
leftKerningGroup = quote_straight;
rightKerningGroup = quote_straight;
rightMetricsKey = "=|";
unicode = 0027;
},
{
color = 6;
glyphname = florin;
layers = (
{
layerId = "BC722C43-F174-4026-9892-4620CE50CA16";
paths = (
{
closed = 1;
nodes = (
"563 -418 OFFCURVE",
"742 -264 OFFCURVE",
"742 5 CURVE SMOOTH",
"742 772 LINE",
"984 772 LINE",
"984 1072 LINE",
"742 1072 LINE",
"742 1125 LINE SMOOTH",
"742 1205 OFFCURVE",
"781 1252 OFFCURVE",
"871 1252 CURVE SMOOTH",
"922 1252 OFFCURVE",
"953 1241 OFFCURVE",
"982 1232 CURVE",
"1009 1244 LINE",
"1009 1530 LINE",
"933 1548 OFFCURVE",
"859 1558 OFFCURVE",
"767 1558 CURVE SMOOTH",
"441 1558 OFFCURVE",
"262 1404 OFFCURVE",
"262 1135 CURVE SMOOTH",
"262 1061 LINE",
"97 1045 LINE",
"97 772 LINE",
"262 772 LINE",
"262 15 LINE SMOOTH",
"262 -65 OFFCURVE",
"223 -112 OFFCURVE",
"133 -112 CURVE SMOOTH",
"82 -112 OFFCURVE",
"51 -101 OFFCURVE",
"22 -92 CURVE",
"-5 -104 LINE",
"-5 -390 LINE",
"71 -408 OFFCURVE",
"145 -418 OFFCURVE",
"237 -418 CURVE SMOOTH"
);
}
);
width = 1004;
}
);
leftKerningGroup = florin;
leftMetricsKey = "=|f";
rightKerningGroup = florin;
rightMetricsKey = f;
unicode = 0192;
},
{
color = 6;
glyphname = at;
layers = (
{
layerId = "BC722C43-F174-4026-9892-4620CE50CA16";
paths = (
{
closed = 1;
nodes = (
"1378 -418 OFFCURVE",
"1549 -391 OFFCURVE",
"1701 -339 CURVE",
"1701 -115 LINE",
"1674 -103 LINE",
"1560 -152 OFFCURVE",
"1379 -184 OFFCURVE",
"1214 -184 CURVE SMOOTH",
"676 -184 OFFCURVE",
"356 96 OFFCURVE",
"356 543 CURVE SMOOTH",
"356 1029 OFFCURVE",
"681 1332 OFFCURVE",
"1200 1332 CURVE SMOOTH",
"1711 1332 OFFCURVE",
"2000 1109 OFFCURVE",
"2000 715 CURVE SMOOTH",
"2000 503 OFFCURVE",
"1910 350 OFFCURVE",
"1802 350 CURVE SMOOTH",
"1707 350 OFFCURVE",
"1674 408 OFFCURVE",
"1696 527 CURVE SMOOTH",
"1795 1068 LINE",
"1454 1068 LINE",
"1409 1003 LINE",
"1325 1053 OFFCURVE",
"1213 1084 OFFCURVE",
"1118 1084 CURVE SMOOTH",
"807 1084 OFFCURVE",
"574 838 OFFCURVE",
"574 510 CURVE SMOOTH",
"574 253 OFFCURVE",
"729 86 OFFCURVE",
"966 86 CURVE SMOOTH",
"1110 86 OFFCURVE",
"1233 150 OFFCURVE",
"1316 267 CURVE",
"1264 479 LINE",
"1236 397 OFFCURVE",
"1186 355 OFFCURVE",
"1118 355 CURVE SMOOTH",
"1044 355 OFFCURVE",
"1003 411 OFFCURVE",
"1003 514 CURVE SMOOTH",
"1003 697 OFFCURVE",
"1083 815 OFFCURVE",
"1206 815 CURVE SMOOTH",
"1239 815 OFFCURVE",
"1280 805 OFFCURVE",
"1313 790 CURVE",
"1250 429 LINE",
"1254 358 LINE",
"1283 175 OFFCURVE",
"1413 86 OFFCURVE",
"1654 86 CURVE SMOOTH",
"2022 86 OFFCURVE",
"2260 325 OFFCURVE",
"2260 715 CURVE SMOOTH",
"2260 1223 OFFCURVE",
"1838 1560 OFFCURVE",
"1200 1560 CURVE SMOOTH",
"524 1560 OFFCURVE",
"73 1153 OFFCURVE",
"73 543 CURVE SMOOTH",
"73 -37 OFFCURVE",
"508 -418 OFFCURVE",
"1194 -418 CURVE SMOOTH"
);
}
);
width = 2333;
}
);
leftKerningGroup = O;
leftMetricsKey = O;
rightKerningGroup = O;
rightMetricsKey = O;
unicode = 0040;
},
{
color = 6;
glyphname = ampersand;
layers = (
{
guideLines = (
{
angle = 133.8519;
position = "{1798, 0}";
}
);
layerId = "BC722C43-F174-4026-9892-4620CE50CA16";
paths = (
{
closed = 1;
nodes = (
"1670 0 LINE",
"1670 320 LINE",
"1449 320 LINE",
"802 1038 LINE SMOOTH",
"739 1107 OFFCURVE",
"722 1133 OFFCURVE",
"722 1177 CURVE SMOOTH",
"722 1229 OFFCURVE",
"762 1269 OFFCURVE",
"815 1269 CURVE SMOOTH",
"876 1269 OFFCURVE",
"920 1223 OFFCURVE",
"920 1158 CURVE SMOOTH",
"920 1087 OFFCURVE",
"889 1040 OFFCURVE",
"810 997 CURVE",
"960 828 LINE",
"1106 913 OFFCURVE",
"1176 1030 OFFCURVE",
"1176 1188 CURVE SMOOTH",
"1176 1416 OFFCURVE",
"1012 1559 OFFCURVE",
"751 1559 CURVE SMOOTH",
"458 1559 OFFCURVE",
"268 1388 OFFCURVE",
"268 1119 CURVE SMOOTH",
"268 985 OFFCURVE",
"319 881 OFFCURVE",
"421 767 CURVE SMOOTH",
"1108 0 LINE"
);
},
{
closed = 1;
nodes = (
"719 -27 OFFCURVE",
"882 39 OFFCURVE",
"1032 187 CURVE SMOOTH",
"1605 752 LINE",
"1670 752 LINE",
"1670 1072 LINE",
"1220 1072 LINE",
"1220 752 LINE",
"1290 752 LINE",
"930 409 LINE SMOOTH",
"843 326 OFFCURVE",
"775 292 OFFCURVE",
"695 292 CURVE SMOOTH",
"602 292 OFFCURVE",
"531 359 OFFCURVE",
"531 448 CURVE SMOOTH",
"531 540 OFFCURVE",
"571 600 OFFCURVE",
"667 654 CURVE",
"406 812 LINE",
"172 717 OFFCURVE",
"53 569 OFFCURVE",
"53 375 CURVE SMOOTH",
"53 128 OFFCURVE",
"233 -27 OFFCURVE",
"516 -27 CURVE SMOOTH"
);
}
);
width = 1736;
}
);
leftKerningGroup = ampersand;
rightKerningGroup = ampersand;
unicode = 0026;
},
{
color = 6;
glyphname = paragraph;
layers = (
{
layerId = "BC722C43-F174-4026-9892-4620CE50CA16";
paths = (
{
closed = 1;
nodes = (
"1042 0 LINE",
"1042 1248 LINE",
"1167 1248 LINE",
"1167 0 LINE",
"1677 0 LINE",
"1677 345 LINE",
"1517 345 LINE",
"1517 1247 LINE",
"1677 1247 LINE",
"1677 1592 LINE",
"702 1592 LINE SMOOTH",
"268 1592 OFFCURVE",
"44 1423 OFFCURVE",
"44 1087 CURVE SMOOTH",
"44 761 OFFCURVE",
"268 592 OFFCURVE",
"692 592 CURVE",
"692 345 LINE",
"402 345 LINE",
"402 0 LINE"
);
}
);
width = 1741;
}
);
leftKerningGroup = paragraph;
leftMetricsKey = "=|P";
rightKerningGroup = H;
rightMetricsKey = "=|P";
unicode = 00B6;
},
{
color = 6;
glyphname = section;
layers = (
{
layerId = "BC722C43-F174-4026-9892-4620CE50CA16";
paths = (
{
closed = 1;
nodes = (
"967 -18 OFFCURVE",
"1116 118 OFFCURVE",
"1116 320 CURVE SMOOTH",
"1116 745 OFFCURVE",
"458 646 OFFCURVE",
"458 825 CURVE SMOOTH",
"458 862 OFFCURVE",
"488 905 OFFCURVE",
"566 915 CURVE",
"519 1052 LINE",
"224 1052 OFFCURVE",
"67 910 OFFCURVE",
"67 735 CURVE SMOOTH",
"67 361 OFFCURVE",
"635 467 OFFCURVE",
"635 278 CURVE SMOOTH",
"635 235 OFFCURVE",
"595 208 OFFCURVE",
"527 208 CURVE SMOOTH",
"437 208 OFFCURVE",
"354 272 OFFCURVE",
"323 376 CURVE",
"67 376 LINE",
"67 0 LINE",
"287 0 LINE",
"318 75 LINE",
"417 15 OFFCURVE",
"550 -18 OFFCURVE",
"686 -18 CURVE SMOOTH"
);
},
{
closed = 1;
nodes = (
"942 559 OFFCURVE",
"1101 705 OFFCURVE",
"1101 881 CURVE SMOOTH",
"1101 1238 OFFCURVE",
"573 1164 OFFCURVE",
"573 1322 CURVE SMOOTH",
"573 1362 OFFCURVE",
"603 1388 OFFCURVE",
"671 1388 CURVE SMOOTH",
"746 1388 OFFCURVE",
"815 1342 OFFCURVE",
"850 1241 CURVE",
"1106 1241 LINE",
"1106 1593 LINE",
"886 1593 LINE",
"862 1526 LINE",
"765 1586 OFFCURVE",
"655 1612 OFFCURVE",
"534 1612 CURVE SMOOTH",
"249 1612 OFFCURVE",
"92 1461 OFFCURVE",
"92 1276 CURVE SMOOTH",
"92 862 OFFCURVE",
"720 986 OFFCURVE",
"720 795 CURVE SMOOTH",
"720 744 OFFCURVE",
"690 719 OFFCURVE",
"632 709 CURVE",
"691 559 LINE"
);
}
);
width = 1193;
}
);
leftKerningGroup = section;
rightKerningGroup = section;
unicode = 00A7;
},
{
color = 6;
glyphname = copyright;
layers = (
{
layerId = "BC722C43-F174-4026-9892-4620CE50CA16";
paths = (
{
closed = 1;
nodes = (
"1360 -15 OFFCURVE",
"1693 338 OFFCURVE",
"1693 795 CURVE SMOOTH",
"1693 1252 OFFCURVE",
"1360 1605 OFFCURVE",
"883 1605 CURVE SMOOTH",
"406 1605 OFFCURVE",
"73 1252 OFFCURVE",
"73 795 CURVE SMOOTH",
"73 338 OFFCURVE",
"406 -15 OFFCURVE",
"883 -15 CURVE SMOOTH"
);
},
{
closed = 1;
nodes = (
"1033 371 OFFCURVE",
"1156 397 OFFCURVE",
"1240 455 CURVE",
"1240 685 LINE",
"1226 691 LINE",
"1155 634 OFFCURVE",
"1070 607 OFFCURVE",
"975 607 CURVE SMOOTH",
"828 607 OFFCURVE",
"744 687 OFFCURVE",
"744 822 CURVE SMOOTH",
"744 972 OFFCURVE",
"825 1039 OFFCURVE",
"909 1039 CURVE SMOOTH",
"984 1039 OFFCURVE",
"1040 997 OFFCURVE",
"1045 865 CURVE",
"1254 865 LINE",
"1254 1206 LINE",
"1095 1206 LINE",
"1067 1124 LINE",
"1015 1187 OFFCURVE",
"935 1221 OFFCURVE",
"825 1221 CURVE SMOOTH",
"615 1221 OFFCURVE",
"427 1076 OFFCURVE",
"427 814 CURVE SMOOTH",
"427 539 OFFCURVE",
"623 371 OFFCURVE",
"917 371 CURVE SMOOTH"
);
},
{
closed = 1;
nodes = (
"513 150 OFFCURVE",
"263 425 OFFCURVE",
"263 795 CURVE SMOOTH",
"263 1165 OFFCURVE",
"513 1440 OFFCURVE",
"883 1440 CURVE SMOOTH",
"1253 1440 OFFCURVE",
"1503 1165 OFFCURVE",
"1503 795 CURVE SMOOTH",
"1503 425 OFFCURVE",
"1253 150 OFFCURVE",
"883 150 CURVE SMOOTH"
);
}
);
width = 1766;
}
);
leftKerningGroup = O;
rightKerningGroup = O;
unicode = 00A9;
},
{
color = 6;
glyphname = registered;
layers = (
{
layerId = "BC722C43-F174-4026-9892-4620CE50CA16";
paths = (
{
closed = 1;
nodes = (
"1360 -15 OFFCURVE",
"1693 338 OFFCURVE",
"1693 795 CURVE SMOOTH",
"1693 1252 OFFCURVE",
"1360 1605 OFFCURVE",
"883 1605 CURVE SMOOTH",
"406 1605 OFFCURVE",
"73 1252 OFFCURVE",
"73 795 CURVE SMOOTH",
"73 338 OFFCURVE",
"406 -15 OFFCURVE",
"883 -15 CURVE SMOOTH"
);
},
{
closed = 1;
nodes = (
"513 150 OFFCURVE",
"263 425 OFFCURVE",
"263 795 CURVE SMOOTH",
"263 1165 OFFCURVE",
"513 1440 OFFCURVE",
"883 1440 CURVE SMOOTH",
"1253 1440 OFFCURVE",
"1503 1165 OFFCURVE",
"1503 795 CURVE SMOOTH",
"1503 425 OFFCURVE",
"1253 150 OFFCURVE",
"883 150 CURVE SMOOTH"
);
},
{
closed = 1;
nodes = (
"883 396 LINE",
"883 579 LINE",
"814 579 LINE",
"814 1018 LINE",
"894 1018 LINE SMOOTH",
"957 1018 OFFCURVE",
"992 991 OFFCURVE",
"992 938 CURVE SMOOTH",
"992 885 OFFCURVE",
"957 858 OFFCURVE",
"894 858 CURVE SMOOTH",
"782 858 LINE",
"782 708 LINE",
"881 708 LINE SMOOTH",
"933 708 OFFCURVE",
"958 683 OFFCURVE",
"958 628 CURVE SMOOTH",
"958 581 LINE SMOOTH",
"958 466 OFFCURVE",
"1021 396 OFFCURVE",
"1147 396 CURVE SMOOTH",
"1331 396 LINE",
"1331 579 LINE",
"1296 579 LINE SMOOTH",
"1261 579 OFFCURVE",
"1246 597 OFFCURVE",
"1246 633 CURVE SMOOTH",
"1246 664 LINE SMOOTH",
"1246 749 OFFCURVE",
"1184 802 OFFCURVE",
"1053 802 CURVE",
"1053 775 LINE",
"1188 775 OFFCURVE",
"1281 844 OFFCURVE",
"1281 976 CURVE SMOOTH",
"1281 1120 OFFCURVE",
"1167 1196 OFFCURVE",
"963 1196 CURVE SMOOTH",
"450 1196 LINE",
"450 1013 LINE",
"532 1013 LINE",
"532 579 LINE",
"450 579 LINE",
"450 396 LINE"
);
}
);
width = 1766;
}
);
leftKerningGroup = O;
rightKerningGroup = O;
unicode = 00AE;
},
{
color = 6;
glyphname = trademark;
layers = (
{
layerId = "BC722C43-F174-4026-9892-4620CE50CA16";
paths = (
{
closed = 1;
nodes = (
"1360 792 LINE",
"1360 977 LINE",
"1289 977 LINE",
"1289 1385 LINE",
"1270 1346 LINE",
"1491 792 LINE",
"1650 792 LINE",
"1881 1346 LINE",
"1852 1385 LINE",
"1852 977 LINE",
"1781 977 LINE",
"1781 792 LINE",
"2208 792 LINE",
"2208 977 LINE",
"2127 977 LINE",
"2127 1407 LINE",
"2208 1407 LINE",
"2208 1592 LINE",
"1816 1592 LINE",
"1583 1038 LINE",
"1686 1038 LINE",
"1469 1592 LINE",
"1038 1592 LINE",
"1038 1407 LINE",
"1119 1407 LINE",
"1119 977 LINE",
"1038 977 LINE",
"1038 792 LINE"
);
},
{
closed = 1;
nodes = (
"790 792 LINE",
"790 977 LINE",
"640 977 LINE",
"640 1417 LINE",
"733 1417 LINE",
"753 1259 LINE",
"933 1259 LINE",
"933 1592 LINE",
"60 1592 LINE",
"60 1259 LINE",
"240 1259 LINE",
"261 1417 LINE",
"353 1417 LINE",
"353 977 LINE",
"203 977 LINE",
"203 792 LINE"
);
}
);
width = 2248;
}
);
leftKerningGroup = trademark;
rightKerningGroup = trademark;
unicode = 2122;
},
{
color = 6;
glyphname = degree;
layers = (
{
layerId = "BC722C43-F174-4026-9892-4620CE50CA16";
paths = (
{
closed = 1;
nodes = (
"695 821 OFFCURVE",
"870 990 OFFCURVE",
"870 1221 CURVE SMOOTH",
"870 1452 OFFCURVE",
"695 1621 OFFCURVE",
"455 1621 CURVE SMOOTH",
"215 1621 OFFCURVE",
"40 1452 OFFCURVE",
"40 1221 CURVE SMOOTH",
"40 990 OFFCURVE",
"215 821 OFFCURVE",
"455 821 CURVE SMOOTH"
);
},
{
closed = 1;
nodes = (
"337 1015 OFFCURVE",
"256 1098 OFFCURVE",
"256 1221 CURVE SMOOTH",
"256 1344 OFFCURVE",
"337 1427 OFFCURVE",
"455 1427 CURVE SMOOTH",
"573 1427 OFFCURVE",
"654 1344 OFFCURVE",
"654 1221 CURVE SMOOTH",
"654 1098 OFFCURVE",
"573 1015 OFFCURVE",
"455 1015 CURVE SMOOTH"
);
}
);
width = 910;
}
);
leftKerningGroup = degree;
rightKerningGroup = degree;
rightMetricsKey = "=|";
unicode = 00B0;
},
{
color = 6;
glyphname = minute;
layers = (
{
layerId = "BC722C43-F174-4026-9892-4620CE50CA16";
paths = (
{
closed = 1;
nodes = (
"450 842 LINE",
"540 1592 LINE",
"50 1592 LINE",
"140 842 LINE"
);
}
);
width = 590;
}
);
leftKerningGroup = quote_straight;
rightKerningGroup = quote_straight;
rightMetricsKey = "=|";
unicode = 2032;
},
{
color = 6;
glyphname = second;
layers = (
{
layerId = "BC722C43-F174-4026-9892-4620CE50CA16";
paths = (
{
closed = 1;
nodes = (
"995 842 LINE",
"1085 1592 LINE",
"595 1592 LINE",
"685 842 LINE"
);
},
{
closed = 1;
nodes = (
"450 842 LINE",
"540 1592 LINE",
"50 1592 LINE",
"140 842 LINE"
);
}
);
width = 1135;
}
);
leftKerningGroup = quote_straight;
leftMetricsKey = quotesingle;
rightKerningGroup = quote_straight;
rightMetricsKey = "=|";
unicode = 2033;
},
{
color = 6;
glyphname = bar;
layers = (
{
layerId = "BC722C43-F174-4026-9892-4620CE50CA16";
paths = (
{
closed = 1;
nodes = (
"694 -398 LINE",
"694 1592 LINE",
"214 1592 LINE",
"214 -398 LINE"
);
}
);
width = 908;
}
);
rightMetricsKey = "=|";
unicode = 007C;
},
{
color = 6;
glyphname = brokenbar;
layers = (
{
layerId = "BC722C43-F174-4026-9892-4620CE50CA16";
paths = (
{
closed = 1;
nodes = (
"694 797 LINE",
"694 1592 LINE",
"214 1592 LINE",
"214 797 LINE"
);
},
{
closed = 1;
nodes = (
"694 -398 LINE",
"694 397 LINE",
"214 397 LINE",
"214 -398 LINE"
);
}
);
width = 908;
}
);
leftMetricsKey = bar;
rightMetricsKey = bar;
unicode = 00A6;
},
{
color = 6;
glyphname = dagger;
layers = (
{
layerId = "BC722C43-F174-4026-9892-4620CE50CA16";
paths = (
{
closed = 1;
nodes = (
"632 412 OFFCURVE",
"696 475 OFFCURVE",
"696 558 CURVE SMOOTH",
"696 584 OFFCURVE",
"690 616 OFFCURVE",
"686 650 CURVE SMOOTH",
"632 1132 LINE",
"436 1132 LINE",
"382 650 LINE SMOOTH",
"378 616 OFFCURVE",
"372 584 OFFCURVE",
"372 558 CURVE SMOOTH",
"372 475 OFFCURVE",
"436 412 OFFCURVE",
"534 412 CURVE SMOOTH"
);
},
{
closed = 1;
nodes = (
"202 970 OFFCURVE",
"219 971 OFFCURVE",
"252 980 CURVE SMOOTH",
"510 1050 LINE",
"510 1214 LINE",
"252 1284 LINE SMOOTH",
"219 1293 OFFCURVE",
"202 1294 OFFCURVE",
"176 1294 CURVE SMOOTH",
"93 1294 OFFCURVE",
"30 1230 OFFCURVE",
"30 1132 CURVE SMOOTH",
"30 1034 OFFCURVE",
"93 970 OFFCURVE",
"176 970 CURVE SMOOTH"
);
},
{
closed = 1;
nodes = (
"975 970 OFFCURVE",
"1038 1034 OFFCURVE",
"1038 1132 CURVE SMOOTH",
"1038 1230 OFFCURVE",
"975 1294 OFFCURVE",
"892 1294 CURVE SMOOTH",
"866 1294 OFFCURVE",
"849 1293 OFFCURVE",
"816 1284 CURVE SMOOTH",
"558 1214 LINE",
"558 1050 LINE",
"816 980 LINE SMOOTH",
"849 971 OFFCURVE",
"866 970 OFFCURVE",
"892 970 CURVE SMOOTH"
);
},
{
closed = 1;
nodes = (
"614 1132 LINE",
"686 1390 LINE SMOOTH",
"695 1423 OFFCURVE",
"696 1440 OFFCURVE",
"696 1466 CURVE SMOOTH",
"696 1549 OFFCURVE",
"632 1612 OFFCURVE",
"534 1612 CURVE SMOOTH",
"436 1612 OFFCURVE",
"372 1549 OFFCURVE",
"372 1466 CURVE SMOOTH",
"372 1440 OFFCURVE",
"373 1423 OFFCURVE",
"382 1390 CURVE SMOOTH",
"454 1132 LINE"
);
}
);
width = 1068;
}
);
leftKerningGroup = dagger;
rightKerningGroup = dagger;
rightMetricsKey = "=|";
unicode = 2020;
},
{
color = 6;
glyphname = daggerdbl;
layers = (
{
layerId = "BC722C43-F174-4026-9892-4620CE50CA16";
paths = (
{
closed = 1;
nodes = (
"975 970 OFFCURVE",
"1038 1034 OFFCURVE",
"1038 1132 CURVE SMOOTH",
"1038 1230 OFFCURVE",
"975 1294 OFFCURVE",
"892 1294 CURVE SMOOTH",
"866 1294 OFFCURVE",
"849 1293 OFFCURVE",
"816 1284 CURVE SMOOTH",
"558 1214 LINE",
"558 1050 LINE",
"816 980 LINE SMOOTH",
"849 971 OFFCURVE",
"866 970 OFFCURVE",
"892 970 CURVE SMOOTH"
);
},
{
closed = 1;
nodes = (
"202 488 OFFCURVE",
"219 489 OFFCURVE",
"252 498 CURVE SMOOTH",
"510 568 LINE",
"510 732 LINE",
"252 802 LINE SMOOTH",
"219 811 OFFCURVE",
"202 812 OFFCURVE",
"176 812 CURVE SMOOTH",
"93 812 OFFCURVE",
"30 748 OFFCURVE",
"30 650 CURVE SMOOTH",
"30 552 OFFCURVE",
"93 488 OFFCURVE",
"176 488 CURVE SMOOTH"
);
},
{
closed = 1;
nodes = (
"632 170 OFFCURVE",
"696 233 OFFCURVE",
"696 316 CURVE SMOOTH",
"696 342 OFFCURVE",
"695 359 OFFCURVE",
"686 392 CURVE SMOOTH",
"614 650 LINE",
"454 650 LINE",
"382 392 LINE SMOOTH",
"373 359 OFFCURVE",
"372 342 OFFCURVE",
"372 316 CURVE SMOOTH",
"372 233 OFFCURVE",
"436 170 OFFCURVE",
"534 170 CURVE SMOOTH"
);
},
{
closed = 1;
nodes = (
"975 488 OFFCURVE",
"1038 552 OFFCURVE",
"1038 650 CURVE SMOOTH",
"1038 748 OFFCURVE",
"975 812 OFFCURVE",
"892 812 CURVE SMOOTH",
"866 812 OFFCURVE",
"849 811 OFFCURVE",
"816 802 CURVE SMOOTH",
"558 732 LINE",
"558 568 LINE",
"816 498 LINE SMOOTH",
"849 489 OFFCURVE",
"866 488 OFFCURVE",
"892 488 CURVE SMOOTH"
);
},
{
closed = 1;
nodes = (
"202 970 OFFCURVE",
"219 971 OFFCURVE",
"252 980 CURVE SMOOTH",
"510 1050 LINE",
"510 1214 LINE",
"252 1284 LINE SMOOTH",
"219 1293 OFFCURVE",
"202 1294 OFFCURVE",
"176 1294 CURVE SMOOTH",
"93 1294 OFFCURVE",
"30 1230 OFFCURVE",
"30 1132 CURVE SMOOTH",
"30 1034 OFFCURVE",
"93 970 OFFCURVE",
"176 970 CURVE SMOOTH"
);
},
{
closed = 1;
nodes = (
"634 650 LINE",
"644 731 OFFCURVE",
"659 811 OFFCURVE",
"659 891 CURVE SMOOTH",
"659 971 OFFCURVE",
"644 1052 OFFCURVE",
"634 1132 CURVE",
"435 1132 LINE",
"425 1052 OFFCURVE",
"410 971 OFFCURVE",
"410 891 CURVE SMOOTH",
"410 811 OFFCURVE",
"425 731 OFFCURVE",
"435 650 CURVE"
);
},
{
closed = 1;
nodes = (
"614 1132 LINE",
"686 1390 LINE SMOOTH",
"695 1423 OFFCURVE",
"696 1440 OFFCURVE",
"696 1466 CURVE SMOOTH",
"696 1549 OFFCURVE",
"632 1612 OFFCURVE",
"534 1612 CURVE SMOOTH",
"436 1612 OFFCURVE",
"372 1549 OFFCURVE",
"372 1466 CURVE SMOOTH",
"372 1440 OFFCURVE",
"373 1423 OFFCURVE",
"382 1390 CURVE SMOOTH",
"454 1132 LINE"
);
}
);
width = 1068;
}
);
leftKerningGroup = dagger;
rightKerningGroup = dagger;
rightMetricsKey = "=|";
unicode = 2021;
},
{
color = 6;
glyphname = numero;
layers = (
{
layerId = "BC722C43-F174-4026-9892-4620CE50CA16";
paths = (
{
closed = 1;
nodes = (
"1654 0 LINE",
"1654 1247 LINE",
"1814 1247 LINE",
"1814 1592 LINE",
"1168 1592 LINE",
"1168 1247 LINE",
"1328 1247 LINE",
"1328 412 LINE",
"1397 567 LINE",
"779 1592 LINE",
"64 1592 LINE",
"64 1247 LINE",
"224 1247 LINE",
"224 345 LINE",
"64 345 LINE",
"64 0 LINE",
"710 0 LINE",
"710 345 LINE",
"550 345 LINE",
"550 1180 LINE",
"481 1025 LINE",
"1097 -1 LINE"
);
},
{
closed = 1;
nodes = (
"2809 523 LINE",
"2809 706 LINE",
"1895 706 LINE",
"1895 523 LINE"
);
},
{
closed = 1;
nodes = (
"2634 806 OFFCURVE",
"2809 961 OFFCURVE",
"2809 1214 CURVE SMOOTH",
"2809 1467 OFFCURVE",
"2634 1623 OFFCURVE",
"2351 1623 CURVE SMOOTH",
"2069 1623 OFFCURVE",
"1895 1467 OFFCURVE",
"1895 1214 CURVE SMOOTH",
"1895 961 OFFCURVE",
"2069 806 OFFCURVE",
"2352 806 CURVE SMOOTH"
);
},
{
closed = 1;
nodes = (
"2286 1017 OFFCURVE",
"2248 1085 OFFCURVE",
"2248 1214 CURVE SMOOTH",
"2248 1344 OFFCURVE",
"2285 1412 OFFCURVE",
"2351 1412 CURVE SMOOTH",
"2418 1412 OFFCURVE",
"2455 1344 OFFCURVE",
"2455 1214 CURVE SMOOTH",
"2455 1085 OFFCURVE",
"2418 1017 OFFCURVE",
"2352 1017 CURVE SMOOTH"
);
}
);
width = 2846;
}
);
unicode = 2116;
},
{
color = 6;
glyphname = cedi;
layers = (
{
layerId = "BC722C43-F174-4026-9892-4620CE50CA16";
paths = (
{
closed = 1;
nodes = (
"1062 -26 OFFCURVE",
"1270 17 OFFCURVE",
"1411 113 CURVE",
"1411 471 LINE",
"1386 481 LINE",
"1266 387 OFFCURVE",
"1124 342 OFFCURVE",
"979 342 CURVE SMOOTH",
"732 342 OFFCURVE",
"591 474 OFFCURVE",
"591 716 CURVE SMOOTH",
"591 962 OFFCURVE",
"722 1073 OFFCURVE",
"869 1073 CURVE SMOOTH",
"1001 1073 OFFCURVE",
"1089 1004 OFFCURVE",
"1099 786 CURVE",
"1433 786 LINE",
"1433 1352 LINE",
"1182 1352 LINE",
"1135 1212 LINE",
"1047 1316 OFFCURVE",
"912 1372 OFFCURVE",
"727 1372 CURVE SMOOTH",
"373 1372 OFFCURVE",
"73 1134 OFFCURVE",
"73 702 CURVE SMOOTH",
"73 251 OFFCURVE",
"385 -26 OFFCURVE",
"882 -26 CURVE SMOOTH"
);
},
{
closed = 1;
nodes = (
"959 -200 LINE",
"959 1552 LINE",
"761 1552 LINE",
"761 -200 LINE"
);
}
);
width = 1525;
}
);
leftKerningGroup = zero;
leftMetricsKey = C;
rightKerningGroup = euro;
rightMetricsKey = C;
unicode = 20B5;
},
{
color = 6;
glyphname = cent;
layers = (
{
anchors = (
{
name = bottom;
position = "{616, 0}";
},
{
name = cedilla;
position = "{659, 0}";
},
{
name = top;
position = "{616, 1072}";
}
);
layerId = "BC722C43-F174-4026-9892-4620CE50CA16";
paths = (
{
closed = 1;
nodes = (
"830 -18 OFFCURVE",
"1019 30 OFFCURVE",
"1114 97 CURVE",
"1114 394 LINE",
"1087 406 LINE",
"1011 342 OFFCURVE",
"901 292 OFFCURVE",
"769 292 CURVE SMOOTH",
"599 292 OFFCURVE",
"481 365 OFFCURVE",
"481 550 CURVE SMOOTH",
"481 728 OFFCURVE",
"574 799 OFFCURVE",
"703 799 CURVE SMOOTH",
"792 799 OFFCURVE",
"847 743 OFFCURVE",
"868 628 CURVE",
"1136 628 LINE",
"1136 1072 LINE",
"915 1072 LINE",
"875 957 LINE",
"803 1039 OFFCURVE",
"701 1090 OFFCURVE",
"565 1090 CURVE SMOOTH",
"284 1090 OFFCURVE",
"53 878 OFFCURVE",
"53 546 CURVE SMOOTH",
"53 193 OFFCURVE",
"285 -18 OFFCURVE",
"664 -18 CURVE SMOOTH"
);
},
{
closed = 1;
nodes = (
"784 -200 LINE",
"784 1272 LINE",
"586 1272 LINE",
"586 -200 LINE"
);
}
);
width = 1197;
}
);
leftKerningGroup = o;
leftMetricsKey = c;
rightKerningGroup = c;
rightMetricsKey = c;
unicode = 00A2;
},
{
color = 6;
glyphname = colonsign;
layers = (
{
layerId = "BC722C43-F174-4026-9892-4620CE50CA16";
paths = (
{
closed = 1;
nodes = (
"1063 -27 OFFCURVE",
"1271 16 OFFCURVE",
"1413 112 CURVE",
"1413 470 LINE",
"1388 480 LINE",
"1268 386 OFFCURVE",
"1125 333 OFFCURVE",
"981 333 CURVE SMOOTH",
"715 333 OFFCURVE",
"591 473 OFFCURVE",
"591 678 CURVE SMOOTH",
"591 871 OFFCURVE",
"715 1011 OFFCURVE",
"981 1011 CURVE SMOOTH",
"1125 1011 OFFCURVE",
"1268 959 OFFCURVE",
"1388 865 CURVE",
"1413 875 LINE",
"1413 1232 LINE",
"1271 1328 OFFCURVE",
"1063 1371 OFFCURVE",
"883 1371 CURVE SMOOTH",
"395 1371 OFFCURVE",
"73 1094 OFFCURVE",
"73 678 CURVE SMOOTH",
"73 250 OFFCURVE",
"395 -27 OFFCURVE",
"883 -27 CURVE SMOOTH"
);
},
{
closed = 1;
nodes = (
"733 -200 LINE",
"1010 1572 LINE",
"812 1572 LINE",
"535 -200 LINE"
);
},
{
closed = 1;
nodes = (
"1056 -200 LINE",
"1333 1572 LINE",
"1135 1572 LINE",
"858 -200 LINE"
);
}
);
width = 1515;
}
);
leftKerningGroup = zero;
leftMetricsKey = C;
rightMetricsKey = "=C+10";
unicode = 20A1;
},
{
color = 6;
glyphname = currency;
layers = (
{
layerId = "BC722C43-F174-4026-9892-4620CE50CA16";
paths = (
{
closed = 1;
nodes = (
"756 -16 OFFCURVE",
"872 18 OFFCURVE",
"973 87 CURVE",
"1059 1 LINE",
"1162 104 LINE",
"1081 185 LINE",
"1159 280 OFFCURVE",
"1198 399 OFFCURVE",
"1198 541 CURVE SMOOTH",
"1198 678 OFFCURVE",
"1161 794 OFFCURVE",
"1088 889 CURVE",
"1162 963 LINE",
"1059 1066 LINE",
"982 989 LINE",
"880 1062 OFFCURVE",
"761 1099 OFFCURVE",
"624 1099 CURVE SMOOTH",
"491 1099 OFFCURVE",
"374 1064 OFFCURVE",
"272 994 CURVE",
"201 1066 LINE",
"98 963 LINE",
"165 895 LINE",
"88 800 OFFCURVE",
"50 682 OFFCURVE",
"50 542 CURVE SMOOTH",
"50 541 LINE SMOOTH",
"50 396 OFFCURVE",
"91 275 OFFCURVE",
"172 178 CURVE",
"98 104 LINE",
"201 1 LINE",
"282 82 LINE",
"381 17 OFFCURVE",
"495 -16 OFFCURVE",
"624 -16 CURVE SMOOTH"
);
},
{
closed = 1;
nodes = (
"575 145 OFFCURVE",
"529 153 OFFCURVE",
"484 170 CURVE SMOOTH",
"439 187 OFFCURVE",
"398 211 OFFCURVE",
"362 243 CURVE SMOOTH",
"326 275 OFFCURVE",
"297 317 OFFCURVE",
"275 369 CURVE SMOOTH",
"253 421 OFFCURVE",
"242 478 OFFCURVE",
"242 541 CURVE SMOOTH",
"242 604 OFFCURVE",
"253 661 OFFCURVE",
"275 713 CURVE SMOOTH",
"297 765 OFFCURVE",
"326 807 OFFCURVE",
"362 839 CURVE SMOOTH",
"398 871 OFFCURVE",
"438 895 OFFCURVE",
"483 912 CURVE SMOOTH",
"528 929 OFFCURVE",
"574 937 OFFCURVE",
"622 937 CURVE SMOOTH",
"670 937 OFFCURVE",
"716 928 OFFCURVE",
"761 911 CURVE SMOOTH",
"806 894 OFFCURVE",
"846 870 OFFCURVE",
"882 838 CURVE SMOOTH",
"918 806 OFFCURVE",
"947 764 OFFCURVE",
"968 712 CURVE",
"971 714 LINE",
"993 663 OFFCURVE",
"1004 606 OFFCURVE",
"1004 543 CURVE SMOOTH",
"1004 480 OFFCURVE",
"993 422 OFFCURVE",
"971 370 CURVE SMOOTH",
"949 318 OFFCURVE",
"920 276 OFFCURVE",
"884 244 CURVE SMOOTH",
"848 212 OFFCURVE",
"807 188 OFFCURVE",
"762 171 CURVE SMOOTH",
"717 154 OFFCURVE",
"671 145 OFFCURVE",
"623 145 CURVE SMOOTH"
);
}
);
width = 1248;
}
);
unicode = 00A4;
},
{
color = 6;
glyphname = dollar;
layers = (
{
layerId = "BC722C43-F174-4026-9892-4620CE50CA16";
paths = (
{
closed = 1;
nodes = (
"1124 -27 OFFCURVE",
"1319 136 OFFCURVE",
"1319 405 CURVE SMOOTH",
"1319 989 OFFCURVE",
"497 800 OFFCURVE",
"497 1016 CURVE SMOOTH",
"497 1082 OFFCURVE",
"549 1118 OFFCURVE",
"680 1118 CURVE SMOOTH",
"812 1118 OFFCURVE",
"922 1043 OFFCURVE",
"956 909 CURVE",
"1289 909 LINE",
"1289 1352 LINE",
"1049 1352 LINE",
"1004 1213 LINE",
"920 1314 OFFCURVE",
"791 1372 OFFCURVE",
"593 1372 CURVE SMOOTH",
"261 1372 OFFCURVE",
"62 1201 OFFCURVE",
"62 946 CURVE SMOOTH",
"62 346 OFFCURVE",
"884 576 OFFCURVE",
"884 330 CURVE SMOOTH",
"884 266 OFFCURVE",
"839 227 OFFCURVE",
"708 227 CURVE SMOOTH",
"535 227 OFFCURVE",
"414 320 OFFCURVE",
"393 451 CURVE",
"66 451 LINE",
"66 0 LINE",
"307 0 LINE",
"352 131 LINE",
"437 34 OFFCURVE",
"578 -27 OFFCURVE",
"799 -27 CURVE SMOOTH"
);
},
{
closed = 1;
nodes = (
"792 -200 LINE",
"792 1552 LINE",
"594 1552 LINE",
"594 -200 LINE"
);
}
);
width = 1381;
}
);
leftKerningGroup = dollar;
leftMetricsKey = S;
rightKerningGroup = dollar;
rightMetricsKey = S;
unicode = 0024;
},
{
color = 6;
glyphname = dong;
layers = (
{
layerId = "BC722C43-F174-4026-9892-4620CE50CA16";
paths = (
{
closed = 1;
nodes = (
"638 -18 OFFCURVE",
"753 33 OFFCURVE",
"836 112 CURVE",
"836 0 LINE",
"1446 0 LINE",
"1446 300 LINE",
"1306 300 LINE",
"1306 1560 LINE",
"826 1514 LINE",
"826 965 LINE",
"726 1046 OFFCURVE",
"609 1090 OFFCURVE",
"500 1090 CURVE SMOOTH",
"234 1090 OFFCURVE",
"58 873 OFFCURVE",
"58 538 CURVE SMOOTH",
"58 203 OFFCURVE",
"234 -18 OFFCURVE",
"525 -18 CURVE SMOOTH"
);
},
{
closed = 1;
nodes = (
"1446 -333 LINE",
"1446 -150 LINE",
"108 -150 LINE",
"108 -333 LINE"
);
},
{
closed = 1;
nodes = (
"586 281 OFFCURVE",
"531 377 OFFCURVE",
"531 537 CURVE SMOOTH",
"531 697 OFFCURVE",
"586 791 OFFCURVE",
"680 791 CURVE SMOOTH",
"730 791 OFFCURVE",
"790 771 OFFCURVE",
"826 745 CURVE",
"826 324 LINE",
"790 298 OFFCURVE",
"730 281 OFFCURVE",
"680 281 CURVE SMOOTH"
);
},
{
closed = 1;
nodes = (
"1416 1222 LINE",
"1416 1405 LINE",
"466 1405 LINE",
"466 1222 LINE"
);
}
);
width = 1493;
}
);
leftKerningGroup = o;
leftMetricsKey = d;
widthMetricsKey = d;
rightKerningGroup = l;
unicode = 20AB;
},
{
color = 6;
glyphname = euro;
layers = (
{
layerId = "BC722C43-F174-4026-9892-4620CE50CA16";
paths = (
{
closed = 1;
nodes = (
"1173 -26 OFFCURVE",
"1381 17 OFFCURVE",
"1521 113 CURVE",
"1521 471 LINE",
"1497 481 LINE",
"1378 387 OFFCURVE",
"1235 342 OFFCURVE",
"1090 342 CURVE SMOOTH",
"843 342 OFFCURVE",
"702 474 OFFCURVE",
"702 716 CURVE SMOOTH",
"702 962 OFFCURVE",
"834 1073 OFFCURVE",
"979 1073 CURVE SMOOTH",
"1112 1073 OFFCURVE",
"1200 1004 OFFCURVE",
"1210 786 CURVE",
"1544 786 LINE",
"1544 1352 LINE",
"1293 1352 LINE",
"1246 1212 LINE",
"1158 1316 OFFCURVE",
"1023 1372 OFFCURVE",
"838 1372 CURVE SMOOTH",
"484 1372 OFFCURVE",
"184 1134 OFFCURVE",
"184 702 CURVE SMOOTH",
"184 251 OFFCURVE",
"496 -26 OFFCURVE",
"992 -26 CURVE SMOOTH"
);
},
{
closed = 1;
nodes = (
"1053 459 LINE",
"1053 642 LINE",
"73 642 LINE",
"73 459 LINE"
);
},
{
closed = 1;
nodes = (
"1053 762 LINE",
"1053 945 LINE",
"73 945 LINE",
"73 762 LINE"
);
}
);
width = 1636;
}
);
rightKerningGroup = euro;
rightMetricsKey = C;
unicode = 20AC;
},
{
color = 6;
glyphname = franc;
layers = (
{
layerId = "BC722C43-F174-4026-9892-4620CE50CA16";
paths = (
{
closed = 1;
nodes = (
"950 0 LINE",
"950 300 LINE",
"704 300 LINE",
"704 643 LINE",
"925 643 LINE",
"925 893 LINE",
"704 893 LINE",
"704 1057 LINE",
"1022 1057 LINE",
"1052 790 LINE",
"1352 790 LINE",
"1352 1352 LINE",
"79 1352 LINE",
"79 1052 LINE",
"224 1052 LINE",
"224 300 LINE",
"79 300 LINE",
"79 0 LINE"
);
},
{
closed = 1;
nodes = (
"1185 380 LINE",
"1185 563 LINE",
"114 563 LINE",
"114 380 LINE"
);
}
);
width = 1387;
}
);
leftKerningGroup = franc;
rightKerningGroup = franc;
rightMetricsKey = F;
unicode = 20A3;
},
{
color = 6;
glyphname = guarani;
layers = (
{
layerId = "BC722C43-F174-4026-9892-4620CE50CA16";
paths = (
{
closed = 1;
nodes = (
"1158 -26 OFFCURVE",
"1383 23 OFFCURVE",
"1523 93 CURVE",
"1523 656 LINE",
"1104 656 LINE",
"1104 332 LINE",
"1065 321 OFFCURVE",
"1018 315 OFFCURVE",
"972 315 CURVE SMOOTH",
"722 315 OFFCURVE",
"588 451 OFFCURVE",
"588 704 CURVE SMOOTH",
"588 958 OFFCURVE",
"726 1073 OFFCURVE",
"897 1073 CURVE SMOOTH",
"1060 1073 OFFCURVE",
"1133 1009 OFFCURVE",
"1157 857 CURVE",
"1493 857 LINE",
"1493 1352 LINE",
"1243 1352 LINE",
"1196 1214 LINE",
"1107 1319 OFFCURVE",
"971 1372 OFFCURVE",
"746 1372 CURVE SMOOTH",
"341 1372 OFFCURVE",
"73 1103 OFFCURVE",
"73 703 CURVE SMOOTH",
"73 255 OFFCURVE",
"402 -26 OFFCURVE",
"943 -26 CURVE SMOOTH"
);
},
{
closed = 1;
nodes = (
"973 -200 LINE",
"973 1552 LINE",
"775 1552 LINE",
"775 -200 LINE"
);
}
);
width = 1633;
}
);
leftKerningGroup = zero;
leftMetricsKey = G;
rightKerningGroup = euro;
rightMetricsKey = G;
unicode = 20B2;
},
{
color = 6;
glyphname = kip;
layers = (
{
layerId = "BC722C43-F174-4026-9892-4620CE50CA16";
paths = (
{
closed = 1;
nodes = (
"1646 0 LINE",
"1646 300 LINE",
"1524 300 LINE",
"996 797 LINE",
"807 555 LINE",
"1439 1052 LINE",
"1576 1052 LINE",
"1576 1352 LINE",
"911 1352 LINE",
"911 1052 LINE",
"1061 1052 LINE",
"606 691 LINE",
"619 661 LINE",
"986 300 LINE",
"911 300 LINE",
"911 0 LINE"
);
},
{
closed = 1;
nodes = (
"778 0 LINE",
"778 300 LINE",
"703 300 LINE",
"703 1052 LINE",
"791 1052 LINE",
"791 1352 LINE",
"79 1352 LINE",
"79 1052 LINE",
"224 1052 LINE",
"224 300 LINE",
"79 300 LINE",
"79 0 LINE"
);
},
{
closed = 1;
nodes = (
"1561 585 LINE",
"1561 768 LINE",
"114 768 LINE",
"114 585 LINE"
);
}
);
width = 1661;
}
);
leftKerningGroup = kip;
rightKerningGroup = kip;
rightMetricsKey = K;
unicode = 20AD;
},
{
color = 6;
glyphname = lira;
layers = (
{
layerId = "BC722C43-F174-4026-9892-4620CE50CA16";
paths = (
{
closed = 1;
nodes = (
"1412 0 LINE",
"1412 560 LINE",
"1100 560 LINE",
"1067 295 LINE",
"704 295 LINE",
"704 814 LINE SMOOTH",
"704 959 OFFCURVE",
"804 1034 OFFCURVE",
"994 1034 CURVE SMOOTH",
"1124 1034 OFFCURVE",
"1222 1016 OFFCURVE",
"1336 969 CURVE",
"1353 976 LINE",
"1353 1297 LINE",
"1227 1349 OFFCURVE",
"1094 1372 OFFCURVE",
"913 1372 CURVE SMOOTH",
"484 1372 OFFCURVE",
"224 1171 OFFCURVE",
"224 841 CURVE SMOOTH",
"224 300 LINE",
"79 300 LINE",
"79 0 LINE"
);
},
{
closed = 1;
nodes = (
"968 422 LINE",
"968 605 LINE",
"114 605 LINE",
"114 422 LINE"
);
},
{
closed = 1;
nodes = (
"968 725 LINE",
"968 908 LINE",
"114 908 LINE",
"114 725 LINE"
);
}
);
width = 1460;
}
);
leftKerningGroup = lira;
rightKerningGroup = lira;
unicode = 20A4;
},
{
color = 6;
glyphname = liraTurkish;
layers = (
{
layerId = "BC722C43-F174-4026-9892-4620CE50CA16";
paths = (
{
closed = 1;
nodes = (
"725 0 LINE SMOOTH",
"1252 0 OFFCURVE",
"1511 228 OFFCURVE",
"1511 677 CURVE",
"1139 677 LINE",
"1139 410 OFFCURVE",
"979 300 OFFCURVE",
"772 300 CURVE SMOOTH",
"704 300 LINE",
"704 1352 LINE",
"224 1352 LINE",
"224 300 LINE",
"79 300 LINE",
"79 0 LINE"
);
},
{
closed = 1;
nodes = (
"1068 816 LINE",
"1068 1029 LINE",
"114 600 LINE",
"114 387 LINE"
);
},
{
closed = 1;
nodes = (
"1068 1159 LINE",
"1068 1372 LINE",
"114 943 LINE",
"114 730 LINE"
);
}
);
width = 1521;
}
);
leftKerningGroup = liraTurkish;
rightKerningGroup = liraTurkish;
unicode = 20BA;
},
{
color = 6;
glyphname = manat;
layers = (
{
layerId = "BC722C43-F174-4026-9892-4620CE50CA16";
paths = (
{
closed = 1;
nodes = (
"673 0 LINE",
"673 390 LINE SMOOTH",
"673 927 OFFCURVE",
"758 1075 OFFCURVE",
"948 1075 CURVE SMOOTH",
"1139 1075 OFFCURVE",
"1223 927 OFFCURVE",
"1223 390 CURVE SMOOTH",
"1223 0 LINE",
"1848 0 LINE",
"1848 300 LINE",
"1703 300 LINE",
"1703 441 LINE SMOOTH",
"1703 939 OFFCURVE",
"1510 1372 OFFCURVE",
"948 1372 CURVE SMOOTH",
"387 1372 OFFCURVE",
"193 939 OFFCURVE",
"193 441 CURVE SMOOTH",
"193 300 LINE",
"48 300 LINE",
"48 0 LINE"
);
},
{
closed = 1;
nodes = (
"1048 0 LINE",
"1045 1552 LINE",
"847 1552 LINE",
"850 0 LINE"
);
}
);
width = 1896;
}
);
leftKerningGroup = manat;
leftMetricsKey = U;
rightKerningGroup = manat;
rightMetricsKey = "=|";
unicode = 20BC;
},
{
color = 6;
glyphname = naira;
layers = (
{
layerId = "BC722C43-F174-4026-9892-4620CE50CA16";
paths = (
{
closed = 1;
nodes = (
"1553 0 LINE",
"1553 1052 LINE",
"1698 1052 LINE",
"1698 1352 LINE",
"1101 1352 LINE",
"1101 1052 LINE",
"1250 1052 LINE",
"1250 350 LINE",
"1305 461 LINE",
"740 1352 LINE",
"79 1352 LINE",
"79 1052 LINE",
"224 1052 LINE",
"224 300 LINE",
"79 300 LINE",
"79 0 LINE",
"675 0 LINE",
"675 300 LINE",
"527 300 LINE",
"527 1002 LINE",
"472 890 LINE",
"1034 -1 LINE"
);
},
{
closed = 1;
nodes = (
"386 736 LINE",
"386 919 LINE",
"114 919 LINE",
"114 736 LINE"
);
},
{
closed = 1;
nodes = (
"1102 433 LINE",
"1102 616 LINE",
"114 616 LINE",
"114 433 LINE"
);
},
{
closed = 1;
nodes = (
"1663 736 LINE",
"1663 919 LINE",
"786 919 LINE",
"786 736 LINE"
);
},
{
closed = 1;
nodes = (
"1663 433 LINE",
"1663 616 LINE",
"1400 616 LINE",
"1400 433 LINE"
);
}
);
width = 1777;
}
);
leftKerningGroup = naira;
rightKerningGroup = naira;
unicode = 20A6;
},
{
color = 6;
glyphname = peseta;
layers = (
{
layerId = "BC722C43-F174-4026-9892-4620CE50CA16";
paths = (
{
closed = 1;
nodes = (
"982 0 LINE",
"982 300 LINE",
"704 300 LINE",
"704 503 LINE",
"780 503 LINE SMOOTH",
"1183 503 OFFCURVE",
"1396 646 OFFCURVE",
"1396 923 CURVE SMOOTH",
"1396 1208 OFFCURVE",
"1183 1352 OFFCURVE",
"771 1352 CURVE SMOOTH",
"79 1352 LINE",
"79 1052 LINE",
"224 1052 LINE",
"224 300 LINE",
"79 300 LINE",
"79 0 LINE"
);
},
{
closed = 1;
nodes = (
"704 1068 LINE",
"836 1068 OFFCURVE",
"900 1024 OFFCURVE",
"900 915 CURVE SMOOTH",
"900 808 OFFCURVE",
"836 762 OFFCURVE",
"704 762 CURVE"
);
},
{
closed = 1;
nodes = (
"2042 -18 OFFCURVE",
"2116 -8 OFFCURVE",
"2192 10 CURVE",
"2192 296 LINE",
"2165 308 LINE",
"2136 299 OFFCURVE",
"2105 288 OFFCURVE",
"2059 288 CURVE SMOOTH",
"1989 288 OFFCURVE",
"1950 335 OFFCURVE",
"1950 415 CURVE SMOOTH",
"1950 772 LINE",
"2192 772 LINE",
"2192 1072 LINE",
"1950 1072 LINE",
"1950 1406 LINE",
"1470 1301 LINE",
"1470 405 LINE SMOOTH",
"1470 130 OFFCURVE",
"1649 -18 OFFCURVE",
"1955 -18 CURVE SMOOTH"
);
},
{
closed = 1;
nodes = (
"3139 -18 OFFCURVE",
"3298 118 OFFCURVE",
"3298 330 CURVE SMOOTH",
"3298 745 OFFCURVE",
"2780 646 OFFCURVE",
"2780 815 CURVE SMOOTH",
"2780 852 OFFCURVE",
"2810 875 OFFCURVE",
"2868 875 CURVE SMOOTH",
"2933 875 OFFCURVE",
"3002 829 OFFCURVE",
"3037 728 CURVE",
"3293 728 LINE",
"3293 1072 LINE",
"3073 1072 LINE",
"3049 1005 LINE",
"2952 1065 OFFCURVE",
"2842 1091 OFFCURVE",
"2721 1091 CURVE SMOOTH",
"2426 1091 OFFCURVE",
"2279 940 OFFCURVE",
"2279 755 CURVE SMOOTH",
"2279 341 OFFCURVE",
"2787 465 OFFCURVE",
"2787 274 CURVE SMOOTH",
"2787 233 OFFCURVE",
"2757 208 OFFCURVE",
"2719 208 CURVE SMOOTH",
"2649 208 OFFCURVE",
"2566 272 OFFCURVE",
"2535 376 CURVE",
"2279 376 LINE",
"2279 0 LINE",
"2499 0 LINE",
"2530 75 LINE",
"2629 15 OFFCURVE",
"2762 -18 OFFCURVE",
"2878 -18 CURVE SMOOTH"
);
}
);
width = 3345;
}
);
leftKerningGroup = H;
rightKerningGroup = s;
rightMetricsKey = "=s";
unicode = 20A7;
},
{
color = 6;
glyphname = peso;
layers = (
{
layerId = "BC722C43-F174-4026-9892-4620CE50CA16";
paths = (
{
closed = 1;
nodes = (
"704 0 LINE",
"704 184 LINE",
"810 184 LINE SMOOTH",
"1256 184 OFFCURVE",
"1500 378 OFFCURVE",
"1500 764 CURVE SMOOTH",
"1500 1153 OFFCURVE",
"1253 1352 OFFCURVE",
"810 1352 CURVE SMOOTH",
"224 1352 LINE",
"224 0 LINE"
);
},
{
closed = 1;
nodes = (
"1610 525 LINE",
"1610 708 LINE",
"73 708 LINE",
"73 525 LINE"
);
},
{
closed = 1;
nodes = (
"704 1104 LINE",
"758 1104 LINE SMOOTH",
"953 1104 OFFCURVE",
"1034 998 OFFCURVE",
"1034 768 CURVE SMOOTH",
"1034 537 OFFCURVE",
"951 432 OFFCURVE",
"748 432 CURVE SMOOTH",
"704 432 LINE"
);
},
{
closed = 1;
nodes = (
"1610 828 LINE",
"1610 1011 LINE",
"73 1011 LINE",
"73 828 LINE"
);
}
);
width = 1672;
}
);
leftKerningGroup = peso;
rightKerningGroup = peso;
unicode = 20B1;
},
{
color = 6;
glyphname = ruble;
layers = (
{
layerId = "BC722C43-F174-4026-9892-4620CE50CA16";
paths = (
{
closed = 1;
nodes = (
"732 0 LINE",
"732 568 LINE",
"963 568 LINE SMOOTH",
"1341 568 OFFCURVE",
"1551 706 OFFCURVE",
"1551 956 CURVE SMOOTH",
"1551 1213 OFFCURVE",
"1344 1352 OFFCURVE",
"963 1352 CURVE SMOOTH",
"79 1352 LINE",
"79 1052 LINE",
"224 1052 LINE",
"224 0 LINE"
);
},
{
closed = 1;
nodes = (
"1132 265 LINE",
"1132 448 LINE",
"114 448 LINE",
"114 265 LINE"
);
},
{
closed = 1;
nodes = (
"592 568 LINE",
"592 751 LINE",
"114 751 LINE",
"114 568 LINE"
);
},
{
closed = 1;
nodes = (
"732 1077 LINE",
"845 1077 LINE SMOOTH",
"960 1077 OFFCURVE",
"1029 1024 OFFCURVE",
"1029 914 CURVE SMOOTH",
"1029 803 OFFCURVE",
"958 751 OFFCURVE",
"835 751 CURVE SMOOTH",
"732 751 LINE"
);
}
);
width = 1595;
}
);
leftKerningGroup = ruble;
rightKerningGroup = ruble;
rightMetricsKey = P;
unicode = 20BD;
},
{
color = 6;
glyphname = rupeeIndian;
layers = (
{
layerId = "BC722C43-F174-4026-9892-4620CE50CA16";
paths = (
{
closed = 1;
nodes = (
"1327 0 LINE",
"1327 300 LINE",
"1211 300 LINE SMOOTH",
"1154 300 OFFCURVE",
"1124 326 OFFCURVE",
"1124 390 CURVE SMOOTH",
"1124 420 LINE SMOOTH",
"1124 587 OFFCURVE",
"988 661 OFFCURVE",
"728 661 CURVE",
"738 615 LINE",
"1019 615 OFFCURVE",
"1181 742 OFFCURVE",
"1181 947 CURVE SMOOTH",
"1181 1169 OFFCURVE",
"994 1281 OFFCURVE",
"583 1281 CURVE",
"114 1281 LINE",
"114 1169 LINE",
"417 1169 LINE SMOOTH",
"580 1169 OFFCURVE",
"659 1102 OFFCURVE",
"659 958 CURVE SMOOTH",
"659 813 OFFCURVE",
"580 746 OFFCURVE",
"417 746 CURVE SMOOTH",
"70 746 LINE",
"70 470 LINE",
"403 470 LINE SMOOTH",
"530 470 OFFCURVE",
"583 433 OFFCURVE",
"583 343 CURVE SMOOTH",
"583 286 LINE SMOOTH",
"583 93 OFFCURVE",
"707 0 OFFCURVE",
"919 0 CURVE SMOOTH"
);
},
{
closed = 1;
nodes = (
"1301 866 LINE",
"1301 1049 LINE",
"70 1049 LINE",
"70 866 LINE"
);
},
{
closed = 1;
nodes = (
"1301 1169 LINE",
"1301 1352 LINE",
"70 1352 LINE",
"70 1169 LINE"
);
}
);
width = 1392;
}
);
leftKerningGroup = rupeeIndian;
rightKerningGroup = rupeeIndian;
unicode = 20B9;
},
{
color = 6;
glyphname = sterling;
layers = (
{
layerId = "BC722C43-F174-4026-9892-4620CE50CA16";
paths = (
{
closed = 1;
nodes = (
"1412 0 LINE",
"1412 560 LINE",
"1100 560 LINE",
"1067 295 LINE",
"704 295 LINE",
"704 814 LINE SMOOTH",
"704 959 OFFCURVE",
"804 1034 OFFCURVE",
"994 1034 CURVE SMOOTH",
"1124 1034 OFFCURVE",
"1222 1016 OFFCURVE",
"1336 969 CURVE",
"1353 976 LINE",
"1353 1297 LINE",
"1227 1349 OFFCURVE",
"1094 1372 OFFCURVE",
"913 1372 CURVE SMOOTH",
"484 1372 OFFCURVE",
"224 1171 OFFCURVE",
"224 841 CURVE SMOOTH",
"224 300 LINE",
"79 300 LINE",
"79 0 LINE"
);
},
{
closed = 1;
nodes = (
"968 574 LINE",
"968 757 LINE",
"114 757 LINE",
"114 574 LINE"
);
}
);
width = 1460;
}
);
leftKerningGroup = lira;
rightKerningGroup = lira;
unicode = 00A3;
},
{
color = 6;
glyphname = won;
layers = (
{
layerId = "BC722C43-F174-4026-9892-4620CE50CA16";
paths = (
{
closed = 1;
nodes = (
"1019 0 LINE",
"1272 789 LINE",
"1175 789 LINE",
"1425 0 LINE",
"1943 0 LINE",
"2284 1052 LINE",
"2415 1052 LINE",
"2415 1352 LINE",
"1817 1352 LINE",
"1817 1052 LINE",
"1967 1052 LINE",
"1719 176 LINE",
"1836 176 LINE",
"1501 1352 LINE",
"1146 1352 LINE",
"795 176 LINE",
"920 176 LINE",
"678 1052 LINE",
"827 1052 LINE",
"827 1352 LINE",
"20 1352 LINE",
"20 1052 LINE",
"151 1052 LINE",
"492 0 LINE"
);
},
{
closed = 1;
nodes = (
"757 346 LINE",
"757 529 LINE",
"80 529 LINE",
"80 346 LINE"
);
},
{
closed = 1;
nodes = (
"2353 649 LINE",
"2353 832 LINE",
"80 832 LINE",
"80 649 LINE"
);
},
{
closed = 1;
nodes = (
"2353 346 LINE",
"2353 529 LINE",
"1857 529 LINE",
"1857 346 LINE"
);
}
);
width = 2435;
}
);
leftKerningGroup = won;
rightKerningGroup = won;
unicode = 20A9;
},
{
color = 6;
glyphname = yen;
layers = (
{
layerId = "BC722C43-F174-4026-9892-4620CE50CA16";
paths = (
{
closed = 1;
nodes = (
"1390 0 LINE",
"1390 300 LINE",
"1100 300 LINE",
"1100 850 LINE",
"1033 504 LINE",
"1522 1052 LINE",
"1667 1052 LINE",
"1667 1352 LINE",
"1051 1352 LINE",
"1051 1052 LINE",
"1143 1052 LINE",
"913 787 LINE",
"1050 778 LINE",
"819 1052 LINE",
"911 1052 LINE",
"911 1352 LINE",
"25 1352 LINE",
"25 1052 LINE",
"170 1052 LINE",
"801 391 LINE",
"592 744 LINE",
"592 300 LINE",
"302 300 LINE",
"302 0 LINE"
);
},
{
closed = 1;
nodes = (
"712 723 LINE",
"712 906 LINE",
"211 906 LINE",
"211 723 LINE"
);
},
{
closed = 1;
nodes = (
"1481 420 LINE",
"1481 603 LINE",
"211 603 LINE",
"211 420 LINE"
);
},
{
closed = 1;
nodes = (
"1481 723 LINE",
"1481 906 LINE",
"1142 906 LINE",
"1142 723 LINE"
);
}
);
width = 1692;
}
);
leftKerningGroup = yen;
rightKerningGroup = yen;
unicode = 00A5;
},
{
color = 6;
glyphname = cedi.ss01;
layers = (
{
layerId = "BC722C43-F174-4026-9892-4620CE50CA16";
paths = (
{
closed = 1;
nodes = (
"1154 -29 OFFCURVE",
"1381 22 OFFCURVE",
"1536 135 CURVE",
"1536 557 LINE",
"1509 569 LINE",
"1378 458 OFFCURVE",
"1222 406 OFFCURVE",
"1064 406 CURVE SMOOTH",
"794 406 OFFCURVE",
"639 561 OFFCURVE",
"639 847 CURVE SMOOTH",
"639 1137 OFFCURVE",
"783 1268 OFFCURVE",
"943 1268 CURVE SMOOTH",
"1088 1268 OFFCURVE",
"1184 1186 OFFCURVE",
"1195 930 CURVE",
"1560 930 LINE",
"1560 1592 LINE",
"1285 1592 LINE",
"1234 1433 LINE",
"1138 1555 OFFCURVE",
"991 1621 OFFCURVE",
"788 1621 CURVE SMOOTH",
"401 1621 OFFCURVE",
"73 1340 OFFCURVE",
"73 831 CURVE SMOOTH",
"73 298 OFFCURVE",
"415 -29 OFFCURVE",
"957 -29 CURVE SMOOTH"
);
},
{
closed = 1;
nodes = (
"1034 -200 LINE",
"1034 1792 LINE",
"836 1792 LINE",
"836 -200 LINE"
);
}
);
width = 1652;
}
);
leftKerningGroup = O;
leftMetricsKey = C;
rightKerningGroup = C;
rightMetricsKey = C;
},
{
color = 6;
glyphname = colonsign.ss01;
layers = (
{
layerId = "BC722C43-F174-4026-9892-4620CE50CA16";
paths = (
{
closed = 1;
nodes = (
"1154 -29 OFFCURVE",
"1381 22 OFFCURVE",
"1536 135 CURVE",
"1536 557 LINE",
"1509 569 LINE",
"1378 458 OFFCURVE",
"1222 396 OFFCURVE",
"1064 396 CURVE SMOOTH",
"774 396 OFFCURVE",
"639 561 OFFCURVE",
"639 803 CURVE SMOOTH",
"639 1031 OFFCURVE",
"774 1196 OFFCURVE",
"1064 1196 CURVE SMOOTH",
"1222 1196 OFFCURVE",
"1378 1134 OFFCURVE",
"1509 1023 CURVE",
"1536 1035 LINE",
"1536 1457 LINE",
"1381 1570 OFFCURVE",
"1154 1621 OFFCURVE",
"957 1621 CURVE SMOOTH",
"425 1621 OFFCURVE",
"73 1294 OFFCURVE",
"73 803 CURVE SMOOTH",
"73 298 OFFCURVE",
"425 -29 OFFCURVE",
"957 -29 CURVE SMOOTH"
);
},
{
closed = 1;
nodes = (
"841 -200 LINE",
"1141 1792 LINE",
"943 1792 LINE",
"643 -200 LINE"
);
},
{
closed = 1;
nodes = (
"1164 -200 LINE",
"1464 1792 LINE",
"1266 1792 LINE",
"966 -200 LINE"
);
}
);
width = 1638;
}
);
leftKerningGroup = O;
leftMetricsKey = C;
rightKerningGroup = C;
rightMetricsKey = "=C+10";
},
{
color = 6;
glyphname = dollar.ss01;
layers = (
{
layerId = "BC722C43-F174-4026-9892-4620CE50CA16";
paths = (
{
closed = 1;
nodes = (
"1276 -29 OFFCURVE",
"1499 163 OFFCURVE",
"1499 481 CURVE SMOOTH",
"1499 1171 OFFCURVE",
"571 948 OFFCURVE",
"571 1203 CURVE SMOOTH",
"571 1281 OFFCURVE",
"630 1323 OFFCURVE",
"768 1323 CURVE SMOOTH",
"920 1323 OFFCURVE",
"1045 1235 OFFCURVE",
"1084 1076 CURVE",
"1465 1076 LINE",
"1465 1592 LINE",
"1190 1592 LINE",
"1139 1435 LINE",
"1043 1555 OFFCURVE",
"896 1623 OFFCURVE",
"669 1623 CURVE SMOOTH",
"289 1623 OFFCURVE",
"62 1421 OFFCURVE",
"62 1120 CURVE SMOOTH",
"62 411 OFFCURVE",
"990 683 OFFCURVE",
"990 393 CURVE SMOOTH",
"990 317 OFFCURVE",
"939 271 OFFCURVE",
"801 271 CURVE SMOOTH",
"603 271 OFFCURVE",
"465 381 OFFCURVE",
"440 536 CURVE",
"67 536 LINE",
"67 0 LINE",
"342 0 LINE",
"393 157 LINE",
"491 43 OFFCURVE",
"652 -29 OFFCURVE",
"905 -29 CURVE SMOOTH"
);
},
{
closed = 1;
nodes = (
"880 -200 LINE",
"880 1792 LINE",
"682 1792 LINE",
"682 -200 LINE"
);
}
);
width = 1561;
}
);
leftKerningGroup = S;
leftMetricsKey = S;
rightKerningGroup = S;
rightMetricsKey = S;
},
{
color = 6;
glyphname = euro.ss01;
layers = (
{
layerId = "BC722C43-F174-4026-9892-4620CE50CA16";
paths = (
{
closed = 1;
nodes = (
"1264 -29 OFFCURVE",
"1491 22 OFFCURVE",
"1646 135 CURVE",
"1646 557 LINE",
"1619 569 LINE",
"1488 458 OFFCURVE",
"1332 406 OFFCURVE",
"1174 406 CURVE SMOOTH",
"894 406 OFFCURVE",
"744 561 OFFCURVE",
"744 831 CURVE SMOOTH",
"744 1137 OFFCURVE",
"883 1268 OFFCURVE",
"1053 1268 CURVE SMOOTH",
"1198 1268 OFFCURVE",
"1294 1186 OFFCURVE",
"1305 930 CURVE",
"1670 930 LINE",
"1670 1592 LINE",
"1395 1592 LINE",
"1344 1433 LINE",
"1248 1555 OFFCURVE",
"1101 1621 OFFCURVE",
"898 1621 CURVE SMOOTH",
"511 1621 OFFCURVE",
"183 1340 OFFCURVE",
"183 831 CURVE SMOOTH",
"183 298 OFFCURVE",
"525 -29 OFFCURVE",
"1067 -29 CURVE SMOOTH"
);
},
{
closed = 1;
nodes = (
"1103 589 LINE",
"1103 772 LINE",
"73 772 LINE",
"73 589 LINE"
);
},
{
closed = 1;
nodes = (
"1103 892 LINE",
"1103 1075 LINE",
"73 1075 LINE",
"73 892 LINE"
);
}
);
width = 1762;
}
);
leftKerningGroup = O;
widthMetricsKey = "=C+110";
rightKerningGroup = C;
rightMetricsKey = C;
},
{
color = 6;
glyphname = franc.ss01;
layers = (
{
layerId = "BC722C43-F174-4026-9892-4620CE50CA16";
paths = (
{
closed = 1;
nodes = (
"1022 0 LINE",
"1022 345 LINE",
"732 345 LINE",
"732 1252 LINE",
"1095 1252 LINE",
"1130 930 LINE",
"1460 930 LINE",
"1460 1592 LINE",
"64 1592 LINE",
"64 1247 LINE",
"224 1247 LINE",
"224 345 LINE",
"64 345 LINE",
"64 0 LINE"
);
},
{
closed = 1;
nodes = (
"1132 442 LINE",
"1132 625 LINE",
"114 625 LINE",
"114 442 LINE"
);
},
{
closed = 1;
nodes = (
"992 722 LINE",
"992 1052 LINE",
"716 1052 LINE",
"716 722 LINE"
);
}
);
width = 1495;
}
);
leftKerningGroup = H;
leftMetricsKey = F;
rightKerningGroup = F;
rightMetricsKey = F;
},
